Yantramanav-Regular.ufo
<glyph name="quotedbl" format="1">
  <advance width="847"/>
  <unicode hex="0022"/>
  <outline>
    <contour>
      <point x="375" y="1161" type="line"/>
      <point x="284" y="936" type="line"/>
      <point x="198" y="936" type="line"/>
      <point x="198" y="1152" type="line"/>
      <point x="198" y="1404" type="line"/>
      <point x="375" y="1404" type="line"/>
    </contour>
    <contour>
      <point x="653" y="1161" type="line"/>
      <point x="562" y="936" type="line"/>
      <point x="476" y="936" type="line"/>
      <point x="476" y="1159" type="line"/>
      <point x="476" y="1404" type="line"/>
      <point x="653" y="1404" type="line"/>
    </contour>
  </outline>
</glyph>
<glyph name="numbersign" format="1">
  <advance width="1148"/>
  <unicode hex="0023"/>
  <outline>
    <contour>
      <point x="641" y="369" type="line"/>
      <point x="411" y="369" type="line"/>
      <point x="339" y="0" type="line"/>
      <point x="203" y="0" type="line"/>
      <point x="275" y="369" type="line"/>
      <point x="63" y="369" type="line"/>
      <point x="63" y="495" type="line"/>
      <point x="301" y="495" type="line"/>
      <point x="362" y="808" type="line"/>
      <point x="131" y="808" type="line"/>
      <point x="131" y="936" type="line"/>
      <point x="387" y="936" type="line"/>
      <point x="461" y="1310" type="line"/>
      <point x="597" y="1310" type="line"/>
      <point x="523" y="936" type="line"/>
      <point x="752" y="936" type="line"/>
      <point x="826" y="1310" type="line"/>
      <point x="962" y="1310" type="line"/>
      <point x="888" y="936" type="line"/>
      <point x="1067" y="936" type="line"/>
      <point x="1067" y="808" type="line"/>
      <point x="864" y="808" type="line"/>
      <point x="803" y="495" type="line"/>
      <point x="1000" y="495" type="line"/>
      <point x="1000" y="369" type="line"/>
      <point x="778" y="369" type="line"/>
      <point x="706" y="0" type="line"/>
      <point x="569" y="0" type="line"/>
    </contour>
    <contour>
      <point x="437" y="495" type="line"/>
      <point x="666" y="495" type="line"/>
      <point x="727" y="808" type="line"/>
      <point x="498" y="808" type="line"/>
    </contour>
  </outline>
</glyph>
<glyph name="percent" format="1">
  <advance width="1348"/>
  <unicode hex="0025"/>
  <outline>
    <contour>
      <point x="94" y="1056" type="line" smooth="yes"/>
      <point x="94" y="1171"/>
      <point x="241" y="1327"/>
      <point x="365" y="1327" type="qcurve" smooth="yes"/>
      <point x="488" y="1327"/>
      <point x="635" y="1172"/>
      <point x="635" y="1056" type="qcurve" smooth="yes"/>
      <point x="635" y="987" type="line" smooth="yes"/>
      <point x="635" y="873"/>
      <point x="489" y="718"/>
      <point x="366" y="718" type="qcurve" smooth="yes"/>
      <point x="242" y="718"/>
      <point x="94" y="873"/>
      <point x="94" y="987" type="qcurve" smooth="yes"/>
    </contour>
    <contour>
      <point x="225" y="987" type="line" smooth="yes"/>
      <point x="225" y="920"/>
      <point x="298" y="828"/>
      <point x="366" y="828" type="qcurve" smooth="yes"/>
      <point x="432" y="828"/>
      <point x="504" y="920"/>
      <point x="504" y="987" type="qcurve" smooth="yes"/>
      <point x="504" y="1056" type="line" smooth="yes"/>
      <point x="504" y="1123"/>
      <point x="431" y="1217"/>
      <point x="365" y="1217" type="qcurve" smooth="yes"/>
      <point x="297" y="1217"/>
      <point x="225" y="1123"/>
      <point x="225" y="1056" type="qcurve" smooth="yes"/>
    </contour>
    <contour>
      <point x="728" y="319" type="line" smooth="yes"/>
      <point x="728" y="434"/>
      <point x="876" y="589"/>
      <point x="999" y="589" type="qcurve" smooth="yes"/>
      <point x="1121" y="589"/>
      <point x="1270" y="434"/>
      <point x="1270" y="319" type="qcurve" smooth="yes"/>
      <point x="1270" y="249" type="line" smooth="yes"/>
      <point x="1270" y="134"/>
      <point x="1122" y="-21"/>
      <point x="1001" y="-21" type="qcurve" smooth="yes"/>
      <point x="877" y="-21"/>
      <point x="728" y="134"/>
      <point x="728" y="249" type="qcurve" smooth="yes"/>
    </contour>
    <contour>
      <point x="860" y="249" type="line" smooth="yes"/>
      <point x="860" y="182"/>
      <point x="932" y="89"/>
      <point x="1001" y="89" type="qcurve" smooth="yes"/>
      <point x="1067" y="89"/>
      <point x="1139" y="182"/>
      <point x="1139" y="249" type="qcurve" smooth="yes"/>
      <point x="1139" y="319" type="line" smooth="yes"/>
      <point x="1139" y="386"/>
      <point x="1065" y="479"/>
      <point x="999" y="479" type="qcurve" smooth="yes"/>
      <point x="932" y="479"/>
      <point x="860" y="386"/>
      <point x="860" y="319" type="qcurve" smooth="yes"/>
    </contour>
    <contour>
      <point x="412" y="97" type="line"/>
      <point x="314" y="157" type="line"/>
      <point x="954" y="1181" type="line"/>
      <point x="1052" y="1121" type="line"/>
    </contour>
  </outline>
</glyph>
<glyph name="ampersand" format="1">
  <advance width="1148"/>
  <unicode hex="0026"/>
  <outline>
    <contour>
      <point x="58" y="351" type="qcurve" smooth="yes"/>
      <point x="58" y="461"/>
      <point x="185" y="625"/>
      <point x="311" y="708" type="qcurve"/>
      <point x="240" y="797"/>
      <point x="172" y="937"/>
      <point x="172" y="1010" type="qcurve" smooth="yes"/>
      <point x="172" y="1163"/>
      <point x="347" y="1327"/>
      <point x="501" y="1327" type="qcurve" smooth="yes"/>
      <point x="644" y="1327"/>
      <point x="822" y="1163"/>
      <point x="822" y="1048" type="qcurve" smooth="yes"/>
      <point x="822" y="960"/>
      <point x="727" y="831"/>
      <point x="635" y="764" type="qcurve" smooth="yes"/>
      <point x="536" y="692" type="line"/>
      <point x="842" y="324" type="line"/>
      <point x="879" y="382"/>
      <point x="921" y="524"/>
      <point x="921" y="604" type="qcurve"/>
      <point x="1079" y="604" type="line"/>
      <point x="1079" y="485"/>
      <point x="1009" y="283"/>
      <point x="942" y="203" type="qcurve"/>
      <point x="1109" y="2" type="line"/>
      <point x="1107" y="-2" type="line"/>
      <point x="901" y="-2" type="line"/>
      <point x="824" y="90" type="line"/>
      <point x="752" y="36"/>
      <point x="578" y="-21"/>
      <point x="484" y="-21" type="qcurve" smooth="yes"/>
      <point x="289" y="-21"/>
      <point x="58" y="186"/>
    </contour>
    <contour>
      <point x="484" y="118" type="qcurve" smooth="yes"/>
      <point x="549" y="118"/>
      <point x="675" y="162"/>
      <point x="731" y="203" type="qcurve"/>
      <point x="406" y="595" type="line"/>
      <point x="370" y="569" type="line" smooth="yes"/>
      <point x="288" y="507"/>
      <point x="235" y="396"/>
      <point x="235" y="351" type="qcurve" smooth="yes"/>
      <point x="235" y="249"/>
      <point x="363" y="118"/>
    </contour>
    <contour>
      <point x="349" y="1012" type="qcurve" smooth="yes"/>
      <point x="349" y="965"/>
      <point x="398" y="861"/>
      <point x="446" y="800" type="qcurve"/>
      <point x="571" y="885" type="line" smooth="yes"/>
      <point x="622" y="920"/>
      <point x="659" y="1000"/>
      <point x="659" y="1048" type="qcurve" smooth="yes"/>
      <point x="659" y="1103"/>
      <point x="572" y="1188"/>
      <point x="501" y="1188" type="qcurve" smooth="yes"/>
      <point x="428" y="1188"/>
      <point x="349" y="1086"/>
    </contour>
  </outline>
</glyph>
<glyph name="quotesingle" format="1">
  <advance width="569"/>
  <unicode hex="0027"/>
  <outline>
    <contour>
      <point x="375" y="1203" type="line"/>
      <point x="284" y="949" type="line"/>
      <point x="198" y="949" type="line"/>
      <point x="198" y="1188" type="line"/>
      <point x="198" y="1404" type="line"/>
      <point x="375" y="1404" type="line"/>
    </contour>
  </outline>
</glyph>
<glyph name="parenleft" format="1">
  <advance width="821"/>
  <unicode hex="0028"/>
  <outline>
    <contour>
      <point x="179" y="532" type="line"/>
      <point x="179" y="886"/>
      <point x="465" y="1389"/>
      <point x="622" y="1472" type="qcurve"/>
      <point x="628" y="1471" type="line"/>
      <point x="662" y="1367" type="line"/>
      <point x="539" y="1271"/>
      <point x="356" y="846"/>
      <point x="356" y="534" type="qcurve"/>
      <point x="356" y="522" type="line"/>
      <point x="356" y="210"/>
      <point x="538" y="-215"/>
      <point x="662" y="-320" type="qcurve"/>
      <point x="628" y="-417" type="line"/>
      <point x="622" y="-417" type="line"/>
      <point x="465" y="-333"/>
      <point x="179" y="168"/>
      <point x="179" y="524" type="qcurve"/>
    </contour>
  </outline>
</glyph>
<glyph name="parenright" format="1">
  <advance width="822"/>
  <unicode hex="0029"/>
  <outline>
    <contour>
      <point x="643" y="524" type="line"/>
      <point x="643" y="168"/>
      <point x="356" y="-333"/>
      <point x="199" y="-417" type="qcurve"/>
      <point x="194" y="-417" type="line"/>
      <point x="159" y="-320" type="line"/>
      <point x="281" y="-225"/>
      <point x="465" y="208"/>
      <point x="465" y="522" type="qcurve"/>
      <point x="465" y="534" type="line"/>
      <point x="465" y="841"/>
      <point x="275" y="1276"/>
      <point x="159" y="1375" type="qcurve"/>
      <point x="194" y="1472" type="line"/>
      <point x="199" y="1472" type="line"/>
      <point x="356" y="1389"/>
      <point x="643" y="886"/>
      <point x="643" y="532" type="qcurve"/>
    </contour>
  </outline>
</glyph>
<glyph name="asterisk" format="1">
  <advance width="796"/>
  <unicode hex="002A"/>
  <outline>
    <contour>
      <point x="292" y="945" type="line"/>
      <point x="25" y="1025" type="line"/>
      <point x="69" y="1163" type="line"/>
      <point x="336" y="1063" type="line"/>
      <point x="327" y="1371" type="line"/>
      <point x="472" y="1371" type="line"/>
      <point x="463" y="1058" type="line"/>
      <point x="726" y="1157" type="line"/>
      <point x="770" y="1017" type="line"/>
      <point x="498" y="936" type="line"/>
      <point x="671" y="693" type="line"/>
      <point x="554" y="607" type="line"/>
      <point x="391" y="865" type="line"/>
      <point x="232" y="614" type="line"/>
      <point x="113" y="698" type="line"/>
    </contour>
  </outline>
</glyph>
<glyph name="plus" format="1">
  <advance width="1046"/>
  <unicode hex="002B"/>
  <outline>
    <contour>
      <point x="609" y="719" type="line"/>
      <point x="968" y="719" type="line"/>
      <point x="968" y="559" type="line"/>
      <point x="609" y="559" type="line"/>
      <point x="609" y="146" type="line"/>
      <point x="432" y="146" type="line"/>
      <point x="432" y="559" type="line"/>
      <point x="70" y="559" type="line"/>
      <point x="70" y="719" type="line"/>
      <point x="432" y="719" type="line"/>
      <point x="432" y="1100" type="line"/>
      <point x="609" y="1100" type="line"/>
    </contour>
  </outline>
</glyph>
<glyph name="comma" format="1">
  <advance width="364"/>
  <unicode hex="002C"/>
  <outline>
    <contour>
      <point x="284" y="17" type="line"/>
      <point x="149" y="-258" type="line"/>
      <point x="43" y="-258" type="line"/>
      <point x="106" y="26" type="line"/>
      <point x="106" y="173" type="line"/>
      <point x="284" y="173" type="line"/>
    </contour>
  </outline>
</glyph>
<glyph name="hyphen" format="1">
  <advance width="505"/>
  <unicode hex="002D"/>
  <outline>
    <contour>
      <point x="473" y="538" type="line"/>
      <point x="32" y="538" type="line"/>
      <point x="32" y="677" type="line"/>
      <point x="473" y="677" type="line"/>
    </contour>
  </outline>
</glyph>
<glyph name="slash" format="1">
  <advance width="765"/>
  <unicode hex="002F"/>
  <outline>
    <contour>
      <point x="166" y="-125" type="line"/>
      <point x="14" y="-125" type="line"/>
      <point x="562" y="1298" type="line"/>
      <point x="712" y="1298" type="line"/>
    </contour>
  </outline>
</glyph>
<glyph name="zero" format="1">
  <advance width="1039"/>
  <unicode hex="0030"/>
  <outline>
    <contour>
      <point x="936" y="497" type="line" smooth="yes"/>
      <point x="936" y="246"/>
      <point x="714" y="-21"/>
      <point x="520" y="-21" type="qcurve" smooth="yes"/>
      <point x="327" y="-21"/>
      <point x="102" y="247"/>
      <point x="102" y="497" type="qcurve" smooth="yes"/>
      <point x="102" y="808" type="line" smooth="yes"/>
      <point x="102" y="1058"/>
      <point x="326" y="1327"/>
      <point x="518" y="1327" type="qcurve" smooth="yes"/>
      <point x="712" y="1327"/>
      <point x="936" y="1058"/>
      <point x="936" y="808" type="qcurve" smooth="yes"/>
    </contour>
    <contour>
      <point x="759" y="846" type="line" smooth="yes"/>
      <point x="759" y="1016"/>
      <point x="635" y="1188"/>
      <point x="518" y="1188" type="qcurve" smooth="yes"/>
      <point x="401" y="1188"/>
      <point x="279" y="1016"/>
      <point x="279" y="846" type="qcurve" smooth="yes"/>
      <point x="279" y="461" type="line" smooth="yes"/>
      <point x="279" y="291"/>
      <point x="403" y="118"/>
      <point x="520" y="118" type="qcurve" smooth="yes"/>
      <point x="637" y="118"/>
      <point x="759" y="290"/>
      <point x="759" y="461" type="qcurve" smooth="yes"/>
    </contour>
  </outline>
</glyph>
<glyph name="one" format="1">
  <advance width="1038"/>
  <unicode hex="0031"/>
  <outline>
    <contour>
      <point x="613" y="0" type="line"/>
      <point x="436" y="0" type="line"/>
      <point x="436" y="1138" type="line"/>
      <point x="167" y="1134" type="line"/>
      <point x="167" y="1262" type="line"/>
      <point x="613" y="1310" type="line"/>
    </contour>
  </outline>
</glyph>
<glyph name="two" format="1">
  <advance width="1038"/>
  <unicode hex="0032"/>
  <outline>
    <contour>
      <point x="956" y="0" type="line"/>
      <point x="106" y="0" type="line"/>
      <point x="106" y="122" type="line"/>
      <point x="536" y="599" type="line" smooth="yes"/>
      <point x="651" y="727"/>
      <point x="733" y="878"/>
      <point x="733" y="958" type="qcurve" smooth="yes"/>
      <point x="733" y="1056"/>
      <point x="618" y="1190"/>
      <point x="524" y="1190" type="qcurve" smooth="yes"/>
      <point x="388" y="1190"/>
      <point x="259" y="1050"/>
      <point x="259" y="924" type="qcurve"/>
      <point x="89" y="924" type="line"/>
      <point x="87" y="930" type="line"/>
      <point x="83" y="1099"/>
      <point x="317" y="1329"/>
      <point x="524" y="1329" type="qcurve" smooth="yes"/>
      <point x="700" y="1329"/>
      <point x="910" y="1123"/>
      <point x="910" y="964" type="qcurve" smooth="yes"/>
      <point x="910" y="857"/>
      <point x="783" y="642"/>
      <point x="669" y="518" type="qcurve" smooth="yes"/>
      <point x="324" y="143" type="line"/>
      <point x="326" y="139" type="line"/>
      <point x="956" y="139" type="line"/>
    </contour>
  </outline>
</glyph>
<glyph name="three" format="1">
  <advance width="1038"/>
  <unicode hex="0033"/>
  <outline>
    <contour>
      <point x="349" y="735" type="line"/>
      <point x="504" y="735" type="line" smooth="yes"/>
      <point x="622" y="735"/>
      <point x="720" y="853"/>
      <point x="720" y="958" type="qcurve" smooth="yes"/>
      <point x="720" y="1071"/>
      <point x="608" y="1188"/>
      <point x="500" y="1188" type="qcurve" smooth="yes"/>
      <point x="396" y="1188"/>
      <point x="271" y="1066"/>
      <point x="271" y="965" type="qcurve"/>
      <point x="101" y="965" type="line"/>
      <point x="99" y="971" type="line"/>
      <point x="95" y="1119"/>
      <point x="319" y="1327"/>
      <point x="500" y="1327" type="qcurve" smooth="yes"/>
      <point x="681" y="1327"/>
      <point x="897" y="1134"/>
      <point x="897" y="955" type="qcurve" smooth="yes"/>
      <point x="897" y="874"/>
      <point x="799" y="713"/>
      <point x="701" y="670" type="qcurve"/>
      <point x="819" y="632"/>
      <point x="917" y="466"/>
      <point x="917" y="363" type="qcurve" smooth="yes"/>
      <point x="917" y="184"/>
      <point x="682" y="-21"/>
      <point x="500" y="-21" type="qcurve" smooth="yes"/>
      <point x="320" y="-21"/>
      <point x="86" y="173"/>
      <point x="90" y="338" type="qcurve"/>
      <point x="93" y="344" type="line"/>
      <point x="262" y="344" type="line"/>
      <point x="262" y="240"/>
      <point x="389" y="118"/>
      <point x="500" y="118" type="qcurve" smooth="yes"/>
      <point x="612" y="118"/>
      <point x="740" y="240"/>
      <point x="740" y="360" type="qcurve" smooth="yes"/>
      <point x="740" y="481"/>
      <point x="626" y="596"/>
      <point x="504" y="596" type="qcurve" smooth="yes"/>
      <point x="349" y="596" type="line"/>
    </contour>
  </outline>
</glyph>
<glyph name="four" format="1">
  <advance width="1038"/>
  <unicode hex="0034"/>
  <outline>
    <contour>
      <point x="815" y="441" type="line"/>
      <point x="995" y="441" type="line"/>
      <point x="995" y="302" type="line"/>
      <point x="815" y="302" type="line"/>
      <point x="815" y="0" type="line"/>
      <point x="638" y="0" type="line"/>
      <point x="638" y="302" type="line"/>
      <point x="50" y="302" type="line"/>
      <point x="50" y="402" type="line"/>
      <point x="627" y="1310" type="line"/>
      <point x="815" y="1310" type="line"/>
    </contour>
    <contour>
      <point x="239" y="441" type="line"/>
      <point x="638" y="441" type="line"/>
      <point x="638" y="1056" type="line"/>
      <point x="633" y="1057" type="line"/>
      <point x="616" y="1012" type="line"/>
    </contour>
  </outline>
</glyph>
<glyph name="five" format="1">
  <advance width="1038"/>
  <unicode hex="0035"/>
  <outline>
    <contour>
      <point x="158" y="589" type="line"/>
      <point x="233" y="1308" type="line"/>
      <point x="889" y="1308" type="line"/>
      <point x="889" y="1151" type="line"/>
      <point x="383" y="1151" type="line"/>
      <point x="340" y="783" type="line"/>
      <point x="382" y="813"/>
      <point x="483" y="854"/>
      <point x="550" y="856" type="qcurve" smooth="yes"/>
      <point x="731" y="857"/>
      <point x="939" y="618"/>
      <point x="939" y="416" type="qcurve" smooth="yes"/>
      <point x="939" y="218"/>
      <point x="727" y="-21"/>
      <point x="525" y="-21" type="qcurve" smooth="yes"/>
      <point x="358" y="-21"/>
      <point x="137" y="161"/>
      <point x="141" y="337" type="qcurve"/>
      <point x="143" y="343" type="line"/>
      <point x="303" y="343" type="line"/>
      <point x="303" y="236"/>
      <point x="427" y="118"/>
      <point x="525" y="118" type="qcurve" smooth="yes"/>
      <point x="637" y="118"/>
      <point x="761" y="276"/>
      <point x="761" y="414" type="qcurve" smooth="yes"/>
      <point x="761" y="540"/>
      <point x="635" y="702"/>
      <point x="525" y="702" type="qcurve" smooth="yes"/>
      <point x="420" y="702"/>
      <point x="327" y="639"/>
      <point x="305" y="574" type="qcurve"/>
    </contour>
  </outline>
</glyph>
<glyph name="six" format="1">
  <advance width="1038"/>
  <unicode hex="0036"/>
  <outline>
    <contour>
      <point x="608" y="1327" type="qcurve" smooth="yes"/>
      <point x="675" y="1327"/>
      <point x="807" y="1297"/>
      <point x="851" y="1273" type="qcurve"/>
      <point x="813" y="1137" type="line"/>
      <point x="769" y="1160"/>
      <point x="672" y="1188"/>
      <point x="608" y="1188" type="qcurve" smooth="yes"/>
      <point x="467" y="1188"/>
      <point x="295" y="963"/>
      <point x="295" y="782" type="qcurve" smooth="yes"/>
      <point x="295" y="761" type="line"/>
      <point x="353" y="812"/>
      <point x="501" y="868"/>
      <point x="587" y="868" type="qcurve" smooth="yes"/>
      <point x="762" y="868"/>
      <point x="971" y="625"/>
      <point x="971" y="439" type="qcurve" smooth="yes"/>
      <point x="971" y="236"/>
      <point x="749" y="-21"/>
      <point x="563" y="-21" type="qcurve" smooth="yes"/>
      <point x="371" y="-21"/>
      <point x="119" y="258"/>
      <point x="119" y="512" type="qcurve" smooth="yes"/>
      <point x="119" y="762" type="line" smooth="yes"/>
      <point x="119" y="1014"/>
      <point x="400" y="1327"/>
    </contour>
    <contour>
      <point x="547" y="736" type="qcurve" smooth="yes"/>
      <point x="456" y="736"/>
      <point x="329" y="662"/>
      <point x="295" y="601" type="qcurve"/>
      <point x="295" y="495" type="line" smooth="yes"/>
      <point x="295" y="314"/>
      <point x="448" y="118"/>
      <point x="563" y="118" type="qcurve" smooth="yes"/>
      <point x="672" y="118"/>
      <point x="794" y="302"/>
      <point x="794" y="439" type="qcurve" smooth="yes"/>
      <point x="794" y="569"/>
      <point x="663" y="736"/>
    </contour>
  </outline>
</glyph>
<glyph name="seven" format="1">
  <advance width="1038"/>
  <unicode hex="0037"/>
  <outline>
    <contour>
      <point x="956" y="1171" type="line"/>
      <point x="718" y="888"/>
      <point x="552" y="452"/>
      <point x="515" y="141" type="qcurve" smooth="yes"/>
      <point x="500" y="0" type="line"/>
      <point x="323" y="0" type="line"/>
      <point x="338" y="141" type="line" smooth="yes"/>
      <point x="375" y="451"/>
      <point x="593" y="939"/>
      <point x="782" y="1171" type="qcurve"/>
      <point x="69" y="1171" type="line"/>
      <point x="69" y="1310" type="line"/>
      <point x="956" y="1310" type="line"/>
    </contour>
  </outline>
</glyph>
<glyph name="eight" format="1">
  <advance width="1038"/>
  <unicode hex="0038"/>
  <outline>
    <contour>
      <point x="909" y="966" type="qcurve" smooth="yes"/>
      <point x="909" y="864"/>
      <point x="794" y="710"/>
      <point x="696" y="672" type="qcurve"/>
      <point x="809" y="632"/>
      <point x="945" y="463"/>
      <point x="945" y="353" type="qcurve" smooth="yes"/>
      <point x="945" y="171"/>
      <point x="708" y="-21"/>
      <point x="519" y="-21" type="qcurve" smooth="yes"/>
      <point x="327" y="-21"/>
      <point x="92" y="171"/>
      <point x="92" y="353" type="qcurve" smooth="yes"/>
      <point x="92" y="463"/>
      <point x="225" y="632"/>
      <point x="338" y="672" type="qcurve"/>
      <point x="240" y="710"/>
      <point x="129" y="864"/>
      <point x="129" y="966" type="qcurve" smooth="yes"/>
      <point x="129" y="1139"/>
      <point x="342" y="1327"/>
      <point x="518" y="1327" type="qcurve" smooth="yes"/>
      <point x="690" y="1327"/>
      <point x="909" y="1139"/>
    </contour>
    <contour>
      <point x="769" y="356" type="qcurve" smooth="yes"/>
      <point x="769" y="464"/>
      <point x="626" y="603"/>
      <point x="518" y="603" type="qcurve" smooth="yes"/>
      <point x="407" y="603"/>
      <point x="269" y="464"/>
      <point x="269" y="356" type="qcurve" smooth="yes"/>
      <point x="269" y="245"/>
      <point x="406" y="118"/>
      <point x="519" y="118" type="qcurve" smooth="yes"/>
      <point x="630" y="118"/>
      <point x="769" y="245"/>
    </contour>
    <contour>
      <point x="732" y="963" type="qcurve" smooth="yes"/>
      <point x="732" y="1060"/>
      <point x="610" y="1188"/>
      <point x="518" y="1188" type="qcurve" smooth="yes"/>
      <point x="423" y="1188"/>
      <point x="306" y="1064"/>
      <point x="306" y="963" type="qcurve" smooth="yes"/>
      <point x="306" y="863"/>
      <point x="424" y="742"/>
      <point x="519" y="742" type="qcurve" smooth="yes"/>
      <point x="613" y="742"/>
      <point x="732" y="863"/>
    </contour>
  </outline>
</glyph>
<glyph name="nine" format="1">
  <advance width="1038"/>
  <unicode hex="0039"/>
  <outline>
    <contour>
      <point x="460" y="118" type="qcurve" smooth="yes"/>
      <point x="590" y="118"/>
      <point x="745" y="314"/>
      <point x="745" y="507" type="qcurve" smooth="yes"/>
      <point x="745" y="567" type="line"/>
      <point x="701" y="503"/>
      <point x="569" y="437"/>
      <point x="488" y="437" type="qcurve" smooth="yes"/>
      <point x="298" y="437"/>
      <point x="75" y="672"/>
      <point x="75" y="878" type="qcurve" smooth="yes"/>
      <point x="75" y="1075"/>
      <point x="311" y="1327"/>
      <point x="481" y="1327" type="qcurve" smooth="yes"/>
      <point x="686" y="1327"/>
      <point x="923" y="1071"/>
      <point x="923" y="821" type="qcurve" smooth="yes"/>
      <point x="923" y="509" type="line" smooth="yes"/>
      <point x="923" y="253"/>
      <point x="666" y="-21"/>
      <point x="460" y="-21" type="qcurve" smooth="yes"/>
      <point x="391" y="-21"/>
      <point x="248" y="5"/>
      <point x="191" y="32" type="qcurve"/>
      <point x="218" y="168" type="line"/>
      <point x="271" y="140"/>
      <point x="385" y="118"/>
    </contour>
    <contour>
      <point x="488" y="576" type="qcurve" smooth="yes"/>
      <point x="586" y="576"/>
      <point x="716" y="660"/>
      <point x="745" y="726" type="qcurve"/>
      <point x="745" y="839" type="line" smooth="yes"/>
      <point x="745" y="1011"/>
      <point x="613" y="1188"/>
      <point x="486" y="1188" type="qcurve" smooth="yes"/>
      <point x="389" y="1188"/>
      <point x="252" y="1014"/>
      <point x="252" y="878" type="qcurve" smooth="yes"/>
      <point x="252" y="743"/>
      <point x="379" y="576"/>
    </contour>
  </outline>
</glyph>
<glyph name="less" format="1">
  <advance width="936"/>
  <unicode hex="003C"/>
  <outline>
    <contour>
      <point x="295" y="512" type="line"/>
      <point x="219" y="496" type="line"/>
      <point x="219" y="490" type="line"/>
      <point x="295" y="473" type="line"/>
      <point x="798" y="268" type="line"/>
      <point x="798" y="87" type="line"/>
      <point x="64" y="428" type="line"/>
      <point x="64" y="562" type="line"/>
      <point x="798" y="902" type="line"/>
      <point x="798" y="722" type="line"/>
    </contour>
  </outline>
</glyph>
<glyph name="equal" format="1">
  <advance width="1038"/>
  <unicode hex="003D"/>
  <outline>
    <contour>
      <point x="887" y="781" type="line"/>
      <point x="137" y="781" type="line"/>
      <point x="137" y="929" type="line"/>
      <point x="887" y="929" type="line"/>
    </contour>
    <contour>
      <point x="887" y="407" type="line"/>
      <point x="137" y="407" type="line"/>
      <point x="137" y="555" type="line"/>
      <point x="887" y="555" type="line"/>
    </contour>
  </outline>
</glyph>
<glyph name="greater" format="1">
  <advance width="965"/>
  <unicode hex="003E"/>
  <outline>
    <contour>
      <point x="122" y="727" type="line"/>
      <point x="122" y="902" type="line"/>
      <point x="893" y="562" type="line"/>
      <point x="893" y="428" type="line"/>
      <point x="122" y="87" type="line"/>
      <point x="122" y="263" type="line"/>
      <point x="661" y="478" type="line"/>
      <point x="737" y="493" type="line"/>
      <point x="737" y="498" type="line"/>
      <point x="661" y="516" type="line"/>
    </contour>
  </outline>
</glyph>
<glyph name="at" format="1">
  <advance width="1650"/>
  <unicode hex="0040"/>
  <outline>
    <contour>
      <point x="1559" y="407" type="qcurve" smooth="yes"/>
      <point x="1551" y="214"/>
      <point x="1351" y="-64"/>
      <point x="1152" y="-64" type="qcurve" smooth="yes"/>
      <point x="1086" y="-64"/>
      <point x="991" y="10"/>
      <point x="970" y="79" type="qcurve"/>
      <point x="925" y="7"/>
      <point x="796" y="-64"/>
      <point x="709" y="-64" type="qcurve" smooth="yes"/>
      <point x="597" y="-64"/>
      <point x="473" y="153"/>
      <point x="489" y="329" type="qcurve" smooth="yes"/>
      <point x="509" y="562"/>
      <point x="716" y="844"/>
      <point x="864" y="844" type="qcurve" smooth="yes"/>
      <point x="959" y="844"/>
      <point x="1074" y="797"/>
      <point x="1141" y="749" type="qcurve"/>
      <point x="1138" y="745" type="line"/>
      <point x="1143" y="745" type="line"/>
      <point x="1097" y="218" type="line" smooth="yes"/>
      <point x="1089" y="119"/>
      <point x="1144" y="45"/>
      <point x="1190" y="45" type="qcurve" smooth="yes"/>
      <point x="1301" y="45"/>
      <point x="1434" y="249"/>
      <point x="1441" y="407" type="qcurve" smooth="yes"/>
      <point x="1455" y="750"/>
      <point x="1167" y="1135"/>
      <point x="865" y="1135" type="qcurve" smooth="yes"/>
      <point x="588" y="1135"/>
      <point x="250" y="719"/>
      <point x="237" y="385" type="qcurve" smooth="yes"/>
      <point x="221" y="46"/>
      <point x="523" y="-347"/>
      <point x="806" y="-347" type="qcurve" smooth="yes"/>
      <point x="885" y="-347"/>
      <point x="1048" y="-308"/>
      <point x="1103" y="-277" type="qcurve"/>
      <point x="1138" y="-373" type="line"/>
      <point x="1077" y="-411"/>
      <point x="891" y="-453"/>
      <point x="802" y="-453" type="qcurve" smooth="yes"/>
      <point x="460" y="-453"/>
      <point x="86" y="-4"/>
      <point x="103" y="385" type="qcurve" smooth="yes"/>
      <point x="120" y="766"/>
      <point x="534" y="1243"/>
      <point x="869" y="1243" type="qcurve" smooth="yes"/>
      <point x="1210" y="1243"/>
      <point x="1574" y="793"/>
    </contour>
    <contour>
      <point x="648" y="329" type="qcurve" smooth="yes"/>
      <point x="638" y="201"/>
      <point x="697" y="68"/>
      <point x="763" y="68" type="qcurve" smooth="yes"/>
      <point x="821" y="68"/>
      <point x="916" y="112"/>
      <point x="956" y="169" type="qcurve"/>
      <point x="955" y="180"/>
      <point x="956" y="204"/>
      <point x="958" y="218" type="qcurve" smooth="yes"/>
      <point x="1000" y="703" type="line"/>
      <point x="977" y="713"/>
      <point x="925" y="726"/>
      <point x="897" y="726" type="qcurve" smooth="yes"/>
      <point x="785" y="726"/>
      <point x="666" y="529"/>
    </contour>
  </outline>
</glyph>
<glyph name="A" format="1">
  <advance width="1193"/>
  <unicode hex="0041"/>
  <outline>
    <contour>
      <point x="872" y="338" type="line"/>
      <point x="323" y="338" type="line"/>
      <point x="199" y="0" type="line"/>
      <point x="18" y="0" type="line"/>
      <point x="525" y="1310" type="line"/>
      <point x="677" y="1310" type="line"/>
      <point x="1175" y="0" type="line"/>
      <point x="995" y="0" type="line"/>
    </contour>
    <contour>
      <point x="378" y="486" type="line"/>
      <point x="819" y="486" type="line"/>
      <point x="603" y="1083" type="line"/>
      <point x="598" y="1083" type="line"/>
    </contour>
  </outline>
</glyph>
<glyph name="B" format="1">
  <advance width="1178"/>
  <unicode hex="0042"/>
  <outline>
    <contour>
      <point x="162" y="0" type="line"/>
      <point x="162" y="1310" type="line"/>
      <point x="590" y="1310" type="line" smooth="yes"/>
      <point x="795" y="1310"/>
      <point x="1027" y="1133"/>
      <point x="1027" y="956" type="qcurve" smooth="yes"/>
      <point x="1027" y="869"/>
      <point x="915" y="731"/>
      <point x="824" y="698" type="qcurve"/>
      <point x="943" y="672"/>
      <point x="1079" y="491"/>
      <point x="1079" y="370" type="qcurve" smooth="yes"/>
      <point x="1079" y="190"/>
      <point x="846" y="0"/>
      <point x="646" y="0" type="qcurve" smooth="yes"/>
    </contour>
    <contour>
      <point x="339" y="615" type="line"/>
      <point x="339" y="139" type="line"/>
      <point x="646" y="139" type="line" smooth="yes"/>
      <point x="767" y="139"/>
      <point x="902" y="258"/>
      <point x="902" y="368" type="qcurve" smooth="yes"/>
      <point x="902" y="483"/>
      <point x="789" y="615"/>
      <point x="672" y="615" type="qcurve" smooth="yes"/>
    </contour>
    <contour>
      <point x="339" y="753" type="line"/>
      <point x="626" y="753" type="line" smooth="yes"/>
      <point x="725" y="753"/>
      <point x="850" y="862"/>
      <point x="850" y="959" type="qcurve" smooth="yes"/>
      <point x="850" y="1066"/>
      <point x="716" y="1171"/>
      <point x="590" y="1171" type="qcurve" smooth="yes"/>
      <point x="339" y="1171" type="line"/>
    </contour>
  </outline>
</glyph>
<glyph name="C" format="1">
  <advance width="1167"/>
  <unicode hex="0043"/>
  <outline>
    <contour>
      <point x="1088" y="417" type="line"/>
      <point x="1090" y="412" type="line"/>
      <point x="1094" y="227"/>
      <point x="827" y="-21"/>
      <point x="608" y="-21" type="qcurve" smooth="yes"/>
      <point x="386" y="-21"/>
      <point x="106" y="294"/>
      <point x="106" y="536" type="qcurve" smooth="yes"/>
      <point x="106" y="769" type="line" smooth="yes"/>
      <point x="106" y="1011"/>
      <point x="386" y="1327"/>
      <point x="608" y="1327" type="qcurve" smooth="yes"/>
      <point x="831" y="1327"/>
      <point x="1094" y="1091"/>
      <point x="1090" y="895" type="qcurve"/>
      <point x="1088" y="890" type="line"/>
      <point x="918" y="890" type="line"/>
      <point x="918" y="1028"/>
      <point x="756" y="1188"/>
      <point x="608" y="1188" type="qcurve" smooth="yes"/>
      <point x="460" y="1188"/>
      <point x="284" y="948"/>
      <point x="284" y="771" type="qcurve" smooth="yes"/>
      <point x="284" y="536" type="line" smooth="yes"/>
      <point x="284" y="357"/>
      <point x="460" y="118"/>
      <point x="608" y="118" type="qcurve" smooth="yes"/>
      <point x="756" y="118"/>
      <point x="918" y="277"/>
      <point x="918" y="417" type="qcurve"/>
    </contour>
  </outline>
</glyph>
<glyph name="D" format="1">
  <advance width="1214"/>
  <unicode hex="0044"/>
  <outline>
    <contour>
      <point x="162" y="0" type="line"/>
      <point x="162" y="1310" type="line"/>
      <point x="564" y="1310" type="line" smooth="yes"/>
      <point x="822" y="1310"/>
      <point x="1133" y="995"/>
      <point x="1133" y="744" type="qcurve" smooth="yes"/>
      <point x="1133" y="565" type="line" smooth="yes"/>
      <point x="1133" y="314"/>
      <point x="822" y="0"/>
      <point x="564" y="0" type="qcurve" smooth="yes"/>
    </contour>
    <contour>
      <point x="339" y="1171" type="line"/>
      <point x="339" y="139" type="line"/>
      <point x="564" y="139" type="line" smooth="yes"/>
      <point x="746" y="139"/>
      <point x="956" y="378"/>
      <point x="956" y="565" type="qcurve" smooth="yes"/>
      <point x="956" y="746" type="line" smooth="yes"/>
      <point x="956" y="932"/>
      <point x="746" y="1171"/>
      <point x="564" y="1171" type="qcurve" smooth="yes"/>
    </contour>
  </outline>
</glyph>
<glyph name="E" format="1">
  <advance width="1077"/>
  <unicode hex="0045"/>
  <outline>
    <contour>
      <point x="940" y="608" type="line"/>
      <point x="339" y="608" type="line"/>
      <point x="339" y="139" type="line"/>
      <point x="1031" y="139" type="line"/>
      <point x="1031" y="0" type="line"/>
      <point x="162" y="0" type="line"/>
      <point x="162" y="1310" type="line"/>
      <point x="1022" y="1310" type="line"/>
      <point x="1022" y="1171" type="line"/>
      <point x="339" y="1171" type="line"/>
      <point x="339" y="747" type="line"/>
      <point x="940" y="747" type="line"/>
    </contour>
  </outline>
</glyph>
<glyph name="F" format="1">
  <advance width="1074"/>
  <unicode hex="0046"/>
  <outline>
    <contour>
      <point x="937" y="580" type="line"/>
      <point x="339" y="580" type="line"/>
      <point x="339" y="0" type="line"/>
      <point x="162" y="0" type="line"/>
      <point x="162" y="1310" type="line"/>
      <point x="1029" y="1310" type="line"/>
      <point x="1029" y="1171" type="line"/>
      <point x="339" y="1171" type="line"/>
      <point x="339" y="719" type="line"/>
      <point x="937" y="719" type="line"/>
    </contour>
  </outline>
</glyph>
<glyph name="G" format="1">
  <advance width="1256"/>
  <unicode hex="0047"/>
  <outline>
    <contour>
      <point x="1112" y="172" type="line"/>
      <point x="1065" y="100"/>
      <point x="833" y="-21"/>
      <point x="650" y="-21" type="qcurve" smooth="yes"/>
      <point x="415" y="-21"/>
      <point x="108" y="280"/>
      <point x="108" y="518" type="qcurve" smooth="yes"/>
      <point x="108" y="788" type="line" smooth="yes"/>
      <point x="108" y="1027"/>
      <point x="394" y="1327"/>
      <point x="620" y="1327" type="qcurve" smooth="yes"/>
      <point x="845" y="1327"/>
      <point x="1103" y="1106"/>
      <point x="1105" y="931" type="qcurve"/>
      <point x="1103" y="926" type="line"/>
      <point x="934" y="926" type="line"/>
      <point x="926" y="1040"/>
      <point x="769" y="1188"/>
      <point x="620" y="1188" type="qcurve" smooth="yes"/>
      <point x="470" y="1188"/>
      <point x="286" y="963"/>
      <point x="286" y="790" type="qcurve" smooth="yes"/>
      <point x="286" y="518" type="line" smooth="yes"/>
      <point x="286" y="344"/>
      <point x="491" y="118"/>
      <point x="650" y="118" type="qcurve" smooth="yes"/>
      <point x="761" y="118"/>
      <point x="904" y="177"/>
      <point x="934" y="215" type="qcurve"/>
      <point x="934" y="513" type="line"/>
      <point x="647" y="513" type="line"/>
      <point x="647" y="652" type="line"/>
      <point x="1112" y="652" type="line"/>
    </contour>
  </outline>
</glyph>
<glyph name="H" format="1">
  <advance width="1315"/>
  <unicode hex="0048"/>
  <outline>
    <contour>
      <point x="1153" y="0" type="line"/>
      <point x="976" y="0" type="line"/>
      <point x="976" y="579" type="line"/>
      <point x="339" y="579" type="line"/>
      <point x="339" y="0" type="line"/>
      <point x="162" y="0" type="line"/>
      <point x="162" y="1310" type="line"/>
      <point x="339" y="1310" type="line"/>
      <point x="339" y="718" type="line"/>
      <point x="976" y="718" type="line"/>
      <point x="976" y="1310" type="line"/>
      <point x="1153" y="1310" type="line"/>
    </contour>
  </outline>
</glyph>
<glyph name="I" format="1">
  <advance width="521"/>
  <unicode hex="0049"/>
  <outline>
    <contour>
      <point x="349" y="0" type="line"/>
      <point x="171" y="0" type="line"/>
      <point x="171" y="1310" type="line"/>
      <point x="349" y="1310" type="line"/>
    </contour>
  </outline>
</glyph>
<glyph name="J" format="1">
  <advance width="1017"/>
  <unicode hex="004A"/>
  <outline>
    <contour>
      <point x="689" y="1308" type="line"/>
      <point x="867" y="1308" type="line"/>
      <point x="867" y="361" type="line" smooth="yes"/>
      <point x="867" y="185"/>
      <point x="644" y="-21"/>
      <point x="467" y="-21" type="qcurve" smooth="yes"/>
      <point x="278" y="-21"/>
      <point x="55" y="171"/>
      <point x="59" y="353" type="qcurve"/>
      <point x="61" y="359" type="line"/>
      <point x="231" y="359" type="line"/>
      <point x="231" y="237"/>
      <point x="355" y="118"/>
      <point x="467" y="118" type="qcurve" smooth="yes"/>
      <point x="565" y="118"/>
      <point x="689" y="250"/>
      <point x="689" y="361" type="qcurve" smooth="yes"/>
    </contour>
  </outline>
</glyph>
<glyph name="K" format="1">
  <advance width="1185"/>
  <unicode hex="004B"/>
  <outline>
    <contour>
      <point x="492" y="591" type="line"/>
      <point x="339" y="591" type="line"/>
      <point x="339" y="0" type="line"/>
      <point x="162" y="0" type="line"/>
      <point x="162" y="1310" type="line"/>
      <point x="339" y="1310" type="line"/>
      <point x="339" y="731" type="line"/>
      <point x="476" y="731" type="line"/>
      <point x="945" y="1310" type="line"/>
      <point x="1141" y="1310" type="line"/>
      <point x="1144" y="1306" type="line"/>
      <point x="635" y="677" type="line"/>
      <point x="1181" y="5" type="line"/>
      <point x="1178" y="0" type="line"/>
      <point x="967" y="0" type="line"/>
    </contour>
  </outline>
</glyph>
<glyph name="L" format="1">
  <advance width="995"/>
  <unicode hex="004C"/>
  <outline>
    <contour>
      <point x="339" y="139" type="line"/>
      <point x="959" y="139" type="line"/>
      <point x="959" y="0" type="line"/>
      <point x="162" y="0" type="line"/>
      <point x="162" y="1310" type="line"/>
      <point x="339" y="1310" type="line"/>
    </contour>
  </outline>
</glyph>
<glyph name="M" format="1">
  <advance width="1619"/>
  <unicode hex="004D"/>
  <outline>
    <contour>
      <point x="389" y="1310" type="line"/>
      <point x="806" y="246" type="line"/>
      <point x="812" y="246" type="line"/>
      <point x="1229" y="1310" type="line"/>
      <point x="1456" y="1310" type="line"/>
      <point x="1456" y="0" type="line"/>
      <point x="1279" y="0" type="line"/>
      <point x="1279" y="518" type="line"/>
      <point x="1297" y="1051" type="line"/>
      <point x="1292" y="1052" type="line"/>
      <point x="868" y="0" type="line"/>
      <point x="750" y="0" type="line"/>
      <point x="327" y="1049" type="line"/>
      <point x="322" y="1049" type="line"/>
      <point x="339" y="518" type="line"/>
      <point x="339" y="0" type="line"/>
      <point x="162" y="0" type="line"/>
      <point x="162" y="1310" type="line"/>
    </contour>
  </outline>
</glyph>
<glyph name="N" format="1">
  <advance width="1315"/>
  <unicode hex="004E"/>
  <outline>
    <contour>
      <point x="1153" y="0" type="line"/>
      <point x="976" y="0" type="line"/>
      <point x="345" y="1013" type="line"/>
      <point x="339" y="1012" type="line"/>
      <point x="339" y="0" type="line"/>
      <point x="162" y="0" type="line"/>
      <point x="162" y="1310" type="line"/>
      <point x="339" y="1310" type="line"/>
      <point x="970" y="299" type="line"/>
      <point x="976" y="301" type="line"/>
      <point x="976" y="1310" type="line"/>
      <point x="1153" y="1310" type="line"/>
    </contour>
  </outline>
</glyph>
<glyph name="O" format="1">
  <advance width="1256"/>
  <unicode hex="004F"/>
  <outline>
    <contour>
      <point x="1154" y="536" type="line" smooth="yes"/>
      <point x="1154" y="296"/>
      <point x="856" y="-21"/>
      <point x="618" y="-21" type="qcurve" smooth="yes"/>
      <point x="389" y="-21"/>
      <point x="102" y="296"/>
      <point x="102" y="536" type="qcurve" smooth="yes"/>
      <point x="102" y="769" type="line" smooth="yes"/>
      <point x="102" y="1009"/>
      <point x="389" y="1327"/>
      <point x="618" y="1327" type="qcurve" smooth="yes"/>
      <point x="856" y="1327"/>
      <point x="1154" y="1010"/>
      <point x="1154" y="769" type="qcurve" smooth="yes"/>
    </contour>
    <contour>
      <point x="977" y="771" type="line" smooth="yes"/>
      <point x="977" y="951"/>
      <point x="782" y="1181"/>
      <point x="618" y="1181" type="qcurve" smooth="yes"/>
      <point x="464" y="1181"/>
      <point x="279" y="951"/>
      <point x="279" y="771" type="qcurve" smooth="yes"/>
      <point x="279" y="536" type="line" smooth="yes"/>
      <point x="279" y="354"/>
      <point x="464" y="124"/>
      <point x="618" y="124" type="qcurve" smooth="yes"/>
      <point x="783" y="124"/>
      <point x="977" y="353"/>
      <point x="977" y="536" type="qcurve" smooth="yes"/>
    </contour>
  </outline>
</glyph>
<glyph name="P" format="1">
  <advance width="1181"/>
  <unicode hex="0050"/>
  <outline>
    <contour>
      <point x="339" y="526" type="line"/>
      <point x="339" y="0" type="line"/>
      <point x="162" y="0" type="line"/>
      <point x="162" y="1310" type="line"/>
      <point x="663" y="1310" type="line" smooth="yes"/>
      <point x="873" y="1310"/>
      <point x="1105" y="1094"/>
      <point x="1105" y="918" type="qcurve" smooth="yes"/>
      <point x="1105" y="739"/>
      <point x="873" y="526"/>
      <point x="663" y="526" type="qcurve" smooth="yes"/>
    </contour>
    <contour>
      <point x="339" y="664" type="line"/>
      <point x="663" y="664" type="line" smooth="yes"/>
      <point x="797" y="664"/>
      <point x="928" y="807"/>
      <point x="928" y="916" type="qcurve" smooth="yes"/>
      <point x="928" y="1025"/>
      <point x="796" y="1171"/>
      <point x="663" y="1171" type="qcurve" smooth="yes"/>
      <point x="339" y="1171" type="line"/>
    </contour>
  </outline>
</glyph>
<glyph name="Q" format="1">
  <advance width="1256"/>
  <unicode hex="0051"/>
  <outline>
    <contour>
      <point x="1154" y="515" type="line" smooth="yes"/>
      <point x="1154" y="387"/>
      <point x="1064" y="169"/>
      <point x="983" y="94" type="qcurve"/>
      <point x="1205" y="-116" type="line"/>
      <point x="1084" y="-232" type="line"/>
      <point x="835" y="-1" type="line"/>
      <point x="785" y="-21"/>
      <point x="676" y="-42"/>
      <point x="618" y="-42" type="qcurve" smooth="yes"/>
      <point x="389" y="-42"/>
      <point x="102" y="275"/>
      <point x="102" y="515" type="qcurve" smooth="yes"/>
      <point x="102" y="748" type="line" smooth="yes"/>
      <point x="102" y="988"/>
      <point x="389" y="1306"/>
      <point x="618" y="1306" type="qcurve" smooth="yes"/>
      <point x="856" y="1306"/>
      <point x="1154" y="988"/>
      <point x="1154" y="748" type="qcurve" smooth="yes"/>
    </contour>
    <contour>
      <point x="977" y="750" type="line" smooth="yes"/>
      <point x="977" y="930"/>
      <point x="782" y="1160"/>
      <point x="618" y="1160" type="qcurve" smooth="yes"/>
      <point x="464" y="1160"/>
      <point x="279" y="930"/>
      <point x="279" y="750" type="qcurve" smooth="yes"/>
      <point x="279" y="515" type="line" smooth="yes"/>
      <point x="279" y="333"/>
      <point x="464" y="103"/>
      <point x="618" y="103" type="qcurve" smooth="yes"/>
      <point x="783" y="103"/>
      <point x="977" y="332"/>
      <point x="977" y="515" type="qcurve" smooth="yes"/>
    </contour>
  </outline>
</glyph>
<glyph name="R" format="1">
  <advance width="1221"/>
  <unicode hex="0052"/>
  <outline>
    <contour>
      <point x="339" y="568" type="line"/>
      <point x="339" y="0" type="line"/>
      <point x="162" y="0" type="line"/>
      <point x="162" y="1310" type="line"/>
      <point x="636" y="1310" type="line" smooth="yes"/>
      <point x="851" y="1310"/>
      <point x="1078" y="1119"/>
      <point x="1078" y="937" type="qcurve" smooth="yes"/>
      <point x="1078" y="836"/>
      <point x="973" y="687"/>
      <point x="872" y="643" type="qcurve"/>
      <point x="980" y="608"/>
      <point x="1075" y="450"/>
      <point x="1075" y="334" type="qcurve" smooth="yes"/>
      <point x="1075" y="211" type="line" smooth="yes"/>
      <point x="1075" y="149"/>
      <point x="1102" y="52"/>
      <point x="1135" y="22" type="qcurve"/>
      <point x="1135" y="0" type="line"/>
      <point x="952" y="0" type="line"/>
      <point x="917" y="31"/>
      <point x="897" y="149"/>
      <point x="897" y="212" type="qcurve" smooth="yes"/>
      <point x="897" y="332" type="line" smooth="yes"/>
      <point x="897" y="438"/>
      <point x="773" y="568"/>
      <point x="669" y="568" type="qcurve" smooth="yes"/>
    </contour>
    <contour>
      <point x="339" y="707" type="line"/>
      <point x="618" y="707" type="line" smooth="yes"/>
      <point x="769" y="707"/>
      <point x="901" y="822"/>
      <point x="901" y="939" type="qcurve" smooth="yes"/>
      <point x="901" y="1049"/>
      <point x="772" y="1171"/>
      <point x="636" y="1171" type="qcurve" smooth="yes"/>
      <point x="339" y="1171" type="line"/>
    </contour>
  </outline>
</glyph>
<glyph name="S" format="1">
  <advance width="1149"/>
  <unicode hex="0053"/>
  <outline>
    <contour>
      <point x="876" y="328" type="qcurve" smooth="yes"/>
      <point x="876" y="418"/>
      <point x="741" y="540"/>
      <point x="569" y="581" type="qcurve" smooth="yes"/>
      <point x="361" y="631"/>
      <point x="128" y="823"/>
      <point x="128" y="969" type="qcurve" smooth="yes"/>
      <point x="128" y="1122"/>
      <point x="379" y="1327"/>
      <point x="579" y="1327" type="qcurve" smooth="yes"/>
      <point x="794" y="1327"/>
      <point x="1049" y="1091"/>
      <point x="1044" y="936" type="qcurve"/>
      <point x="1042" y="930" type="line"/>
      <point x="873" y="930" type="line"/>
      <point x="873" y="1046"/>
      <point x="721" y="1188"/>
      <point x="579" y="1188" type="qcurve" smooth="yes"/>
      <point x="446" y="1188"/>
      <point x="305" y="1068"/>
      <point x="305" y="972" type="qcurve" smooth="yes"/>
      <point x="305" y="886"/>
      <point x="458" y="772"/>
      <point x="630" y="729" type="qcurve" smooth="yes"/>
      <point x="837" y="677"/>
      <point x="1053" y="478"/>
      <point x="1053" y="330" type="qcurve" smooth="yes"/>
      <point x="1053" y="172"/>
      <point x="794" y="-21"/>
      <point x="585" y="-21" type="qcurve" smooth="yes"/>
      <point x="389" y="-21"/>
      <point x="87" y="191"/>
      <point x="92" y="370" type="qcurve"/>
      <point x="94" y="375" type="line"/>
      <point x="263" y="375" type="line"/>
      <point x="263" y="249"/>
      <point x="448" y="118"/>
      <point x="585" y="118" type="qcurve" smooth="yes"/>
      <point x="719" y="118"/>
      <point x="876" y="231"/>
    </contour>
  </outline>
</glyph>
<glyph name="T" format="1">
  <advance width="1080"/>
  <unicode hex="0054"/>
  <outline>
    <contour>
      <point x="1049" y="1171" type="line"/>
      <point x="628" y="1171" type="line"/>
      <point x="628" y="0" type="line"/>
      <point x="451" y="0" type="line"/>
      <point x="451" y="1171" type="line"/>
      <point x="31" y="1171" type="line"/>
      <point x="31" y="1310" type="line"/>
      <point x="1049" y="1310" type="line"/>
    </contour>
  </outline>
</glyph>
<glyph name="U" format="1">
  <advance width="1247"/>
  <unicode hex="0055"/>
  <outline>
    <contour>
      <point x="1120" y="1308" type="line"/>
      <point x="1120" y="420" type="line" smooth="yes"/>
      <point x="1120" y="206"/>
      <point x="842" y="-21"/>
      <point x="617" y="-21" type="qcurve" smooth="yes"/>
      <point x="401" y="-21"/>
      <point x="132" y="207"/>
      <point x="132" y="420" type="qcurve" smooth="yes"/>
      <point x="132" y="1308" type="line"/>
      <point x="310" y="1308" type="line"/>
      <point x="310" y="420" type="line" smooth="yes"/>
      <point x="310" y="272"/>
      <point x="479" y="118"/>
      <point x="617" y="118" type="qcurve" smooth="yes"/>
      <point x="763" y="118"/>
      <point x="942" y="272"/>
      <point x="942" y="420" type="qcurve" smooth="yes"/>
      <point x="942" y="1308" type="line"/>
    </contour>
  </outline>
</glyph>
<glyph name="V" format="1">
  <advance width="1166"/>
  <unicode hex="0056"/>
  <outline>
    <contour>
      <point x="551" y="326" type="line"/>
      <point x="581" y="222" type="line"/>
      <point x="586" y="222" type="line"/>
      <point x="616" y="326" type="line"/>
      <point x="954" y="1310" type="line"/>
      <point x="1146" y="1310" type="line"/>
      <point x="659" y="0" type="line"/>
      <point x="507" y="0" type="line"/>
      <point x="20" y="1310" type="line"/>
      <point x="212" y="1310" type="line"/>
    </contour>
  </outline>
</glyph>
<glyph name="W" format="1">
  <advance width="1628"/>
  <unicode hex="0057"/>
  <outline>
    <contour>
      <point x="425" y="454" type="line"/>
      <point x="449" y="290" type="line"/>
      <point x="455" y="289" type="line"/>
      <point x="490" y="454" type="line"/>
      <point x="730" y="1310" type="line"/>
      <point x="887" y="1310" type="line"/>
      <point x="1129" y="454" type="line"/>
      <point x="1165" y="285" type="line"/>
      <point x="1170" y="285" type="line"/>
      <point x="1196" y="454" type="line"/>
      <point x="1391" y="1310" type="line"/>
      <point x="1569" y="1310" type="line"/>
      <point x="1253" y="0" type="line"/>
      <point x="1094" y="0" type="line"/>
      <point x="836" y="909" type="line"/>
      <point x="813" y="1027" type="line"/>
      <point x="807" y="1027" type="line"/>
      <point x="785" y="909" type="line"/>
      <point x="522" y="0" type="line"/>
      <point x="364" y="0" type="line"/>
      <point x="49" y="1310" type="line"/>
      <point x="225" y="1310" type="line"/>
    </contour>
  </outline>
</glyph>
<glyph name="X" format="1">
  <advance width="1166"/>
  <unicode hex="0058"/>
  <outline>
    <contour>
      <point x="585" y="799" type="line"/>
      <point x="891" y="1310" type="line"/>
      <point x="1105" y="1310" type="line"/>
      <point x="689" y="661" type="line"/>
      <point x="1114" y="0" type="line"/>
      <point x="903" y="0" type="line"/>
      <point x="589" y="520" type="line"/>
      <point x="274" y="0" type="line"/>
      <point x="59" y="0" type="line"/>
      <point x="484" y="661" type="line"/>
      <point x="68" y="1310" type="line"/>
      <point x="281" y="1310" type="line"/>
    </contour>
  </outline>
</glyph>
<glyph name="Y" format="1">
  <advance width="1125"/>
  <unicode hex="0059"/>
  <outline>
    <contour>
      <point x="563" y="644" type="line"/>
      <point x="905" y="1310" type="line"/>
      <point x="1107" y="1310" type="line"/>
      <point x="647" y="461" type="line"/>
      <point x="647" y="0" type="line"/>
      <point x="471" y="0" type="line"/>
      <point x="471" y="473" type="line"/>
      <point x="18" y="1310" type="line"/>
      <point x="221" y="1310" type="line"/>
    </contour>
  </outline>
</glyph>
<glyph name="Z" format="1">
  <advance width="1103"/>
  <unicode hex="005A"/>
  <outline>
    <contour>
      <point x="287" y="139" type="line"/>
      <point x="1020" y="139" type="line"/>
      <point x="1020" y="0" type="line"/>
      <point x="87" y="0" type="line"/>
      <point x="87" y="131" type="line"/>
      <point x="788" y="1171" type="line"/>
      <point x="97" y="1171" type="line"/>
      <point x="97" y="1310" type="line"/>
      <point x="990" y="1310" type="line"/>
      <point x="990" y="1184" type="line"/>
    </contour>
  </outline>
</glyph>
<glyph name="bracketleft" format="1">
  <advance width="698"/>
  <unicode hex="005B"/>
  <outline>
    <contour>
      <point x="536" y="1358" type="line"/>
      <point x="367" y="1358" type="line"/>
      <point x="367" y="-141" type="line"/>
      <point x="536" y="-141" type="line"/>
      <point x="536" y="-281" type="line"/>
      <point x="190" y="-281" type="line"/>
      <point x="190" y="1498" type="line"/>
      <point x="536" y="1498" type="line"/>
    </contour>
  </outline>
</glyph>
<glyph name="backslash" format="1">
  <advance width="761"/>
  <unicode hex="005C"/>
  <outline>
    <contour>
      <point x="35" y="1298" type="line"/>
      <point x="203" y="1298" type="line"/>
      <point x="750" y="-125" type="line"/>
      <point x="582" y="-125" type="line"/>
    </contour>
  </outline>
</glyph>
<glyph name="asciicircum" format="1">
  <advance width="770"/>
  <unicode hex="005E"/>
  <outline>
    <contour>
      <point x="220" y="729" type="line"/>
      <point x="55" y="729" type="line"/>
      <point x="324" y="1383" type="line"/>
      <point x="445" y="1383" type="line"/>
      <point x="713" y="729" type="line"/>
      <point x="550" y="729" type="line"/>
      <point x="401" y="1106" type="line"/>
      <point x="386" y="1169" type="line"/>
      <point x="381" y="1169" type="line"/>
      <point x="366" y="1106" type="line"/>
    </contour>
  </outline>
</glyph>
<glyph name="underscore" format="1">
  <advance width="838"/>
  <unicode hex="005F"/>
  <outline>
    <contour>
      <point x="834" y="-154" type="line"/>
      <point x="4" y="-154" type="line"/>
      <point x="4" y="-15" type="line"/>
      <point x="834" y="-15" type="line"/>
    </contour>
  </outline>
</glyph>
<glyph name="grave" format="1">
  <advance width="577"/>
  <unicode hex="0060"/>
  <outline>
    <contour>
      <point x="441" y="1211" type="line"/>
      <point x="299" y="1211" type="line"/>
      <point x="74" y="1445" type="line"/>
      <point x="77" y="1450" type="line"/>
      <point x="284" y="1450" type="line"/>
    </contour>
  </outline>
</glyph>
<glyph name="a" format="1">
  <advance width="1013"/>
  <unicode hex="0061"/>
  <outline>
    <contour>
      <point x="727" y="-2" type="line"/>
      <point x="718" y="42"/>
      <point x="708" y="110"/>
      <point x="707" y="144" type="qcurve"/>
      <point x="658" y="74"/>
      <point x="499" y="-21"/>
      <point x="407" y="-21" type="qcurve" smooth="yes"/>
      <point x="255" y="-21"/>
      <point x="95" y="135"/>
      <point x="95" y="272" type="qcurve" smooth="yes"/>
      <point x="95" y="411"/>
      <point x="321" y="569"/>
      <point x="515" y="569" type="qcurve" smooth="yes"/>
      <point x="707" y="569" type="line"/>
      <point x="707" y="665" type="line" smooth="yes"/>
      <point x="707" y="750"/>
      <point x="603" y="850"/>
      <point x="508" y="850" type="qcurve" smooth="yes"/>
      <point x="422" y="850"/>
      <point x="315" y="763"/>
      <point x="315" y="702" type="qcurve"/>
      <point x="146" y="702" type="line"/>
      <point x="144" y="707" type="line"/>
      <point x="139" y="813"/>
      <point x="350" y="990"/>
      <point x="518" y="990" type="qcurve" smooth="yes"/>
      <point x="683" y="990"/>
      <point x="885" y="821"/>
      <point x="885" y="663" type="qcurve" smooth="yes"/>
      <point x="885" y="194" type="line" smooth="yes"/>
      <point x="885" y="142"/>
      <point x="896" y="45"/>
      <point x="910" y="-2" type="qcurve"/>
    </contour>
    <contour>
      <point x="433" y="128" type="qcurve" smooth="yes"/>
      <point x="529" y="128"/>
      <point x="684" y="227"/>
      <point x="707" y="290" type="qcurve"/>
      <point x="707" y="449" type="line"/>
      <point x="509" y="449" type="line" smooth="yes"/>
      <point x="401" y="449"/>
      <point x="273" y="341"/>
      <point x="273" y="268" type="qcurve" smooth="yes"/>
      <point x="273" y="203"/>
      <point x="354" y="128"/>
    </contour>
  </outline>
</glyph>
<glyph name="b" format="1">
  <advance width="1048"/>
  <unicode hex="0062"/>
  <outline>
    <contour>
      <point x="960" y="448" type="line" smooth="yes"/>
      <point x="960" y="237"/>
      <point x="758" y="-21"/>
      <point x="581" y="-21" type="qcurve" smooth="yes"/>
      <point x="484" y="-21"/>
      <point x="342" y="54"/>
      <point x="295" y="127" type="qcurve"/>
      <point x="274" y="-2" type="line"/>
      <point x="129" y="-2" type="line"/>
      <point x="129" y="1402" type="line"/>
      <point x="306" y="1402" type="line"/>
      <point x="306" y="857" type="line"/>
      <point x="352" y="921"/>
      <point x="488" y="990"/>
      <point x="579" y="990" type="qcurve" smooth="yes"/>
      <point x="759" y="990"/>
      <point x="960" y="702"/>
      <point x="960" y="467" type="qcurve" smooth="yes"/>
    </contour>
    <contour>
      <point x="783" y="467" type="line" smooth="yes"/>
      <point x="783" y="634"/>
      <point x="660" y="846"/>
      <point x="534" y="846" type="qcurve" smooth="yes"/>
      <point x="452" y="846"/>
      <point x="339" y="766"/>
      <point x="306" y="698" type="qcurve"/>
      <point x="306" y="276" type="line"/>
      <point x="340" y="204"/>
      <point x="451" y="123"/>
      <point x="536" y="123" type="qcurve" smooth="yes"/>
      <point x="661" y="123"/>
      <point x="783" y="301"/>
      <point x="783" y="448" type="qcurve" smooth="yes"/>
    </contour>
  </outline>
</glyph>
<glyph name="c" format="1">
  <advance width="978"/>
  <unicode hex="0063"/>
  <outline>
    <contour>
      <point x="525" y="118" type="qcurve" smooth="yes"/>
      <point x="613" y="118"/>
      <point x="747" y="227"/>
      <point x="747" y="306" type="qcurve"/>
      <point x="906" y="306" type="line"/>
      <point x="908" y="300" type="line"/>
      <point x="913" y="174"/>
      <point x="680" y="-21"/>
      <point x="525" y="-21" type="qcurve" smooth="yes"/>
      <point x="312" y="-21"/>
      <point x="87" y="256"/>
      <point x="87" y="466" type="qcurve" smooth="yes"/>
      <point x="87" y="504" type="line" smooth="yes"/>
      <point x="87" y="712"/>
      <point x="313" y="990"/>
      <point x="525" y="990" type="qcurve" smooth="yes"/>
      <point x="696" y="990"/>
      <point x="913" y="788"/>
      <point x="909" y="641" type="qcurve"/>
      <point x="907" y="636" type="line"/>
      <point x="747" y="636" type="line"/>
      <point x="747" y="725"/>
      <point x="621" y="850"/>
      <point x="525" y="850" type="qcurve" smooth="yes"/>
      <point x="385" y="850"/>
      <point x="266" y="650"/>
      <point x="266" y="504" type="qcurve" smooth="yes"/>
      <point x="266" y="466" type="line" smooth="yes"/>
      <point x="266" y="317"/>
      <point x="384" y="118"/>
    </contour>
  </outline>
</glyph>
<glyph name="d" format="1">
  <advance width="1048"/>
  <unicode hex="0064"/>
  <outline>
    <contour>
      <point x="88" y="467" type="line" smooth="yes"/>
      <point x="88" y="702"/>
      <point x="289" y="990"/>
      <point x="470" y="990" type="qcurve" smooth="yes"/>
      <point x="555" y="990"/>
      <point x="688" y="927"/>
      <point x="734" y="866" type="qcurve"/>
      <point x="734" y="1402" type="line"/>
      <point x="912" y="1402" type="line"/>
      <point x="912" y="-2" type="line"/>
      <point x="767" y="-2" type="line"/>
      <point x="746" y="118" type="line"/>
      <point x="698" y="49"/>
      <point x="560" y="-21"/>
      <point x="468" y="-21" type="qcurve" smooth="yes"/>
      <point x="290" y="-21"/>
      <point x="88" y="237"/>
      <point x="88" y="448" type="qcurve" smooth="yes"/>
    </contour>
    <contour>
      <point x="266" y="448" type="line" smooth="yes"/>
      <point x="266" y="300"/>
      <point x="386" y="123"/>
      <point x="513" y="123" type="qcurve" smooth="yes"/>
      <point x="592" y="123"/>
      <point x="700" y="195"/>
      <point x="734" y="260" type="qcurve"/>
      <point x="734" y="714" type="line"/>
      <point x="700" y="775"/>
      <point x="591" y="846"/>
      <point x="515" y="846" type="qcurve" smooth="yes"/>
      <point x="387" y="846"/>
      <point x="266" y="635"/>
      <point x="266" y="467" type="qcurve" smooth="yes"/>
    </contour>
  </outline>
</glyph>
<glyph name="e" format="1">
  <advance width="975"/>
  <unicode hex="0065"/>
  <outline>
    <contour>
      <point x="533" y="-21" type="qcurve" smooth="yes"/>
      <point x="329" y="-21"/>
      <point x="89" y="250"/>
      <point x="89" y="466" type="qcurve" smooth="yes"/>
      <point x="89" y="506" type="line" smooth="yes"/>
      <point x="89" y="713"/>
      <point x="337" y="990"/>
      <point x="506" y="990" type="qcurve" smooth="yes"/>
      <point x="703" y="990"/>
      <point x="905" y="752"/>
      <point x="905" y="554" type="qcurve" smooth="yes"/>
      <point x="905" y="443" type="line"/>
      <point x="273" y="443" type="line"/>
      <point x="270" y="439" type="line"/>
      <point x="273" y="299"/>
      <point x="410" y="118"/>
      <point x="533" y="118" type="qcurve" smooth="yes"/>
      <point x="623" y="118"/>
      <point x="759" y="169"/>
      <point x="808" y="214" type="qcurve"/>
      <point x="878" y="99" type="line"/>
      <point x="825" y="47"/>
      <point x="654" y="-21"/>
    </contour>
    <contour>
      <point x="506" y="850" type="qcurve" smooth="yes"/>
      <point x="417" y="850"/>
      <point x="291" y="700"/>
      <point x="276" y="587" type="qcurve"/>
      <point x="278" y="582" type="line"/>
      <point x="727" y="582" type="line"/>
      <point x="727" y="605" type="line" smooth="yes"/>
      <point x="727" y="710"/>
      <point x="616" y="850"/>
    </contour>
  </outline>
</glyph>
<glyph name="f" format="1">
  <advance width="636"/>
  <unicode hex="0066"/>
  <outline>
    <contour>
      <point x="203" y="0" type="line"/>
      <point x="203" y="842" type="line"/>
      <point x="50" y="842" type="line"/>
      <point x="50" y="974" type="line"/>
      <point x="203" y="974" type="line"/>
      <point x="203" y="1097" type="line" smooth="yes"/>
      <point x="203" y="1253"/>
      <point x="365" y="1423"/>
      <point x="511" y="1423" type="qcurve" smooth="yes"/>
      <point x="542" y="1423"/>
      <point x="604" y="1413"/>
      <point x="642" y="1404" type="qcurve"/>
      <point x="620" y="1269" type="line"/>
      <point x="604" y="1273"/>
      <point x="558" y="1278"/>
      <point x="533" y="1278" type="qcurve" smooth="yes"/>
      <point x="455" y="1278"/>
      <point x="380" y="1185"/>
      <point x="380" y="1097" type="qcurve" smooth="yes"/>
      <point x="380" y="974" type="line"/>
      <point x="582" y="974" type="line"/>
      <point x="582" y="842" type="line"/>
      <point x="380" y="842" type="line"/>
      <point x="380" y="0" type="line"/>
    </contour>
  </outline>
</glyph>
<glyph name="g" format="1">
  <advance width="1048"/>
  <unicode hex="0067"/>
  <outline>
    <contour>
      <point x="90" y="425" type="line" smooth="yes"/>
      <point x="90" y="660"/>
      <point x="295" y="948"/>
      <point x="476" y="948" type="qcurve" smooth="yes"/>
      <point x="569" y="948"/>
      <point x="709" y="873"/>
      <point x="756" y="803" type="qcurve"/>
      <point x="778" y="930" type="line"/>
      <point x="919" y="930" type="line"/>
      <point x="919" y="-49" type="line" smooth="yes"/>
      <point x="919" y="-236"/>
      <point x="701" y="-437"/>
      <point x="496" y="-437" type="qcurve" smooth="yes"/>
      <point x="426" y="-437"/>
      <point x="263" y="-398"/>
      <point x="201" y="-365" type="qcurve"/>
      <point x="246" y="-227" type="line"/>
      <point x="293" y="-254"/>
      <point x="428" y="-288"/>
      <point x="494" y="-288" type="qcurve" smooth="yes"/>
      <point x="624" y="-288"/>
      <point x="742" y="-170"/>
      <point x="742" y="-49" type="qcurve" smooth="yes"/>
      <point x="742" y="61" type="line"/>
      <point x="694" y="0"/>
      <point x="561" y="-63"/>
      <point x="474" y="-63" type="qcurve" smooth="yes"/>
      <point x="295" y="-63"/>
      <point x="90" y="197"/>
      <point x="90" y="406" type="qcurve" smooth="yes"/>
    </contour>
    <contour>
      <point x="267" y="406" type="line" smooth="yes"/>
      <point x="267" y="260"/>
      <point x="392" y="81"/>
      <point x="518" y="81" type="qcurve" smooth="yes"/>
      <point x="599" y="81"/>
      <point x="707" y="154"/>
      <point x="742" y="221" type="qcurve"/>
      <point x="742" y="669" type="line"/>
      <point x="707" y="731"/>
      <point x="598" y="804"/>
      <point x="520" y="804" type="qcurve" smooth="yes"/>
      <point x="393" y="804"/>
      <point x="267" y="592"/>
      <point x="267" y="425" type="qcurve" smooth="yes"/>
    </contour>
  </outline>
</glyph>
<glyph name="h" format="1">
  <advance width="1048"/>
  <unicode hex="0068"/>
  <outline>
    <contour>
      <point x="306" y="843" type="line"/>
      <point x="356" y="914"/>
      <point x="503" y="992"/>
      <point x="592" y="992" type="qcurve" smooth="yes"/>
      <point x="748" y="992"/>
      <point x="922" y="805"/>
      <point x="922" y="610" type="qcurve" smooth="yes"/>
      <point x="922" y="0" type="line"/>
      <point x="744" y="0" type="line"/>
      <point x="744" y="612" type="line" smooth="yes"/>
      <point x="744" y="733"/>
      <point x="641" y="848"/>
      <point x="538" y="848" type="qcurve" smooth="yes"/>
      <point x="464" y="848"/>
      <point x="345" y="779"/>
      <point x="306" y="719" type="qcurve"/>
      <point x="306" y="0" type="line"/>
      <point x="129" y="0" type="line"/>
      <point x="129" y="1404" type="line"/>
      <point x="306" y="1404" type="line"/>
    </contour>
  </outline>
</glyph>
<glyph name="i" format="1">
  <advance width="464"/>
  <unicode hex="0069"/>
  <outline>
    <contour>
      <point x="320" y="0" type="line"/>
      <point x="143" y="0" type="line"/>
      <point x="143" y="974" type="line"/>
      <point x="320" y="974" type="line"/>
    </contour>
    <contour>
      <point x="320" y="1223" type="line"/>
      <point x="143" y="1223" type="line"/>
      <point x="143" y="1404" type="line"/>
      <point x="320" y="1404" type="line"/>
    </contour>
  </outline>
</glyph>
<glyph name="j" format="1">
  <advance width="477"/>
  <unicode hex="006A"/>
  <outline>
    <contour>
      <point x="333" y="930" type="line"/>
      <point x="333" y="-124" type="line" smooth="yes"/>
      <point x="333" y="-274"/>
      <point x="178" y="-437"/>
      <point x="41" y="-437" type="qcurve" smooth="yes"/>
      <point x="13" y="-437"/>
      <point x="-33" y="-429"/>
      <point x="-59" y="-421" type="qcurve"/>
      <point x="-47" y="-281" type="line"/>
      <point x="-34" y="-286"/>
      <point x="13" y="-292"/>
      <point x="28" y="-292" type="qcurve" smooth="yes"/>
      <point x="86" y="-292"/>
      <point x="156" y="-213"/>
      <point x="156" y="-124" type="qcurve" smooth="yes"/>
      <point x="156" y="930" type="line"/>
    </contour>
    <contour>
      <point x="328" y="1183" type="line"/>
      <point x="150" y="1183" type="line"/>
      <point x="150" y="1360" type="line"/>
      <point x="328" y="1360" type="line"/>
    </contour>
  </outline>
</glyph>
<glyph name="k" format="1">
  <advance width="945"/>
  <unicode hex="006B"/>
  <outline>
    <contour>
      <point x="422" y="449" type="line"/>
      <point x="307" y="449" type="line"/>
      <point x="307" y="0" type="line"/>
      <point x="130" y="0" type="line"/>
      <point x="130" y="1404" type="line"/>
      <point x="307" y="1404" type="line"/>
      <point x="307" y="590" type="line"/>
      <point x="420" y="590" type="line"/>
      <point x="687" y="974" type="line"/>
      <point x="899" y="974" type="line"/>
      <point x="566" y="531" type="line"/>
      <point x="947" y="0" type="line"/>
      <point x="738" y="0" type="line"/>
    </contour>
  </outline>
</glyph>
<glyph name="l" format="1">
  <advance width="464"/>
  <unicode hex="006C"/>
  <outline>
    <contour>
      <point x="320" y="0" type="line"/>
      <point x="143" y="0" type="line"/>
      <point x="143" y="1404" type="line"/>
      <point x="320" y="1404" type="line"/>
    </contour>
  </outline>
</glyph>
<glyph name="m" format="1">
  <advance width="1611"/>
  <unicode hex="006D"/>
  <outline>
    <contour>
      <point x="287" y="974" type="line"/>
      <point x="300" y="846" type="line"/>
      <point x="347" y="915"/>
      <point x="494" y="992"/>
      <point x="591" y="992" type="qcurve" smooth="yes"/>
      <point x="689" y="992"/>
      <point x="828" y="902"/>
      <point x="863" y="812" type="qcurve"/>
      <point x="909" y="895"/>
      <point x="1060" y="992"/>
      <point x="1161" y="992" type="qcurve" smooth="yes"/>
      <point x="1310" y="992"/>
      <point x="1482" y="788"/>
      <point x="1482" y="582" type="qcurve" smooth="yes"/>
      <point x="1482" y="0" type="line"/>
      <point x="1305" y="0" type="line"/>
      <point x="1305" y="584" type="line" smooth="yes"/>
      <point x="1305" y="728"/>
      <point x="1206" y="848"/>
      <point x="1108" y="848" type="qcurve" smooth="yes"/>
      <point x="1017" y="848"/>
      <point x="905" y="722"/>
      <point x="895" y="626" type="qcurve"/>
      <point x="895" y="618" type="line"/>
      <point x="895" y="0" type="line"/>
      <point x="716" y="0" type="line"/>
      <point x="716" y="584" type="line" smooth="yes"/>
      <point x="716" y="721"/>
      <point x="615" y="848"/>
      <point x="519" y="848" type="qcurve" smooth="yes"/>
      <point x="438" y="848"/>
      <point x="334" y="781"/>
      <point x="306" y="721" type="qcurve"/>
      <point x="306" y="0" type="line"/>
      <point x="129" y="0" type="line"/>
      <point x="129" y="974" type="line"/>
    </contour>
  </outline>
</glyph>
<glyph name="n" format="1">
  <advance width="1048"/>
  <unicode hex="006E"/>
  <outline>
    <contour>
      <point x="287" y="974" type="line"/>
      <point x="300" y="829" type="line"/>
      <point x="348" y="906"/>
      <point x="495" y="992"/>
      <point x="589" y="992" type="qcurve" smooth="yes"/>
      <point x="746" y="992"/>
      <point x="919" y="807"/>
      <point x="919" y="615" type="qcurve" smooth="yes"/>
      <point x="919" y="0" type="line"/>
      <point x="742" y="0" type="line"/>
      <point x="742" y="611" type="line" smooth="yes"/>
      <point x="742" y="740"/>
      <point x="640" y="848"/>
      <point x="536" y="848" type="qcurve" smooth="yes"/>
      <point x="459" y="848"/>
      <point x="341" y="774"/>
      <point x="306" y="710" type="qcurve"/>
      <point x="306" y="0" type="line"/>
      <point x="129" y="0" type="line"/>
      <point x="129" y="974" type="line"/>
    </contour>
  </outline>
</glyph>
<glyph name="o" format="1">
  <advance width="1048"/>
  <unicode hex="006F"/>
  <outline>
    <contour>
      <point x="87" y="494" type="line" smooth="yes"/>
      <point x="87" y="710"/>
      <point x="321" y="990"/>
      <point x="522" y="990" type="qcurve" smooth="yes"/>
      <point x="725" y="990"/>
      <point x="959" y="711"/>
      <point x="959" y="494" type="qcurve" smooth="yes"/>
      <point x="959" y="474" type="line" smooth="yes"/>
      <point x="959" y="256"/>
      <point x="725" y="-21"/>
      <point x="524" y="-21" type="qcurve" smooth="yes"/>
      <point x="322" y="-21"/>
      <point x="87" y="257"/>
      <point x="87" y="474" type="qcurve" smooth="yes"/>
    </contour>
    <contour>
      <point x="265" y="474" type="line" smooth="yes"/>
      <point x="265" y="319"/>
      <point x="395" y="118"/>
      <point x="524" y="118" type="qcurve" smooth="yes"/>
      <point x="651" y="118"/>
      <point x="782" y="319"/>
      <point x="782" y="474" type="qcurve" smooth="yes"/>
      <point x="782" y="494" type="line" smooth="yes"/>
      <point x="782" y="647"/>
      <point x="650" y="850"/>
      <point x="522" y="850" type="qcurve" smooth="yes"/>
      <point x="395" y="850"/>
      <point x="265" y="647"/>
      <point x="265" y="494" type="qcurve" smooth="yes"/>
    </contour>
  </outline>
</glyph>
<glyph name="p" format="1">
  <advance width="1048"/>
  <unicode hex="0070"/>
  <outline>
    <contour>
      <point x="959" y="408" type="line" smooth="yes"/>
      <point x="959" y="198"/>
      <point x="757" y="-60"/>
      <point x="580" y="-60" type="qcurve" smooth="yes"/>
      <point x="490" y="-60"/>
      <point x="354" y="0"/>
      <point x="306" y="60" type="qcurve"/>
      <point x="306" y="-416" type="line"/>
      <point x="129" y="-416" type="line"/>
      <point x="129" y="932" type="line"/>
      <point x="265" y="932" type="line"/>
      <point x="293" y="806" type="line"/>
      <point x="340" y="876"/>
      <point x="482" y="950"/>
      <point x="577" y="950" type="qcurve" smooth="yes"/>
      <point x="758" y="950"/>
      <point x="959" y="663"/>
      <point x="959" y="427" type="qcurve" smooth="yes"/>
    </contour>
    <contour>
      <point x="781" y="427" type="line" smooth="yes"/>
      <point x="781" y="593"/>
      <point x="651" y="806"/>
      <point x="524" y="806" type="qcurve" smooth="yes"/>
      <point x="447" y="806"/>
      <point x="339" y="737"/>
      <point x="306" y="677" type="qcurve"/>
      <point x="306" y="206" type="line"/>
      <point x="339" y="146"/>
      <point x="447" y="78"/>
      <point x="526" y="78" type="qcurve" smooth="yes"/>
      <point x="652" y="78"/>
      <point x="781" y="263"/>
      <point x="781" y="408" type="qcurve" smooth="yes"/>
    </contour>
  </outline>
</glyph>
<glyph name="q" format="1">
  <advance width="1048"/>
  <unicode hex="0071"/>
  <outline>
    <contour>
      <point x="88" y="427" type="line" smooth="yes"/>
      <point x="88" y="662"/>
      <point x="289" y="950"/>
      <point x="470" y="950" type="qcurve" smooth="yes"/>
      <point x="559" y="950"/>
      <point x="694" y="883"/>
      <point x="741" y="818" type="qcurve"/>
      <point x="767" y="932" type="line"/>
      <point x="902" y="932" type="line"/>
      <point x="902" y="-416" type="line"/>
      <point x="725" y="-416" type="line"/>
      <point x="725" y="50" type="line"/>
      <point x="678" y="-5"/>
      <point x="550" y="-60"/>
      <point x="468" y="-60" type="qcurve" smooth="yes"/>
      <point x="290" y="-60"/>
      <point x="88" y="198"/>
      <point x="88" y="408" type="qcurve" smooth="yes"/>
    </contour>
    <contour>
      <point x="266" y="408" type="line" smooth="yes"/>
      <point x="266" y="261"/>
      <point x="387" y="78"/>
      <point x="513" y="78" type="qcurve" smooth="yes"/>
      <point x="586" y="78"/>
      <point x="689" y="143"/>
      <point x="725" y="201" type="qcurve"/>
      <point x="725" y="693" type="line"/>
      <point x="689" y="748"/>
      <point x="586" y="811"/>
      <point x="515" y="811" type="qcurve" smooth="yes"/>
      <point x="388" y="811"/>
      <point x="266" y="596"/>
      <point x="266" y="427" type="qcurve" smooth="yes"/>
    </contour>
  </outline>
</glyph>
<glyph name="r" format="1">
  <advance width="632"/>
  <unicode hex="0072"/>
  <outline>
    <contour>
      <point x="590" y="817" type="line"/>
      <point x="499" y="823" type="line"/>
      <point x="428" y="823"/>
      <point x="332" y="756"/>
      <point x="306" y="696" type="qcurve"/>
      <point x="306" y="0" type="line"/>
      <point x="129" y="0" type="line"/>
      <point x="129" y="974" type="line"/>
      <point x="287" y="974" type="line"/>
      <point x="304" y="832" type="line"/>
      <point x="346" y="907"/>
      <point x="467" y="992"/>
      <point x="546" y="992" type="qcurve" smooth="yes"/>
      <point x="566" y="992"/>
      <point x="602" y="986"/>
      <point x="614" y="982" type="qcurve"/>
    </contour>
  </outline>
</glyph>
<glyph name="s" format="1">
  <advance width="964"/>
  <unicode hex="0073"/>
  <outline>
    <contour>
      <point x="695" y="256" type="qcurve" smooth="yes"/>
      <point x="695" y="315"/>
      <point x="606" y="390"/>
      <point x="482" y="418" type="qcurve" smooth="yes"/>
      <point x="304" y="457"/>
      <point x="125" y="589"/>
      <point x="125" y="704" type="qcurve" smooth="yes"/>
      <point x="125" y="822"/>
      <point x="327" y="990"/>
      <point x="489" y="990" type="qcurve" smooth="yes"/>
      <point x="659" y="990"/>
      <point x="860" y="815"/>
      <point x="855" y="690" type="qcurve"/>
      <point x="853" y="685" type="line"/>
      <point x="684" y="685" type="line"/>
      <point x="684" y="749"/>
      <point x="577" y="850"/>
      <point x="489" y="850" type="qcurve" smooth="yes"/>
      <point x="394" y="850"/>
      <point x="302" y="767"/>
      <point x="302" y="709" type="qcurve" smooth="yes"/>
      <point x="302" y="651"/>
      <point x="383" y="585"/>
      <point x="508" y="559" type="qcurve" smooth="yes"/>
      <point x="692" y="519"/>
      <point x="872" y="383"/>
      <point x="872" y="269" type="qcurve" smooth="yes"/>
      <point x="872" y="139"/>
      <point x="662" y="-21"/>
      <point x="493" y="-21" type="qcurve" smooth="yes"/>
      <point x="307" y="-21"/>
      <point x="93" y="168"/>
      <point x="98" y="294" type="qcurve"/>
      <point x="100" y="299" type="line"/>
      <point x="269" y="299" type="line"/>
      <point x="274" y="205"/>
      <point x="405" y="118"/>
      <point x="493" y="118" type="qcurve" smooth="yes"/>
      <point x="588" y="118"/>
      <point x="695" y="194"/>
    </contour>
  </outline>
</glyph>
<glyph name="t" format="1">
  <advance width="637"/>
  <unicode hex="0074"/>
  <outline>
    <contour>
      <point x="363" y="1207" type="line"/>
      <point x="363" y="972" type="line"/>
      <point x="547" y="972" type="line"/>
      <point x="547" y="840" type="line"/>
      <point x="363" y="840" type="line"/>
      <point x="363" y="249" type="line" smooth="yes"/>
      <point x="363" y="181"/>
      <point x="419" y="125"/>
      <point x="466" y="125" type="qcurve" smooth="yes"/>
      <point x="482" y="125"/>
      <point x="518" y="132"/>
      <point x="533" y="137" type="qcurve"/>
      <point x="556" y="16" type="line"/>
      <point x="536" y="0"/>
      <point x="460" y="-21"/>
      <point x="421" y="-21" type="qcurve" smooth="yes"/>
      <point x="313" y="-21"/>
      <point x="185" y="110"/>
      <point x="185" y="249" type="qcurve" smooth="yes"/>
      <point x="185" y="840" type="line"/>
      <point x="31" y="840" type="line"/>
      <point x="31" y="972" type="line"/>
      <point x="185" y="972" type="line"/>
      <point x="185" y="1207" type="line"/>
    </contour>
  </outline>
</glyph>
<glyph name="u" format="1">
  <advance width="1048"/>
  <unicode hex="0075"/>
  <outline>
    <contour>
      <point x="747" y="142" type="line"/>
      <point x="701" y="64"/>
      <point x="557" y="-21"/>
      <point x="463" y="-21" type="qcurve" smooth="yes"/>
      <point x="303" y="-21"/>
      <point x="125" y="182"/>
      <point x="125" y="398" type="qcurve" smooth="yes"/>
      <point x="125" y="972" type="line"/>
      <point x="302" y="972" type="line"/>
      <point x="302" y="396" type="line" smooth="yes"/>
      <point x="302" y="240"/>
      <point x="394" y="123"/>
      <point x="491" y="123" type="qcurve" smooth="yes"/>
      <point x="586" y="123"/>
      <point x="709" y="200"/>
      <point x="741" y="270" type="qcurve"/>
      <point x="741" y="972" type="line"/>
      <point x="918" y="972" type="line"/>
      <point x="918" y="-2" type="line"/>
      <point x="759" y="-2" type="line"/>
    </contour>
  </outline>
</glyph>
<glyph name="v" format="1">
  <advance width="927"/>
  <unicode hex="0076"/>
  <outline>
    <contour>
      <point x="454" y="287" type="line"/>
      <point x="469" y="219" type="line"/>
      <point x="474" y="219" type="line"/>
      <point x="491" y="287" type="line"/>
      <point x="716" y="974" type="line"/>
      <point x="896" y="974" type="line"/>
      <point x="538" y="0" type="line"/>
      <point x="404" y="0" type="line"/>
      <point x="41" y="974" type="line"/>
      <point x="223" y="974" type="line"/>
    </contour>
  </outline>
</glyph>
<glyph name="w" format="1">
  <advance width="1395"/>
  <unicode hex="0077"/>
  <outline>
    <contour>
      <point x="378" y="355" type="line"/>
      <point x="399" y="237" type="line"/>
      <point x="404" y="237" type="line"/>
      <point x="429" y="355" type="line"/>
      <point x="624" y="974" type="line"/>
      <point x="766" y="974" type="line"/>
      <point x="961" y="355" type="line"/>
      <point x="989" y="223" type="line"/>
      <point x="995" y="223" type="line"/>
      <point x="1021" y="355" type="line"/>
      <point x="1174" y="974" type="line"/>
      <point x="1350" y="974" type="line"/>
      <point x="1067" y="0" type="line"/>
      <point x="924" y="0" type="line"/>
      <point x="736" y="593" type="line"/>
      <point x="696" y="759" type="line"/>
      <point x="690" y="758" type="line"/>
      <point x="652" y="593" type="line"/>
      <point x="466" y="0" type="line"/>
      <point x="323" y="0" type="line"/>
      <point x="41" y="974" type="line"/>
      <point x="217" y="974" type="line"/>
    </contour>
  </outline>
</glyph>
<glyph name="x" format="1">
  <advance width="927"/>
  <unicode hex="0078"/>
  <outline>
    <contour>
      <point x="459" y="615" type="line"/>
      <point x="666" y="974" type="line"/>
      <point x="873" y="974" type="line"/>
      <point x="557" y="492" type="line"/>
      <point x="882" y="0" type="line"/>
      <point x="679" y="0" type="line"/>
      <point x="463" y="368" type="line"/>
      <point x="247" y="0" type="line"/>
      <point x="41" y="0" type="line"/>
      <point x="366" y="492" type="line"/>
      <point x="50" y="974" type="line"/>
      <point x="255" y="974" type="line"/>
    </contour>
  </outline>
</glyph>
<glyph name="y" format="1">
  <advance width="927"/>
  <unicode hex="0079"/>
  <outline>
    <contour>
      <point x="427" y="317" type="line"/>
      <point x="458" y="195" type="line"/>
      <point x="464" y="195" type="line"/>
      <point x="703" y="930" type="line"/>
      <point x="900" y="930" type="line"/>
      <point x="491" y="-193" type="line" smooth="yes"/>
      <point x="454" y="-291"/>
      <point x="316" y="-437"/>
      <point x="199" y="-437" type="qcurve" smooth="yes"/>
      <point x="177" y="-437"/>
      <point x="111" y="-427"/>
      <point x="93" y="-423" type="qcurve"/>
      <point x="111" y="-283" type="line"/>
      <point x="105" y="-282"/>
      <point x="180" y="-288"/>
      <point x="190" y="-288" type="qcurve" smooth="yes"/>
      <point x="247" y="-288"/>
      <point x="319" y="-187"/>
      <point x="343" y="-126" type="qcurve" smooth="yes"/>
      <point x="385" y="-24" type="line"/>
      <point x="23" y="930" type="line"/>
      <point x="221" y="930" type="line"/>
    </contour>
  </outline>
</glyph>
<glyph name="z" format="1">
  <advance width="927"/>
  <unicode hex="007A"/>
  <outline>
    <contour>
      <point x="296" y="139" type="line"/>
      <point x="859" y="139" type="line"/>
      <point x="859" y="0" type="line"/>
      <point x="85" y="0" type="line"/>
      <point x="85" y="124" type="line"/>
      <point x="611" y="833" type="line"/>
      <point x="91" y="833" type="line"/>
      <point x="91" y="974" type="line"/>
      <point x="828" y="974" type="line"/>
      <point x="828" y="853" type="line"/>
    </contour>
  </outline>
</glyph>
<glyph name="braceleft" format="1">
  <advance width="834"/>
  <unicode hex="007B"/>
  <outline>
    <contour>
      <point x="628" y="-328" type="line"/>
      <point x="452" y="-278"/>
      <point x="305" y="-62"/>
      <point x="305" y="91" type="qcurve"/>
      <point x="305" y="275" type="line"/>
      <point x="305" y="376"/>
      <point x="212" y="489"/>
      <point x="117" y="489" type="qcurve"/>
      <point x="117" y="621" type="line"/>
      <point x="212" y="621"/>
      <point x="305" y="732"/>
      <point x="305" y="833" type="qcurve"/>
      <point x="305" y="1019" type="line"/>
      <point x="305" y="1173"/>
      <point x="452" y="1388"/>
      <point x="628" y="1437" type="qcurve"/>
      <point x="664" y="1332" type="line"/>
      <point x="565" y="1300"/>
      <point x="482" y="1138"/>
      <point x="482" y="1019" type="qcurve"/>
      <point x="482" y="833" type="line"/>
      <point x="482" y="739"/>
      <point x="406" y="595"/>
      <point x="329" y="554" type="qcurve"/>
      <point x="406" y="513"/>
      <point x="482" y="368"/>
      <point x="482" y="275" type="qcurve"/>
      <point x="482" y="91" type="line"/>
      <point x="482" y="-28"/>
      <point x="565" y="-189"/>
      <point x="664" y="-221" type="qcurve"/>
    </contour>
  </outline>
</glyph>
<glyph name="braceright" format="1">
  <advance width="835"/>
  <unicode hex="007D"/>
  <outline>
    <contour>
      <point x="170" y="-221" type="line"/>
      <point x="268" y="-189"/>
      <point x="353" y="-28"/>
      <point x="353" y="91" type="qcurve"/>
      <point x="353" y="275" type="line"/>
      <point x="353" y="372"/>
      <point x="434" y="516"/>
      <point x="518" y="554" type="qcurve"/>
      <point x="434" y="591"/>
      <point x="353" y="735"/>
      <point x="353" y="833" type="qcurve"/>
      <point x="353" y="1019" type="line"/>
      <point x="353" y="1138"/>
      <point x="268" y="1300"/>
      <point x="170" y="1332" type="qcurve"/>
      <point x="207" y="1437" type="line"/>
      <point x="381" y="1388"/>
      <point x="530" y="1173"/>
      <point x="530" y="1019" type="qcurve"/>
      <point x="530" y="833" type="line"/>
      <point x="530" y="732"/>
      <point x="621" y="621"/>
      <point x="718" y="621" type="qcurve"/>
      <point x="718" y="489" type="line"/>
      <point x="621" y="489"/>
      <point x="530" y="376"/>
      <point x="530" y="275" type="qcurve"/>
      <point x="530" y="91" type="line"/>
      <point x="530" y="-62"/>
      <point x="381" y="-278"/>
      <point x="207" y="-328" type="qcurve"/>
    </contour>
  </outline>
</glyph>
<glyph name="asciitilde" format="1">
  <advance width="1252"/>
  <unicode hex="007E"/>
  <outline>
    <contour>
      <point x="1138" y="706" type="line"/>
      <point x="1138" y="583"/>
      <point x="981" y="401"/>
      <point x="864" y="401" type="qcurve" smooth="yes"/>
      <point x="783" y="401"/>
      <point x="651" y="460"/>
      <point x="574" y="527" type="qcurve" smooth="yes"/>
      <point x="521" y="570"/>
      <point x="433" y="613"/>
      <point x="388" y="613" type="qcurve" smooth="yes"/>
      <point x="328" y="613"/>
      <point x="242" y="518"/>
      <point x="242" y="451" type="qcurve"/>
      <point x="115" y="467" type="line"/>
      <point x="115" y="589"/>
      <point x="269" y="763"/>
      <point x="388" y="763" type="qcurve" smooth="yes"/>
      <point x="467" y="763"/>
      <point x="602" y="701"/>
      <point x="679" y="638" type="qcurve" smooth="yes"/>
      <point x="731" y="592"/>
      <point x="817" y="550"/>
      <point x="864" y="550" type="qcurve" smooth="yes"/>
      <point x="923" y="550"/>
      <point x="1011" y="653"/>
      <point x="1011" y="722" type="qcurve"/>
    </contour>
  </outline>
</glyph>
<glyph name="exclamdown" format="1">
  <advance width="449"/>
  <unicode hex="00A1"/>
  <outline>
    <contour>
      <point x="153" y="580" type="line"/>
      <point x="304" y="580" type="line"/>
      <point x="316" y="-360" type="line"/>
      <point x="141" y="-360" type="line"/>
    </contour>
    <contour>
      <point x="322" y="860" type="qcurve" smooth="yes"/>
      <point x="322" y="820"/>
      <point x="273" y="764"/>
      <point x="224" y="764" type="qcurve" smooth="yes" name="inserted"/>
      <point x="176" y="764"/>
      <point x="125" y="820"/>
      <point x="125" y="860" type="qcurve" smooth="yes" name="inserted"/>
      <point x="125" y="901"/>
      <point x="176" y="955"/>
      <point x="224" y="955" type="qcurve" smooth="yes" name="inserted"/>
      <point x="273" y="955"/>
      <point x="322" y="901"/>
    </contour>
  </outline>
</glyph>
<glyph name="cent" format="1">
  <advance width="1008.0"/>
  <unicode hex="00A2"/>
  <outline>
    <contour>
      <point x="527" y="93" type="qcurve" smooth="yes"/>
      <point x="617" y="93"/>
      <point x="751" y="202"/>
      <point x="758" y="282" type="qcurve"/>
      <point x="915" y="282" type="line"/>
      <point x="910" y="169"/>
      <point x="732" y="-12"/>
      <point x="602" y="-35" type="qcurve"/>
      <point x="602" y="-245" type="line"/>
      <point x="436" y="-245" type="line"/>
      <point x="436" y="-34" type="line"/>
      <point x="275" y="-4"/>
      <point x="95" y="252"/>
      <point x="95" y="450" type="qcurve" smooth="yes"/>
      <point x="95" y="481" type="line" smooth="yes"/>
      <point x="95" y="672"/>
      <point x="276" y="929"/>
      <point x="436" y="958" type="qcurve"/>
      <point x="436" y="1162" type="line"/>
      <point x="602" y="1162" type="line"/>
      <point x="602" y="961" type="line"/>
      <point x="737" y="940"/>
      <point x="910" y="750"/>
      <point x="915" y="615" type="qcurve"/>
      <point x="758" y="615" type="line"/>
      <point x="751" y="709"/>
      <point x="622" y="831"/>
      <point x="527" y="831" type="qcurve" smooth="yes"/>
      <point x="401" y="831"/>
      <point x="261" y="648"/>
      <point x="261" y="475" type="qcurve" smooth="yes"/>
      <point x="261" y="444" type="line" smooth="yes"/>
      <point x="261" y="275"/>
      <point x="401" y="93"/>
    </contour>
  </outline>
</glyph>
<glyph name="sterling" format="1">
  <advance width="1071.0"/>
  <unicode hex="00A3"/>
  <outline>
    <contour>
      <point x="404" y="560" type="line"/>
      <point x="411" y="362" type="line" smooth="yes"/>
      <point x="411" y="293" name="inserted"/>
      <point x="383" y="182"/>
      <point x="356" y="141" type="qcurve"/>
      <point x="1015" y="141" type="line"/>
      <point x="1014" y="0" type="line"/>
      <point x="86" y="0" type="line"/>
      <point x="86" y="141" type="line"/>
      <point x="155" y="141" type="line"/>
      <point x="191" y="149"/>
      <point x="236" y="267"/>
      <point x="238" y="354" type="qcurve" smooth="yes"/>
      <point x="238" y="361" type="line"/>
      <point x="230" y="560" type="line"/>
      <point x="82" y="560" type="line"/>
      <point x="82" y="701" type="line"/>
      <point x="226" y="701" type="line"/>
      <point x="218" y="935" type="line" smooth="yes"/>
      <point x="218" y="1114"/>
      <point x="438" y="1328"/>
      <point x="618" y="1328" type="qcurve" smooth="yes"/>
      <point x="789" y="1328"/>
      <point x="989" y="1138"/>
      <point x="989" y="978" type="qcurve"/>
      <point x="817" y="978" type="line"/>
      <point x="817" y="1075"/>
      <point x="703" y="1186"/>
      <point x="603" y="1186" type="qcurve" smooth="yes"/>
      <point x="509" y="1186"/>
      <point x="392" y="1048"/>
      <point x="392" y="935" type="qcurve" smooth="yes"/>
      <point x="400" y="701" type="line"/>
      <point x="687" y="701" type="line"/>
      <point x="687" y="560" type="line"/>
    </contour>
  </outline>
</glyph>
<glyph name="currency" format="1">
  <advance width="1314.0"/>
  <unicode hex="00A4"/>
  <outline>
    <contour>
      <point x="993" y="98" type="line"/>
      <point x="921" y="39" name="inserted"/>
      <point x="756" y="-21"/>
      <point x="662" y="-21" type="qcurve" smooth="yes"/>
      <point x="568" y="-21" name="inserted"/>
      <point x="404" y="38"/>
      <point x="332" y="96" type="qcurve"/>
      <point x="212" y="-26" type="line"/>
      <point x="95" y="95" type="line"/>
      <point x="220" y="222" type="line"/>
      <point x="173" y="293" name="inserted"/>
      <point x="126" y="454"/>
      <point x="126" y="545" type="qcurve" smooth="yes"/>
      <point x="126" y="637" name="inserted"/>
      <point x="176" y="803"/>
      <point x="227" y="877" type="qcurve"/>
      <point x="95" y="1013" type="line"/>
      <point x="212" y="1135" type="line"/>
      <point x="344" y="1000" type="line"/>
      <point x="415" y="1054" name="inserted"/>
      <point x="574" y="1108"/>
      <point x="662" y="1108" type="qcurve" smooth="yes"/>
      <point x="750" y="1108" name="inserted"/>
      <point x="909" y="1053"/>
      <point x="981" y="999" type="qcurve"/>
      <point x="1115" y="1136" type="line"/>
      <point x="1234" y="1013" type="line"/>
      <point x="1098" y="874" type="line"/>
      <point x="1148" y="801" name="inserted"/>
      <point x="1197" y="636"/>
      <point x="1197" y="545" type="qcurve" smooth="yes"/>
      <point x="1197" y="456" name="inserted"/>
      <point x="1151" y="297"/>
      <point x="1105" y="225" type="qcurve"/>
      <point x="1234" y="95" type="line"/>
      <point x="1115" y="-27" type="line"/>
    </contour>
    <contour>
      <point x="280" y="545" type="qcurve" smooth="yes"/>
      <point x="280" y="434"/>
      <point x="383" y="243"/>
      <point x="472" y="188" type="qcurve" smooth="yes" name="inserted"/>
      <point x="560" y="133"/>
      <point x="763" y="133"/>
      <point x="851" y="189" type="qcurve" smooth="yes" name="inserted"/>
      <point x="940" y="244"/>
      <point x="1041" y="434"/>
      <point x="1041" y="545" type="qcurve" smooth="yes"/>
      <point x="1041" y="654"/>
      <point x="940" y="844"/>
      <point x="851" y="899" type="qcurve" smooth="yes" name="inserted"/>
      <point x="807" y="926" name="inserted"/>
      <point x="712" y="953"/>
      <point x="662" y="953" type="qcurve" smooth="yes"/>
      <point x="560" y="953"/>
      <point x="383" y="845"/>
      <point x="332" y="750" type="qcurve" smooth="yes" name="inserted"/>
      <point x="306" y="702" name="inserted"/>
      <point x="280" y="599"/>
    </contour>
  </outline>
</glyph>
<glyph name="yen" format="1">
  <advance width="1116.0"/>
  <unicode hex="00A5"/>
  <outline>
    <contour>
      <point x="553" y="704" type="line"/>
      <point x="880" y="1310" type="line"/>
      <point x="1077" y="1310" type="line"/>
      <point x="701" y="662" type="line"/>
      <point x="982" y="662" type="line"/>
      <point x="982" y="550" type="line"/>
      <point x="636" y="550" type="line"/>
      <point x="636" y="401" type="line"/>
      <point x="982" y="401" type="line"/>
      <point x="982" y="290" type="line"/>
      <point x="636" y="290" type="line"/>
      <point x="636" y="0" type="line"/>
      <point x="463" y="0" type="line"/>
      <point x="463" y="290" type="line"/>
      <point x="122" y="290" type="line"/>
      <point x="122" y="401" type="line"/>
      <point x="463" y="401" type="line"/>
      <point x="463" y="550" type="line"/>
      <point x="122" y="550" type="line"/>
      <point x="122" y="662" type="line"/>
      <point x="404" y="662" type="line"/>
      <point x="28" y="1310" type="line"/>
      <point x="226" y="1310" type="line"/>
    </contour>
  </outline>
</glyph>
<glyph name="brokenbar" format="1">
  <advance width="442"/>
  <unicode hex="00A6"/>
  <outline>
    <contour>
      <point x="132" y="-270" type="line"/>
      <point x="132" y="442" type="line"/>
      <point x="300" y="442" type="line"/>
      <point x="300" y="-270" type="line"/>
    </contour>
    <contour>
      <point x="300" y="601" type="line"/>
      <point x="132" y="601" type="line"/>
      <point x="132" y="1283" type="line"/>
      <point x="300" y="1283" type="line"/>
    </contour>
  </outline>
</glyph>
<glyph name="section" format="1">
  <advance width="1130"/>
  <unicode hex="00A7"/>
  <outline>
    <contour>
      <point x="1031" y="338" type="qcurve" smooth="yes"/>
      <point x="1031" y="253" name="inserted"/>
      <point x="947" y="130"/>
      <point x="863" y="92" type="qcurve"/>
      <point x="925" y="48"/>
      <point x="990" y="-75"/>
      <point x="990" y="-165" type="qcurve" smooth="yes"/>
      <point x="990" y="-316"/>
      <point x="756" y="-495"/>
      <point x="551" y="-495" type="qcurve" smooth="yes"/>
      <point x="450" y="-495"/>
      <point x="269" y="-445"/>
      <point x="206" y="-393" type="qcurve" smooth="yes"/>
      <point x="144" y="-342" name="inserted"/>
      <point x="81" y="-199"/>
      <point x="81" y="-107" type="qcurve"/>
      <point x="248" y="-105" type="line"/>
      <point x="248" y="-222"/>
      <point x="410" y="-358"/>
      <point x="551" y="-358" type="qcurve" smooth="yes"/>
      <point x="673" y="-358"/>
      <point x="823" y="-253"/>
      <point x="823" y="-167" type="qcurve" smooth="yes"/>
      <point x="823" y="-86"/>
      <point x="695" y="8"/>
      <point x="507" y="64" type="qcurve" smooth="yes"/>
      <point x="343" y="107"/>
      <point x="170" y="207"/>
      <point x="128" y="277" type="qcurve" smooth="yes" name="inserted"/>
      <point x="107" y="312" name="inserted"/>
      <point x="86" y="396"/>
      <point x="86" y="446" type="qcurve" smooth="yes"/>
      <point x="86" y="530" name="inserted"/>
      <point x="168" y="653"/>
      <point x="250" y="693" type="qcurve"/>
      <point x="191" y="737"/>
      <point x="127" y="860"/>
      <point x="127" y="950" type="qcurve" smooth="yes"/>
      <point x="127" y="1099"/>
      <point x="367" y="1279"/>
      <point x="567" y="1279" type="qcurve" smooth="yes"/>
      <point x="776" y="1279"/>
      <point x="1010" y="1076"/>
      <point x="1010" y="891" type="qcurve"/>
      <point x="843" y="891" type="line"/>
      <point x="843" y="1004"/>
      <point x="692" y="1143"/>
      <point x="567" y="1143" type="qcurve" smooth="yes"/>
      <point x="439" y="1143"/>
      <point x="294" y="1040"/>
      <point x="294" y="951" type="qcurve" smooth="yes"/>
      <point x="294" y="889"/>
      <point x="345" y="817"/>
      <point x="405" y="788" type="qcurve" smooth="yes" name="inserted"/>
      <point x="466" y="759"/>
      <point x="725" y="687"/>
      <point x="801" y="654" type="qcurve" smooth="yes" name="inserted"/>
      <point x="877" y="622"/>
      <point x="978" y="535"/>
      <point x="1004" y="477" type="qcurve" smooth="yes" name="inserted"/>
      <point x="1017" y="448" name="inserted"/>
      <point x="1031" y="378"/>
    </contour>
    <contour>
      <point x="542" y="572" type="qcurve" smooth="yes"/>
      <point x="501" y="583" name="inserted"/>
      <point x="427" y="606"/>
      <point x="393" y="618" type="qcurve"/>
      <point x="321" y="601"/>
      <point x="254" y="510"/>
      <point x="254" y="448" type="qcurve" smooth="yes"/>
      <point x="254" y="385"/>
      <point x="302" y="313"/>
      <point x="362" y="284" type="qcurve" smooth="yes" name="inserted"/>
      <point x="422" y="254"/>
      <point x="678" y="180"/>
      <point x="717" y="165" type="qcurve"/>
      <point x="788" y="183"/>
      <point x="863" y="274"/>
      <point x="863" y="336" type="qcurve" smooth="yes"/>
      <point x="863" y="415"/>
      <point x="738" y="513"/>
    </contour>
  </outline>
</glyph>
<glyph name="dieresis" format="1">
  <advance width="770"/>
  <unicode hex="00A8"/>
  <outline>
    <contour>
      <point x="92" y="1360" type="qcurve" smooth="yes"/>
      <point x="92" y="1401"/>
      <point x="141" y="1456"/>
      <point x="190" y="1456" type="qcurve" smooth="yes" name="inserted"/>
      <point x="239" y="1456"/>
      <point x="289" y="1401"/>
      <point x="289" y="1360" type="qcurve" smooth="yes" name="inserted"/>
      <point x="289" y="1320"/>
      <point x="239" y="1266"/>
      <point x="190" y="1266" type="qcurve" smooth="yes" name="inserted"/>
      <point x="141" y="1266"/>
      <point x="92" y="1320"/>
    </contour>
    <contour>
      <point x="479" y="1359" type="qcurve" smooth="yes"/>
      <point x="479" y="1399"/>
      <point x="528" y="1455"/>
      <point x="577" y="1455" type="qcurve" smooth="yes" name="inserted"/>
      <point x="626" y="1455"/>
      <point x="676" y="1399"/>
      <point x="676" y="1359" type="qcurve" smooth="yes" name="inserted"/>
      <point x="676" y="1318"/>
      <point x="626" y="1264"/>
      <point x="577" y="1264" type="qcurve" smooth="yes" name="inserted"/>
      <point x="528" y="1264"/>
      <point x="479" y="1318"/>
    </contour>
  </outline>
</glyph>
<glyph name="copyright" format="1">
  <advance width="1444"/>
  <unicode hex="00A9"/>
  <outline>
    <contour>
      <point x="1000" y="534" type="line"/>
      <point x="1002" y="529" type="line"/>
      <point x="1005" y="393"/>
      <point x="847" y="252"/>
      <point x="706" y="252" type="qcurve" smooth="yes"/>
      <point x="562" y="252"/>
      <point x="392" y="443"/>
      <point x="392" y="600" type="qcurve" smooth="yes"/>
      <point x="392" y="707" type="line" smooth="yes"/>
      <point x="392" y="863"/>
      <point x="562" y="1055"/>
      <point x="706" y="1055" type="qcurve" smooth="yes"/>
      <point x="847" y="1055"/>
      <point x="1006" y="913"/>
      <point x="1003" y="779" type="qcurve"/>
      <point x="1001" y="774" type="line"/>
      <point x="869" y="774" type="line"/>
      <point x="869" y="859"/>
      <point x="788" y="938"/>
      <point x="706" y="938" type="qcurve" smooth="yes"/>
      <point x="621" y="938"/>
      <point x="529" y="811"/>
      <point x="529" y="708" type="qcurve" smooth="yes"/>
      <point x="529" y="600" type="line" smooth="yes"/>
      <point x="529" y="495"/>
      <point x="621" y="369"/>
      <point x="706" y="369" type="qcurve" smooth="yes"/>
      <point x="788" y="369"/>
      <point x="869" y="446"/>
      <point x="869" y="534" type="qcurve"/>
    </contour>
    <contour>
      <point x="188" y="654" type="qcurve" smooth="yes"/>
      <point x="188" y="416"/>
      <point x="497" y="88"/>
      <point x="718" y="88" type="qcurve" smooth="yes"/>
      <point x="939" y="88"/>
      <point x="1248" y="416"/>
      <point x="1248" y="654" type="qcurve" smooth="yes"/>
      <point x="1248" y="891"/>
      <point x="939" y="1217"/>
      <point x="718" y="1217" type="qcurve" smooth="yes"/>
      <point x="497" y="1217"/>
      <point x="188" y="891"/>
    </contour>
    <contour>
      <point x="79" y="654" type="qcurve" smooth="yes"/>
      <point x="79" y="938"/>
      <point x="452" y="1326"/>
      <point x="718" y="1326" type="qcurve" smooth="yes"/>
      <point x="984" y="1326"/>
      <point x="1356" y="938"/>
      <point x="1356" y="654" type="qcurve" smooth="yes"/>
      <point x="1356" y="370"/>
      <point x="983" y="-21"/>
      <point x="718" y="-21" type="qcurve" smooth="yes"/>
      <point x="452" y="-21"/>
      <point x="79" y="370"/>
    </contour>
  </outline>
</glyph>
<glyph name="ordfeminine" format="1">
  <advance width="824"/>
  <unicode hex="00AA"/>
  <outline>
    <contour>
      <point x="556" y="704" type="line"/>
      <point x="551" y="719" name="inserted"/>
      <point x="543" y="751"/>
      <point x="540" y="768" type="qcurve"/>
      <point x="506" y="730" name="inserted"/>
      <point x="414" y="691"/>
      <point x="356" y="691" type="qcurve" smooth="yes"/>
      <point x="249" y="691"/>
      <point x="132" y="803"/>
      <point x="132" y="895" type="qcurve" smooth="yes"/>
      <point x="132" y="995"/>
      <point x="283" y="1103"/>
      <point x="437" y="1103" type="qcurve" smooth="yes"/>
      <point x="535" y="1103" type="line"/>
      <point x="535" y="1150" type="line" smooth="yes"/>
      <point x="535" y="1211" name="inserted"/>
      <point x="479" y="1272"/>
      <point x="423" y="1272" type="qcurve" smooth="yes"/>
      <point x="361" y="1272"/>
      <point x="290" y="1223"/>
      <point x="290" y="1177" type="qcurve"/>
      <point x="145" y="1188" type="line"/>
      <point x="145" y="1281"/>
      <point x="300" y="1398"/>
      <point x="423" y="1398" type="qcurve" smooth="yes"/>
      <point x="543" y="1398"/>
      <point x="681" y="1269"/>
      <point x="681" y="1148" type="qcurve" smooth="yes"/>
      <point x="681" y="864" type="line" smooth="yes"/>
      <point x="681" y="820" name="inserted"/>
      <point x="693" y="740"/>
      <point x="705" y="704" type="qcurve"/>
    </contour>
    <contour>
      <point x="392" y="814" type="qcurve" smooth="yes"/>
      <point x="430" y="814"/>
      <point x="509" y="850"/>
      <point x="535" y="875" type="qcurve"/>
      <point x="535" y="1002" type="line"/>
      <point x="434" y="1002" type="line" smooth="yes"/>
      <point x="359" y="1002"/>
      <point x="279" y="945"/>
      <point x="279" y="899" type="qcurve" smooth="yes"/>
      <point x="279" y="857" name="inserted"/>
      <point x="335" y="814"/>
    </contour>
  </outline>
</glyph>
<glyph name="logicalnot" format="1">
  <advance width="1021"/>
  <unicode hex="00AC"/>
  <outline>
    <contour>
      <point x="862" y="375" type="line"/>
      <point x="695" y="375" type="line"/>
      <point x="695" y="613" type="line"/>
      <point x="114" y="613" type="line"/>
      <point x="114" y="758" type="line"/>
      <point x="862" y="758" type="line"/>
    </contour>
  </outline>
</glyph>
<glyph name="registered" format="1">
  <advance width="1449.0"/>
  <unicode hex="00AE"/>
  <outline>
    <contour>
      <point x="81" y="654" type="qcurve" smooth="yes"/>
      <point x="81" y="836"/>
      <point x="249" y="1147"/>
      <point x="398" y="1237" type="qcurve" smooth="yes" name="inserted"/>
      <point x="547" y="1326"/>
      <point x="893" y="1326"/>
      <point x="1041" y="1237" type="qcurve" smooth="yes" name="inserted"/>
      <point x="1190" y="1147"/>
      <point x="1358" y="836"/>
      <point x="1358" y="654" type="qcurve" smooth="yes"/>
      <point x="1358" y="477"/>
      <point x="1196" y="167"/>
      <point x="1047" y="73" type="qcurve" smooth="yes" name="inserted"/>
      <point x="973" y="26" name="inserted"/>
      <point x="809" y="-21"/>
      <point x="720" y="-21" type="qcurve" smooth="yes"/>
      <point x="543" y="-21"/>
      <point x="245" y="165"/>
      <point x="163" y="320" type="qcurve" smooth="yes" name="inserted"/>
      <point x="122" y="398" name="inserted"/>
      <point x="81" y="564"/>
    </contour>
    <contour>
      <point x="185" y="654" type="qcurve" smooth="yes"/>
      <point x="185" y="499"/>
      <point x="329" y="236"/>
      <point x="452" y="161" type="qcurve" smooth="yes" name="inserted"/>
      <point x="514" y="123" name="inserted"/>
      <point x="648" y="86"/>
      <point x="720" y="86" type="qcurve" smooth="yes"/>
      <point x="865" y="86"/>
      <point x="1113" y="238"/>
      <point x="1184" y="369" type="qcurve" smooth="yes" name="inserted"/>
      <point x="1219" y="434" name="inserted"/>
      <point x="1255" y="577"/>
      <point x="1255" y="654" type="qcurve" smooth="yes"/>
      <point x="1255" y="808"/>
      <point x="1113" y="1068"/>
      <point x="989" y="1143" type="qcurve" smooth="yes" name="inserted"/>
      <point x="927" y="1181" name="inserted"/>
      <point x="792" y="1218"/>
      <point x="720" y="1218" type="qcurve" smooth="yes"/>
      <point x="576" y="1218"/>
      <point x="328" y="1070"/>
      <point x="256" y="938" type="qcurve" smooth="yes" name="inserted"/>
      <point x="220" y="873" name="inserted"/>
      <point x="185" y="731"/>
    </contour>
    <contour>
      <point x="588" y="587" type="line"/>
      <point x="588" y="282" type="line"/>
      <point x="461" y="282" type="line"/>
      <point x="461" y="1046" type="line"/>
      <point x="709" y="1046" type="line" smooth="yes"/>
      <point x="847" y="1046"/>
      <point x="999" y="929"/>
      <point x="999" y="816" type="qcurve" smooth="yes"/>
      <point x="999" y="761" name="inserted"/>
      <point x="941" y="676"/>
      <point x="884" y="647" type="qcurve"/>
      <point x="939" y="624" name="inserted"/>
      <point x="994" y="533"/>
      <point x="995" y="463" type="qcurve" smooth="yes"/>
      <point x="995" y="408" type="line" smooth="yes"/>
      <point x="995" y="370" name="inserted"/>
      <point x="1002" y="314"/>
      <point x="1010" y="297" type="qcurve"/>
      <point x="1010" y="282" type="line"/>
      <point x="879" y="282" type="line"/>
      <point x="867" y="315"/>
      <point x="867" y="481"/>
      <point x="864" y="497" type="qcurve" smooth="yes"/>
      <point x="857" y="540" name="inserted"/>
      <point x="798" y="585"/>
      <point x="746" y="587" type="qcurve" smooth="yes"/>
    </contour>
    <contour>
      <point x="588" y="702" type="line"/>
      <point x="728" y="702" type="line" smooth="yes"/>
      <point x="793" y="704"/>
      <point x="872" y="763"/>
      <point x="872" y="812" type="qcurve" smooth="yes"/>
      <point x="872" y="877"/>
      <point x="802" y="932"/>
      <point x="712" y="932" type="qcurve" smooth="yes"/>
      <point x="588" y="932" type="line"/>
    </contour>
  </outline>
</glyph>
<glyph name="macron" format="1">
  <advance width="844"/>
  <unicode hex="00AF"/>
  <outline>
    <contour>
      <point x="751" y="1313" type="line"/>
      <point x="108" y="1313" type="line"/>
      <point x="108" y="1442" type="line"/>
      <point x="751" y="1442" type="line"/>
    </contour>
  </outline>
</glyph>
<glyph name="degree" format="1">
  <advance width="689"/>
  <unicode hex="00B0"/>
  <outline>
    <contour>
      <point x="117" y="1190" type="qcurve" smooth="yes"/>
      <point x="117" y="1284"/>
      <point x="251" y="1424"/>
      <point x="347" y="1424" type="qcurve" smooth="yes"/>
      <point x="440" y="1424"/>
      <point x="572" y="1285"/>
      <point x="572" y="1190" type="qcurve" smooth="yes"/>
      <point x="572" y="1095"/>
      <point x="440" y="960"/>
      <point x="347" y="960" type="qcurve" smooth="yes"/>
      <point x="252" y="960"/>
      <point x="117" y="1095"/>
    </contour>
    <contour>
      <point x="347" y="1075" type="qcurve" smooth="yes"/>
      <point x="395" y="1075"/>
      <point x="462" y="1139"/>
      <point x="462" y="1190" type="qcurve" smooth="yes"/>
      <point x="462" y="1243"/>
      <point x="395" y="1310"/>
      <point x="347" y="1310" type="qcurve" smooth="yes"/>
      <point x="297" y="1310"/>
      <point x="230" y="1239"/>
      <point x="230" y="1190" type="qcurve" smooth="yes" name="inserted"/>
      <point x="230" y="1142"/>
      <point x="297" y="1075"/>
    </contour>
  </outline>
</glyph>
<glyph name="plusminus" format="1">
  <advance width="985"/>
  <unicode hex="00B1"/>
  <outline>
    <contour>
      <point x="584" y="769" type="line"/>
      <point x="912" y="769" type="line"/>
      <point x="912" y="633" type="line"/>
      <point x="584" y="633" type="line"/>
      <point x="584" y="260" type="line"/>
      <point x="434" y="260" type="line"/>
      <point x="434" y="633" type="line"/>
      <point x="87" y="633" type="line"/>
      <point x="87" y="769" type="line"/>
      <point x="434" y="769" type="line"/>
      <point x="434" y="1140" type="line"/>
      <point x="584" y="1140" type="line"/>
    </contour>
    <contour>
      <point x="873" y="0" type="line"/>
      <point x="121" y="0" type="line"/>
      <point x="121" y="137" type="line"/>
      <point x="873" y="137" type="line"/>
    </contour>
  </outline>
</glyph>
<glyph name="acute" format="1">
  <advance width="578"/>
  <unicode hex="00B4"/>
  <outline>
    <contour>
      <point x="284" y="1505" type="line"/>
      <point x="486" y="1505" type="line"/>
      <point x="245" y="1240" type="line"/>
      <point x="111" y="1240" type="line"/>
    </contour>
  </outline>
</glyph>
<glyph name="uni00B5" format="1">
  <advance width="1044.0"/>
  <unicode hex="00B5"/>
  <outline>
    <contour>
      <point x="305" y="932" type="line"/>
      <point x="305" y="363" type="line" smooth="yes"/>
      <point x="306" y="216"/>
      <point x="399" y="75"/>
      <point x="503" y="75" type="qcurve" smooth="yes"/>
      <point x="593" y="75" name="inserted"/>
      <point x="710" y="144"/>
      <point x="738" y="212" type="qcurve"/>
      <point x="738" y="932" type="line"/>
      <point x="905" y="932" type="line"/>
      <point x="905" y="-42" type="line"/>
      <point x="755" y="-42" type="line"/>
      <point x="747" y="62" type="line"/>
      <point x="705" y="1" name="inserted"/>
      <point x="587" y="-60"/>
      <point x="510" y="-60" type="qcurve" smooth="yes"/>
      <point x="444" y="-60" name="inserted"/>
      <point x="342" y="-27"/>
      <point x="305" y="6" type="qcurve"/>
      <point x="305" y="-416" type="line"/>
      <point x="139" y="-416" type="line"/>
      <point x="139" y="932" type="line"/>
    </contour>
  </outline>
</glyph>
<glyph name="paragraph" format="1">
  <advance width="901"/>
  <unicode hex="00B6"/>
  <outline>
    <contour>
      <point x="581" y="0" type="line"/>
      <point x="581" y="468" type="line"/>
      <point x="506" y="468" type="line" smooth="yes"/>
      <point x="299" y="468"/>
      <point x="60" y="697"/>
      <point x="60" y="889" type="qcurve" smooth="yes"/>
      <point x="60" y="1081"/>
      <point x="300" y="1310"/>
      <point x="507" y="1310" type="qcurve" smooth="yes"/>
      <point x="749" y="1310" type="line"/>
      <point x="749" y="0" type="line"/>
    </contour>
  </outline>
</glyph>
<glyph name="periodcentered" format="1">
  <advance width="481"/>
  <unicode hex="00B7"/>
  <outline>
    <contour>
      <point x="132" y="718" type="qcurve" smooth="yes"/>
      <point x="132" y="761"/>
      <point x="184" y="819"/>
      <point x="235" y="819" type="qcurve" smooth="yes" name="inserted"/>
      <point x="286" y="819"/>
      <point x="339" y="761"/>
      <point x="339" y="718" type="qcurve" smooth="yes"/>
      <point x="339" y="676"/>
      <point x="286" y="619"/>
      <point x="235" y="619" type="qcurve" smooth="yes" name="inserted"/>
      <point x="184" y="619"/>
      <point x="132" y="676"/>
    </contour>
  </outline>
</glyph>
<glyph name="cedilla" format="1">
  <advance width="456"/>
  <unicode hex="00B8"/>
  <outline>
    <contour>
      <point x="257" y="-44" type="line"/>
      <point x="246" y="-90" type="line"/>
      <point x="315" y="-102" name="inserted"/>
      <point x="383" y="-180"/>
      <point x="383" y="-246" type="qcurve" smooth="yes"/>
      <point x="383" y="-333"/>
      <point x="239" y="-435"/>
      <point x="111" y="-435" type="qcurve"/>
      <point x="104" y="-339" type="line"/>
      <point x="176" y="-339"/>
      <point x="254" y="-292"/>
      <point x="254" y="-250" type="qcurve" smooth="yes"/>
      <point x="254" y="-210"/>
      <point x="196" y="-172"/>
      <point x="108" y="-164" type="qcurve"/>
      <point x="137" y="-44" type="line"/>
    </contour>
  </outline>
</glyph>
<glyph name="ordmasculine" format="1">
  <advance width="838"/>
  <unicode hex="00BA"/>
  <outline>
    <contour>
      <point x="110" y="1080" type="line" smooth="yes"/>
      <point x="110" y="1222"/>
      <point x="279" y="1397"/>
      <point x="418" y="1397" type="qcurve" smooth="yes"/>
      <point x="557" y="1397"/>
      <point x="726" y="1224"/>
      <point x="726" y="1074" type="qcurve" smooth="yes"/>
      <point x="726" y="1008" type="line" smooth="yes"/>
      <point x="726" y="865"/>
      <point x="558" y="690"/>
      <point x="419" y="690" type="qcurve" smooth="yes" name="inserted"/>
      <point x="281" y="690"/>
      <point x="110" y="865"/>
      <point x="110" y="1013" type="qcurve" smooth="yes"/>
    </contour>
    <contour>
      <point x="257" y="1008" type="line" smooth="yes"/>
      <point x="257" y="918"/>
      <point x="344" y="815"/>
      <point x="419" y="815" type="qcurve" smooth="yes"/>
      <point x="494" y="815"/>
      <point x="580" y="919"/>
      <point x="580" y="1010" type="qcurve" smooth="yes"/>
      <point x="580" y="1080" type="line" smooth="yes"/>
      <point x="580" y="1169"/>
      <point x="492" y="1271"/>
      <point x="418" y="1271" type="qcurve" smooth="yes"/>
      <point x="345" y="1271"/>
      <point x="258" y="1172"/>
      <point x="257" y="1085" type="qcurve"/>
    </contour>
  </outline>
</glyph>
<glyph name="questiondown" format="1">
  <advance width="872"/>
  <unicode hex="00BF"/>
  <outline>
    <contour>
      <point x="529" y="574" type="line"/>
      <point x="528" y="478"/>
      <point x="491" y="364"/>
      <point x="448" y="311" type="qcurve" smooth="yes" name="inserted"/>
      <point x="405" y="258"/>
      <point x="239" y="84"/>
      <point x="230" y="-5" type="qcurve"/>
      <point x="228" y="-39" type="line"/>
      <point x="228" y="-137"/>
      <point x="332" y="-240"/>
      <point x="430" y="-240" type="qcurve" smooth="yes"/>
      <point x="520" y="-240"/>
      <point x="633" y="-138"/>
      <point x="633" y="-57" type="qcurve"/>
      <point x="799" y="-57" type="line"/>
      <point x="797" y="-201"/>
      <point x="595" y="-385"/>
      <point x="430" y="-385" type="qcurve" smooth="yes"/>
      <point x="254" y="-385"/>
      <point x="61" y="-204"/>
      <point x="61" y="-43" type="qcurve" smooth="yes"/>
      <point x="61" y="35" name="inserted"/>
      <point x="133" y="191"/>
      <point x="205" y="270" type="qcurve" smooth="yes"/>
      <point x="303" y="372" type="line"/>
      <point x="333" y="407" name="inserted"/>
      <point x="363" y="508"/>
      <point x="363" y="574" type="qcurve"/>
    </contour>
    <contour>
      <point x="536" y="859" type="qcurve" smooth="yes"/>
      <point x="536" y="818"/>
      <point x="487" y="763"/>
      <point x="438" y="763" type="qcurve" smooth="yes" name="inserted"/>
      <point x="390" y="763"/>
      <point x="339" y="818"/>
      <point x="339" y="859" type="qcurve" smooth="yes"/>
      <point x="339" y="898"/>
      <point x="390" y="952"/>
      <point x="438" y="952" type="qcurve" smooth="yes" name="inserted"/>
      <point x="487" y="952"/>
      <point x="536" y="898"/>
    </contour>
  </outline>
</glyph>
<glyph name="AE" format="1">
  <advance width="1723"/>
  <unicode hex="00C6"/>
  <outline>
    <contour>
      <point x="1691" y="0" type="line"/>
      <point x="896" y="0" type="line"/>
      <point x="883" y="318" type="line"/>
      <point x="375" y="318" type="line"/>
      <point x="191" y="0" type="line"/>
      <point x="-13" y="0" type="line"/>
      <point x="779" y="1310" type="line"/>
      <point x="1635" y="1310" type="line"/>
      <point x="1635" y="1174" type="line"/>
      <point x="1013" y="1174" type="line"/>
      <point x="1031" y="750" type="line"/>
      <point x="1562" y="750" type="line"/>
      <point x="1562" y="614" type="line"/>
      <point x="1037" y="614" type="line"/>
      <point x="1057" y="136" type="line"/>
      <point x="1691" y="136" type="line"/>
    </contour>
    <contour>
      <point x="466" y="474" type="line"/>
      <point x="877" y="474" type="line"/>
      <point x="849" y="1134" type="line"/>
    </contour>
  </outline>
</glyph>
<glyph name="Eth" format="1">
  <advance width="1236"/>
  <unicode hex="00D0"/>
  <outline>
    <contour>
      <point x="179" y="0" type="line"/>
      <point x="179" y="599" type="line"/>
      <point x="33" y="599" type="line"/>
      <point x="33" y="735" type="line"/>
      <point x="179" y="735" type="line"/>
      <point x="179" y="1310" type="line"/>
      <point x="549" y="1310" type="line" smooth="yes"/>
      <point x="720" y="1310"/>
      <point x="983" y="1159"/>
      <point x="1054" y="1020" type="qcurve" smooth="yes" name="inserted"/>
      <point x="1090" y="950" name="inserted"/>
      <point x="1126" y="790"/>
      <point x="1127" y="699" type="qcurve" smooth="yes"/>
      <point x="1127" y="616" type="line" smooth="yes"/>
      <point x="1127" y="430"/>
      <point x="984" y="151"/>
      <point x="851" y="77" type="qcurve" smooth="yes" name="inserted"/>
      <point x="785" y="39" name="inserted"/>
      <point x="630" y="1"/>
      <point x="542" y="0" type="qcurve" smooth="yes"/>
    </contour>
    <contour>
      <point x="606" y="599" type="line"/>
      <point x="352" y="599" type="line"/>
      <point x="352" y="141" type="line"/>
      <point x="533" y="141" type="line" smooth="yes"/>
      <point x="733" y="141"/>
      <point x="955" y="388"/>
      <point x="956" y="612" type="qcurve" smooth="yes"/>
      <point x="956" y="696" type="line" smooth="yes"/>
      <point x="956" y="919"/>
      <point x="746" y="1166"/>
      <point x="554" y="1168" type="qcurve" smooth="yes"/>
      <point x="352" y="1168" type="line"/>
      <point x="352" y="735" type="line"/>
      <point x="606" y="735" type="line"/>
    </contour>
  </outline>
</glyph>
<glyph name="Oslash" format="1">
  <advance width="1267"/>
  <unicode hex="00D8"/>
  <outline>
    <contour>
      <point x="1160" y="604" type="line" smooth="yes"/>
      <point x="1160" y="411"/>
      <point x="1031" y="124"/>
      <point x="912" y="48" type="qcurve" smooth="yes" name="inserted"/>
      <point x="852" y="11" name="inserted"/>
      <point x="714" y="-27"/>
      <point x="635" y="-27" type="qcurve" smooth="yes"/>
      <point x="558" y="-27" name="inserted"/>
      <point x="422" y="10"/>
      <point x="363" y="47" type="qcurve"/>
      <point x="275" y="-93" type="line"/>
      <point x="148" y="-93" type="line"/>
      <point x="277" y="115" type="line"/>
      <point x="192" y="201" name="inserted"/>
      <point x="106" y="450"/>
      <point x="106" y="612" type="qcurve" smooth="yes"/>
      <point x="106" y="686" type="line" smooth="yes"/>
      <point x="106" y="875"/>
      <point x="238" y="1165"/>
      <point x="358" y="1242" type="qcurve" smooth="yes" name="inserted"/>
      <point x="418" y="1281" name="inserted"/>
      <point x="555" y="1319"/>
      <point x="633" y="1319" type="qcurve" smooth="yes"/>
      <point x="729" y="1319" name="inserted"/>
      <point x="892" y="1263"/>
      <point x="959" y="1207" type="qcurve"/>
      <point x="1051" y="1355" type="line"/>
      <point x="1178" y="1355" type="line"/>
      <point x="1035" y="1126" type="line"/>
      <point x="1097" y="1041" name="inserted"/>
      <point x="1159" y="825"/>
      <point x="1160" y="693" type="qcurve" smooth="yes"/>
    </contour>
    <contour>
      <point x="278" y="604" type="line" smooth="yes"/>
      <point x="278" y="494" name="inserted"/>
      <point x="322" y="321"/>
      <point x="366" y="257" type="qcurve"/>
      <point x="874" y="1071" type="line"/>
      <point x="828" y="1121" name="inserted"/>
      <point x="707" y="1171"/>
      <point x="633" y="1171" type="qcurve" smooth="yes"/>
      <point x="469" y="1171"/>
      <point x="281" y="921"/>
      <point x="278" y="700" type="qcurve"/>
    </contour>
    <contour>
      <point x="988" y="688" type="line" smooth="yes"/>
      <point x="988" y="770" name="inserted"/>
      <point x="963" y="911"/>
      <point x="938" y="970" type="qcurve"/>
      <point x="444" y="177" type="line"/>
      <point x="485" y="148" name="inserted"/>
      <point x="580" y="119"/>
      <point x="635" y="119" type="qcurve" smooth="yes"/>
      <point x="802" y="119"/>
      <point x="986" y="363"/>
      <point x="988" y="591" type="qcurve" smooth="yes"/>
    </contour>
  </outline>
</glyph>
<glyph name="Thorn" format="1">
  <advance width="1089.0"/>
  <unicode hex="00DE"/>
  <outline>
    <contour>
      <point x="317" y="1310" type="line"/>
      <point x="317" y="1047" type="line"/>
      <point x="568" y="1047" type="line" smooth="yes"/>
      <point x="700" y="1047"/>
      <point x="898" y="952"/>
      <point x="952" y="865" type="qcurve" smooth="yes" name="inserted"/>
      <point x="979" y="821" name="inserted"/>
      <point x="1005" y="721"/>
      <point x="1005" y="664" type="qcurve" smooth="yes"/>
      <point x="1005" y="490"/>
      <point x="768" y="282"/>
      <point x="563" y="282" type="qcurve" smooth="yes"/>
      <point x="317" y="282" type="line"/>
      <point x="317" y="0" type="line"/>
      <point x="149" y="0" type="line"/>
      <point x="149" y="1310" type="line"/>
    </contour>
    <contour>
      <point x="317" y="910" type="line"/>
      <point x="317" y="419" type="line"/>
      <point x="566" y="419" type="line" smooth="yes"/>
      <point x="694" y="419"/>
      <point x="838" y="554"/>
      <point x="838" y="662" type="qcurve" smooth="yes"/>
      <point x="838" y="773"/>
      <point x="694" y="909"/>
      <point x="572" y="910" type="qcurve" smooth="yes"/>
    </contour>
  </outline>
</glyph>
<glyph name="germandbls" format="1">
  <advance width="1096"/>
  <unicode hex="00DF"/>
  <outline>
    <contour>
      <point x="292" y="-2" type="line"/>
      <point x="125" y="-2" type="line"/>
      <point x="125" y="998" type="line" smooth="yes"/>
      <point x="125" y="1185"/>
      <point x="311" y="1397"/>
      <point x="479" y="1397" type="qcurve" smooth="yes"/>
      <point x="641" y="1397"/>
      <point x="818" y="1236"/>
      <point x="818" y="1092" type="qcurve" smooth="yes"/>
      <point x="818" y="980"/>
      <point x="703" y="797"/>
      <point x="703" y="735" type="qcurve" smooth="yes"/>
      <point x="703" y="689"/>
      <point x="770" y="604"/>
      <point x="855" y="539" type="qcurve" smooth="yes" name="inserted"/>
      <point x="940" y="474"/>
      <point x="1017" y="352"/>
      <point x="1017" y="283" type="qcurve" smooth="yes"/>
      <point x="1017" y="140"/>
      <point x="834" y="-20"/>
      <point x="671" y="-20" type="qcurve" smooth="yes"/>
      <point x="598" y="-20"/>
      <point x="435" y="20"/>
      <point x="401" y="45" type="qcurve"/>
      <point x="439" y="184" type="line"/>
      <point x="483" y="156"/>
      <point x="605" y="116"/>
      <point x="653" y="116" type="qcurve" smooth="yes"/>
      <point x="749" y="116"/>
      <point x="851" y="201"/>
      <point x="851" y="274" type="qcurve" smooth="yes"/>
      <point x="851" y="321"/>
      <point x="784" y="408"/>
      <point x="699" y="474" type="qcurve" smooth="yes" name="inserted"/>
      <point x="614" y="540"/>
      <point x="536" y="664"/>
      <point x="536" y="737" type="qcurve" smooth="yes"/>
      <point x="536" y="817"/>
      <point x="661" y="1003"/>
      <point x="661" y="1079" type="qcurve" smooth="yes"/>
      <point x="661" y="1164"/>
      <point x="567" y="1260"/>
      <point x="488" y="1260" type="qcurve" smooth="yes"/>
      <point x="390" y="1260" name="inserted"/>
      <point x="292" y="1128"/>
      <point x="292" y="996" type="qcurve" smooth="yes"/>
    </contour>
  </outline>
</glyph>
<glyph name="ae" format="1">
  <advance width="1556"/>
  <unicode hex="00E6"/>
  <outline>
    <contour>
      <point x="1136" y="-20" type="qcurve" smooth="yes"/>
      <point x="1018" y="-20" name="inserted"/>
      <point x="840" y="61"/>
      <point x="779" y="142" type="qcurve"/>
      <point x="720" y="65"/>
      <point x="517" y="-20"/>
      <point x="390" y="-20" type="qcurve" smooth="yes"/>
      <point x="239" y="-20"/>
      <point x="70" y="136"/>
      <point x="70" y="272" type="qcurve" smooth="yes"/>
      <point x="70" y="413"/>
      <point x="275" y="570"/>
      <point x="473" y="570" type="qcurve" smooth="yes"/>
      <point x="674" y="570" type="line"/>
      <point x="674" y="646" type="line" smooth="yes"/>
      <point x="674" y="742"/>
      <point x="575" y="853"/>
      <point x="482" y="853" type="qcurve" smooth="yes"/>
      <point x="387" y="853"/>
      <point x="261" y="754"/>
      <point x="261" y="681" type="qcurve"/>
      <point x="95" y="698" type="line"/>
      <point x="95" y="827"/>
      <point x="313" y="990"/>
      <point x="482" y="990" type="qcurve" smooth="yes"/>
      <point x="585" y="990"/>
      <point x="743" y="915"/>
      <point x="788" y="840" type="qcurve"/>
      <point x="845" y="912"/>
      <point x="1002" y="990"/>
      <point x="1096" y="990" type="qcurve" smooth="yes"/>
      <point x="1285" y="990"/>
      <point x="1494" y="759"/>
      <point x="1494" y="549" type="qcurve" smooth="yes"/>
      <point x="1494" y="445" type="line"/>
      <point x="839" y="445" type="line"/>
      <point x="845" y="287"/>
      <point x="1002" y="115"/>
      <point x="1136" y="115" type="qcurve" smooth="yes"/>
      <point x="1202" y="115" name="inserted"/>
      <point x="1323" y="149"/>
      <point x="1378" y="183" type="qcurve" smooth="yes"/>
      <point x="1420" y="211" type="line"/>
      <point x="1478" y="89" type="line"/>
      <point x="1407" y="34" name="inserted"/>
      <point x="1236" y="-20"/>
    </contour>
    <contour>
      <point x="422" y="115" type="qcurve" smooth="yes"/>
      <point x="487" y="115"/>
      <point x="629" y="182"/>
      <point x="674" y="230" type="qcurve"/>
      <point x="674" y="444" type="line"/>
      <point x="469" y="444" type="line" smooth="yes"/>
      <point x="364" y="442"/>
      <point x="238" y="343"/>
      <point x="238" y="268" type="qcurve" smooth="yes"/>
      <point x="238" y="199"/>
      <point x="333" y="115"/>
    </contour>
    <contour>
      <point x="1096" y="853" type="qcurve" smooth="yes"/>
      <point x="993" y="853"/>
      <point x="859" y="699"/>
      <point x="843" y="574" type="qcurve"/>
      <point x="1328" y="574" type="line"/>
      <point x="1328" y="602" type="line" smooth="yes"/>
      <point x="1328" y="721"/>
      <point x="1207" y="853"/>
    </contour>
  </outline>
</glyph>
<glyph name="eth" format="1">
  <advance width="1080.0"/>
  <unicode hex="00F0"/>
  <outline>
    <contour>
      <point x="738" y="1169" type="line"/>
      <point x="850" y="1050" name="inserted"/>
      <point x="962" y="747"/>
      <point x="962" y="563" type="qcurve" smooth="yes"/>
      <point x="962" y="480" type="line" smooth="yes"/>
      <point x="962" y="337"/>
      <point x="857" y="110"/>
      <point x="760" y="45" type="qcurve" smooth="yes" name="inserted"/>
      <point x="711" y="12" name="inserted"/>
      <point x="602" y="-20"/>
      <point x="542" y="-20" type="qcurve" smooth="yes"/>
      <point x="420" y="-20"/>
      <point x="222" y="96"/>
      <point x="168" y="197" type="qcurve" smooth="yes" name="inserted"/>
      <point x="141" y="247" name="inserted"/>
      <point x="113" y="358"/>
      <point x="113" y="418" type="qcurve" smooth="yes"/>
      <point x="113" y="551"/>
      <point x="214" y="760"/>
      <point x="307" y="819" type="qcurve" smooth="yes" name="inserted"/>
      <point x="354" y="848" name="inserted"/>
      <point x="459" y="877"/>
      <point x="517" y="877" type="qcurve" smooth="yes"/>
      <point x="590" y="877" name="inserted"/>
      <point x="718" y="826"/>
      <point x="772" y="775" type="qcurve"/>
      <point x="751" y="862" name="inserted"/>
      <point x="666" y="1014"/>
      <point x="602" y="1077" type="qcurve"/>
      <point x="406" y="944" type="line"/>
      <point x="340" y="1033" type="line"/>
      <point x="513" y="1151" type="line"/>
      <point x="454" y="1192" name="inserted"/>
      <point x="312" y="1255"/>
      <point x="230" y="1277" type="qcurve"/>
      <point x="281" y="1420" type="line"/>
      <point x="388" y="1396" name="inserted"/>
      <point x="575" y="1309"/>
      <point x="653" y="1246" type="qcurve"/>
      <point x="824" y="1362" type="line"/>
      <point x="889" y="1272" type="line"/>
    </contour>
    <contour>
      <point x="796" y="570" type="line"/>
      <point x="794" y="620" type="line"/>
      <point x="764" y="675"/>
      <point x="639" y="741"/>
      <point x="556" y="741" type="qcurve" smooth="yes"/>
      <point x="426" y="741"/>
      <point x="280" y="569"/>
      <point x="280" y="418" type="qcurve" smooth="yes"/>
      <point x="280" y="292"/>
      <point x="430" y="116"/>
      <point x="545" y="116" type="qcurve" smooth="yes"/>
      <point x="658" y="116"/>
      <point x="796" y="319"/>
      <point x="796" y="485" type="qcurve" smooth="yes"/>
    </contour>
  </outline>
</glyph>
<glyph name="divide" format="1">
  <advance width="1053"/>
  <unicode hex="00F7"/>
  <outline>
    <contour>
      <point x="962" y="555" type="line"/>
      <point x="64" y="555" type="line"/>
      <point x="64" y="725" type="line"/>
      <point x="962" y="725" type="line"/>
    </contour>
    <contour>
      <point x="603" y="917" type="line"/>
      <point x="425" y="917" type="line"/>
      <point x="425" y="1100" type="line"/>
      <point x="603" y="1100" type="line"/>
    </contour>
    <contour>
      <point x="603" y="180" type="line"/>
      <point x="425" y="180" type="line"/>
      <point x="425" y="363" type="line"/>
      <point x="603" y="363" type="line"/>
    </contour>
  </outline>
</glyph>
<glyph name="oslash" format="1">
  <advance width="1044.0"/>
  <unicode hex="00F8"/>
  <outline>
    <contour>
      <point x="82" y="483" type="qcurve" smooth="yes"/>
      <point x="82" y="626"/>
      <point x="193" y="853"/>
      <point x="294" y="916" type="qcurve" smooth="yes" name="inserted"/>
      <point x="344" y="947" name="inserted"/>
      <point x="459" y="978"/>
      <point x="524" y="978" type="qcurve" smooth="yes"/>
      <point x="573" y="978" name="inserted"/>
      <point x="665" y="960"/>
      <point x="707" y="941" type="qcurve"/>
      <point x="773" y="1074" type="line"/>
      <point x="885" y="1074" type="line"/>
      <point x="793" y="889" type="line"/>
      <point x="881" y="820" name="inserted"/>
      <point x="968" y="607"/>
      <point x="968" y="463" type="qcurve" smooth="yes"/>
      <point x="968" y="321"/>
      <point x="857" y="92"/>
      <point x="756" y="30" type="qcurve" smooth="yes" name="inserted"/>
      <point x="706" y="-1" name="inserted"/>
      <point x="590" y="-31"/>
      <point x="526" y="-31" type="qcurve" smooth="yes"/>
      <point x="479" y="-31" name="inserted"/>
      <point x="393" y="-16"/>
      <point x="355" y="0" type="qcurve"/>
      <point x="288" y="-134" type="line"/>
      <point x="176" y="-134" type="line"/>
      <point x="266" y="49" type="line"/>
      <point x="174" y="116" name="inserted"/>
      <point x="82" y="333"/>
    </contour>
    <contour>
      <point x="248" y="463" type="qcurve" smooth="yes"/>
      <point x="248" y="375" name="inserted"/>
      <point x="292" y="238"/>
      <point x="336" y="188" type="qcurve"/>
      <point x="644" y="813" type="line"/>
      <point x="617" y="827" name="inserted"/>
      <point x="556" y="842"/>
      <point x="524" y="842" type="qcurve" smooth="yes"/>
      <point x="400" y="842"/>
      <point x="248" y="645"/>
    </contour>
    <contour>
      <point x="801" y="483" type="line" smooth="yes"/>
      <point x="801" y="564" name="inserted"/>
      <point x="762" y="696"/>
      <point x="723" y="746" type="qcurve"/>
      <point x="417" y="127" type="line"/>
      <point x="441" y="116" name="inserted"/>
      <point x="496" y="105"/>
      <point x="526" y="105" type="qcurve" smooth="yes"/>
      <point x="651" y="105"/>
      <point x="801" y="302"/>
      <point x="801" y="468" type="qcurve" smooth="yes"/>
    </contour>
  </outline>
</glyph>
<glyph name="thorn" format="1">
  <advance width="1062.0"/>
  <unicode hex="00FE"/>
  <outline>
    <contour>
      <point x="957" y="435" type="line" smooth="yes"/>
      <point x="957" y="212"/>
      <point x="753" y="-60"/>
      <point x="580" y="-60" type="qcurve" smooth="yes"/>
      <point x="491" y="-60" name="inserted"/>
      <point x="351" y="-3"/>
      <point x="301" y="53" type="qcurve"/>
      <point x="301" y="-416" type="line"/>
      <point x="134" y="-416" type="line"/>
      <point x="134" y="1341" type="line"/>
      <point x="301" y="1341" type="line"/>
      <point x="301" y="831" type="line"/>
      <point x="351" y="891" name="inserted"/>
      <point x="490" y="950"/>
      <point x="577" y="950" type="qcurve" smooth="yes"/>
      <point x="752" y="950"/>
      <point x="957" y="686"/>
      <point x="957" y="450" type="qcurve" smooth="yes"/>
    </contour>
    <contour>
      <point x="790" y="453" type="qcurve" smooth="yes"/>
      <point x="790" y="618"/>
      <point x="650" y="809"/>
      <point x="527" y="809" type="qcurve" smooth="yes"/>
      <point x="452" y="809" name="inserted"/>
      <point x="338" y="742"/>
      <point x="301" y="675" type="qcurve"/>
      <point x="301" y="210" type="line"/>
      <point x="338" y="143" name="inserted"/>
      <point x="452" y="76"/>
      <point x="529" y="76" type="qcurve" smooth="yes"/>
      <point x="649" y="76"/>
      <point x="790" y="266"/>
    </contour>
  </outline>
</glyph>
<glyph name="Aogonek" format="1">
  <advance width="1202"/>
  <unicode hex="0104"/>
  <outline>
    <contour>
      <point x="677" y="1267" type="line"/>
      <point x="1178" y="-43" type="line"/>
      <point x="1144" y="-43" type="line"/>
      <point x="1092" y="-84" type="line" smooth="yes"/>
      <point x="1041" y="-125" name="inserted"/>
      <point x="990" y="-204"/>
      <point x="990" y="-243" type="qcurve" smooth="yes"/>
      <point x="990" y="-276" name="inserted"/>
      <point x="1025" y="-308"/>
      <point x="1060" y="-308" type="qcurve" smooth="yes"/>
      <point x="1082" y="-308" name="inserted"/>
      <point x="1127" y="-296"/>
      <point x="1150" y="-285" type="qcurve"/>
      <point x="1162" y="-393" type="line"/>
      <point x="1130" y="-413" name="inserted"/>
      <point x="1058" y="-433"/>
      <point x="1018" y="-433" type="qcurve" smooth="yes"/>
      <point x="938" y="-433"/>
      <point x="845" y="-339"/>
      <point x="845" y="-262" type="qcurve" smooth="yes"/>
      <point x="845" y="-197" name="inserted"/>
      <point x="921" y="-84"/>
      <point x="997" y="-35" type="qcurve"/>
      <point x="876" y="299" type="line"/>
      <point x="327" y="299" type="line"/>
      <point x="203" y="-43" type="line"/>
      <point x="25" y="-43" type="line"/>
      <point x="526" y="1267" type="line"/>
    </contour>
    <contour>
      <point x="379" y="441" type="line"/>
      <point x="824" y="441" type="line"/>
      <point x="601" y="1054" type="line"/>
    </contour>
  </outline>
</glyph>
<glyph name="aogonek" format="1">
  <advance width="1003"/>
  <unicode hex="0105"/>
  <outline>
    <contour>
      <point x="724" y="-37" type="qcurve"/>
      <point x="717" y="-20" name="inserted"/>
      <point x="707" y="28"/>
      <point x="704" y="59" type="qcurve"/>
      <point x="646" y="-1" name="inserted"/>
      <point x="507" y="-61"/>
      <point x="427" y="-61" type="qcurve" smooth="yes"/>
      <point x="283" y="-61"/>
      <point x="98" y="102"/>
      <point x="98" y="227" type="qcurve" smooth="yes"/>
      <point x="98" y="379"/>
      <point x="329" y="547"/>
      <point x="539" y="547" type="qcurve" smooth="yes"/>
      <point x="701" y="547" type="line"/>
      <point x="701" y="624" type="line" smooth="yes"/>
      <point x="701" y="711"/>
      <point x="597" y="814"/>
      <point x="495" y="814" type="qcurve" smooth="yes"/>
      <point x="406" y="814"/>
      <point x="285" y="724"/>
      <point x="285" y="661" type="qcurve"/>
      <point x="118" y="661" type="line"/>
      <point x="118" y="733"/>
      <point x="221" y="869"/>
      <point x="310" y="909" type="qcurve" smooth="yes" name="inserted"/>
      <point x="354" y="929" name="inserted"/>
      <point x="452" y="949"/>
      <point x="505" y="949" type="qcurve" smooth="yes"/>
      <point x="673" y="949"/>
      <point x="864" y="780"/>
      <point x="868" y="633" type="qcurve" smooth="yes"/>
      <point x="868" y="184" type="line" smooth="yes"/>
      <point x="868" y="117" name="inserted"/>
      <point x="885" y="11"/>
      <point x="902" y="-29" type="qcurve"/>
      <point x="902" y="-43" type="line"/>
      <point x="872" y="-43" type="line"/>
      <point x="820" y="-84" type="line" smooth="yes"/>
      <point x="769" y="-125" name="inserted"/>
      <point x="718" y="-204"/>
      <point x="718" y="-243" type="qcurve" smooth="yes"/>
      <point x="718" y="-276" name="inserted"/>
      <point x="753" y="-308"/>
      <point x="788" y="-308" type="qcurve" smooth="yes"/>
      <point x="810" y="-308" name="inserted"/>
      <point x="855" y="-296"/>
      <point x="878" y="-285" type="qcurve"/>
      <point x="890" y="-393" type="line"/>
      <point x="859" y="-413" name="inserted"/>
      <point x="787" y="-433"/>
      <point x="746" y="-433" type="qcurve" smooth="yes"/>
      <point x="666" y="-433"/>
      <point x="573" y="-339"/>
      <point x="573" y="-262" type="qcurve" smooth="yes"/>
      <point x="573" y="-197" name="inserted"/>
      <point x="648" y="-85"/>
    </contour>
    <contour>
      <point x="451" y="84" type="qcurve" smooth="yes"/>
      <point x="529" y="84"/>
      <point x="670" y="165"/>
      <point x="701" y="229" type="qcurve"/>
      <point x="701" y="429" type="line"/>
      <point x="571" y="429" type="line" smooth="yes"/>
      <point x="418" y="429" name="inserted"/>
      <point x="265" y="340"/>
      <point x="265" y="250" type="qcurve" smooth="yes"/>
      <point x="265" y="172"/>
      <point x="369" y="84"/>
    </contour>
  </outline>
</glyph>
<glyph name="dcroat" format="1">
  <advance width="1067"/>
  <unicode hex="0111"/>
  <outline>
    <contour>
      <point x="1076" y="1109" type="line"/>
      <point x="907" y="1109" type="line"/>
      <point x="907" y="-2" type="line"/>
      <point x="754" y="-2" type="line"/>
      <point x="746" y="102" type="line"/>
      <point x="696" y="41" name="inserted"/>
      <point x="557" y="-20"/>
      <point x="468" y="-20" type="qcurve" smooth="yes"/>
      <point x="299" y="-20"/>
      <point x="86" y="257"/>
      <point x="86" y="480" type="qcurve" smooth="yes"/>
      <point x="86" y="493" type="line" smooth="yes"/>
      <point x="86" y="717"/>
      <point x="298" y="990"/>
      <point x="470" y="990" type="qcurve" smooth="yes"/>
      <point x="555" y="990" name="inserted"/>
      <point x="691" y="931"/>
      <point x="741" y="873" type="qcurve"/>
      <point x="741" y="1109" type="line"/>
      <point x="504" y="1109" type="line"/>
      <point x="504" y="1245" type="line"/>
      <point x="741" y="1245" type="line"/>
      <point x="741" y="1380" type="line"/>
      <point x="907" y="1380" type="line"/>
      <point x="907" y="1245" type="line"/>
      <point x="1076" y="1245" type="line"/>
    </contour>
    <contour>
      <point x="252" y="474" type="qcurve" smooth="yes"/>
      <point x="252" y="309"/>
      <point x="389" y="121"/>
      <point x="509" y="121" type="qcurve" smooth="yes"/>
      <point x="589" y="121" name="inserted"/>
      <point x="704" y="192"/>
      <point x="741" y="264" type="qcurve"/>
      <point x="741" y="711" type="line"/>
      <point x="703" y="780" name="inserted"/>
      <point x="589" y="849"/>
      <point x="511" y="849" type="qcurve" smooth="yes"/>
      <point x="389" y="849"/>
      <point x="252" y="660"/>
    </contour>
  </outline>
</glyph>
<glyph name="Eogonek" format="1">
  <advance width="1048"/>
  <unicode hex="0118"/>
  <outline>
    <contour>
      <point x="893" y="562" type="line"/>
      <point x="325" y="562" type="line"/>
      <point x="325" y="98" type="line"/>
      <point x="985" y="98" type="line"/>
      <point x="985" y="-43" type="line"/>
      <point x="919" y="-43" type="line"/>
      <point x="867" y="-84" type="line" smooth="yes"/>
      <point x="816" y="-125" name="inserted"/>
      <point x="765" y="-204"/>
      <point x="765" y="-243" type="qcurve" smooth="yes"/>
      <point x="765" y="-276" name="inserted"/>
      <point x="800" y="-308"/>
      <point x="835" y="-308" type="qcurve" smooth="yes"/>
      <point x="857" y="-308" name="inserted"/>
      <point x="902" y="-296"/>
      <point x="925" y="-285" type="qcurve"/>
      <point x="937" y="-393" type="line"/>
      <point x="905" y="-413" name="inserted"/>
      <point x="833" y="-433"/>
      <point x="793" y="-433" type="qcurve" smooth="yes"/>
      <point x="713" y="-433"/>
      <point x="620" y="-339"/>
      <point x="620" y="-262" type="qcurve" smooth="yes"/>
      <point x="620" y="-200" name="inserted"/>
      <point x="690" y="-91"/>
      <point x="760" y="-43" type="qcurve"/>
      <point x="152" y="-43" type="line"/>
      <point x="152" y="1267" type="line"/>
      <point x="976" y="1267" type="line"/>
      <point x="976" y="1125" type="line"/>
      <point x="325" y="1125" type="line"/>
      <point x="325" y="704" type="line"/>
      <point x="893" y="704" type="line"/>
    </contour>
  </outline>
</glyph>
<glyph name="eogonek" format="1">
  <advance width="977"/>
  <unicode hex="0119"/>
  <outline>
    <contour>
      <point x="897" y="129" type="line"/>
      <point x="865" y="80" name="inserted"/>
      <point x="782" y="6"/>
      <point x="730" y="-18" type="qcurve"/>
      <point x="731" y="-18" type="line"/>
      <point x="679" y="-59" type="line" smooth="yes"/>
      <point x="628" y="-100" name="inserted"/>
      <point x="577" y="-179"/>
      <point x="577" y="-218" type="qcurve" smooth="yes"/>
      <point x="577" y="-251" name="inserted"/>
      <point x="612" y="-283"/>
      <point x="647" y="-283" type="qcurve" smooth="yes"/>
      <point x="669" y="-283" name="inserted"/>
      <point x="714" y="-271"/>
      <point x="737" y="-260" type="qcurve"/>
      <point x="749" y="-368" type="line"/>
      <point x="717" y="-388" name="inserted"/>
      <point x="645" y="-408"/>
      <point x="605" y="-408" type="qcurve" smooth="yes"/>
      <point x="525" y="-408"/>
      <point x="432" y="-314"/>
      <point x="432" y="-237" type="qcurve" smooth="yes"/>
      <point x="432" y="-188" name="inserted"/>
      <point x="476" y="-99"/>
      <point x="520" y="-59" type="qcurve"/>
      <point x="324" y="-55"/>
      <point x="84" y="205"/>
      <point x="84" y="420" type="qcurve" smooth="yes"/>
      <point x="84" y="450" type="line" smooth="yes"/>
      <point x="84" y="595"/>
      <point x="194" y="822"/>
      <point x="294" y="887" type="qcurve" smooth="yes" name="inserted"/>
      <point x="344" y="919" name="inserted"/>
      <point x="451" y="951"/>
      <point x="509" y="951" type="qcurve" smooth="yes"/>
      <point x="699" y="951"/>
      <point x="910" y="701"/>
      <point x="910" y="468" type="qcurve" smooth="yes"/>
      <point x="910" y="398" type="line"/>
      <point x="250" y="398" type="line"/>
      <point x="254" y="254"/>
      <point x="415" y="77"/>
      <point x="539" y="77" type="qcurve" smooth="yes"/>
      <point x="627" y="77"/>
      <point x="750" y="149"/>
      <point x="796" y="209" type="qcurve"/>
    </contour>
    <contour>
      <point x="509" y="814" type="qcurve" smooth="yes"/>
      <point x="409" y="814"/>
      <point x="272" y="668"/>
      <point x="256" y="535" type="qcurve"/>
      <point x="743" y="535" type="line"/>
      <point x="743" y="548" type="line"/>
      <point x="736" y="675"/>
      <point x="614" y="814"/>
    </contour>
  </outline>
</glyph>
<glyph name="dotlessi" format="1">
  <advance width="455"/>
  <unicode hex="0131"/>
  <outline>
    <contour>
      <point x="307" y="0" type="line"/>
      <point x="140" y="0" type="line"/>
      <point x="140" y="974" type="line"/>
      <point x="307" y="974" type="line"/>
    </contour>
  </outline>
</glyph>
<glyph name="Lslash" format="1">
  <advance width="993"/>
  <unicode hex="0141"/>
  <outline>
    <contour>
      <point x="325" y="759" type="line"/>
      <point x="562" y="834" type="line"/>
      <point x="562" y="722" type="line"/>
      <point x="325" y="646" type="line"/>
      <point x="325" y="141" type="line"/>
      <point x="946" y="141" type="line"/>
      <point x="946" y="0" type="line"/>
      <point x="151" y="0" type="line"/>
      <point x="151" y="591" type="line"/>
      <point x="31" y="554" type="line"/>
      <point x="31" y="666" type="line"/>
      <point x="151" y="704" type="line"/>
      <point x="151" y="1310" type="line"/>
      <point x="325" y="1310" type="line"/>
    </contour>
  </outline>
</glyph>
<glyph name="lslash" format="1">
  <advance width="498"/>
  <unicode hex="0142"/>
  <outline>
    <contour>
      <point x="328" y="782" type="line"/>
      <point x="470" y="837" type="line"/>
      <point x="470" y="726" type="line"/>
      <point x="328" y="671" type="line"/>
      <point x="328" y="0" type="line"/>
      <point x="160" y="0" type="line"/>
      <point x="160" y="608" type="line"/>
      <point x="31" y="558" type="line"/>
      <point x="31" y="669" type="line"/>
      <point x="160" y="718" type="line"/>
      <point x="160" y="1382" type="line"/>
      <point x="328" y="1382" type="line"/>
    </contour>
  </outline>
</glyph>
<glyph name="OE" format="1">
  <advance width="1758"/>
  <unicode hex="0152"/>
  <outline>
    <contour>
      <point x="1621" y="-2" type="line"/>
      <point x="858" y="-2" type="line"/>
      <point x="778" y="-12" name="inserted"/>
      <point x="646" y="-21"/>
      <point x="595" y="-21" type="qcurve" smooth="yes"/>
      <point x="449" y="-21"/>
      <point x="221" y="114"/>
      <point x="158" y="236" type="qcurve" smooth="yes" name="inserted"/>
      <point x="126" y="297" name="inserted"/>
      <point x="94" y="435"/>
      <point x="94" y="512" type="qcurve" smooth="yes"/>
      <point x="94" y="790" type="line" smooth="yes"/>
      <point x="94" y="945"/>
      <point x="219" y="1190"/>
      <point x="333" y="1258" type="qcurve" smooth="yes" name="inserted"/>
      <point x="390" y="1292" name="inserted"/>
      <point x="520" y="1326"/>
      <point x="593" y="1326" type="qcurve" smooth="yes"/>
      <point x="649" y="1326" name="inserted"/>
      <point x="781" y="1317"/>
      <point x="858" y="1308" type="qcurve"/>
      <point x="1612" y="1308" type="line"/>
      <point x="1612" y="1166" type="line"/>
      <point x="961" y="1166" type="line"/>
      <point x="961" y="745" type="line"/>
      <point x="1529" y="745" type="line"/>
      <point x="1529" y="604" type="line"/>
      <point x="961" y="604" type="line"/>
      <point x="961" y="139" type="line"/>
      <point x="1621" y="139" type="line"/>
    </contour>
    <contour>
      <point x="595" y="115" type="qcurve" smooth="yes"/>
      <point x="646" y="115" name="inserted"/>
      <point x="743" y="121"/>
      <point x="788" y="128" type="qcurve"/>
      <point x="788" y="1177" type="line"/>
      <point x="739" y="1184" name="inserted"/>
      <point x="642" y="1190"/>
      <point x="593" y="1190" type="qcurve" smooth="yes"/>
      <point x="437" y="1190"/>
      <point x="263" y="984"/>
      <point x="261" y="798" type="qcurve"/>
      <point x="261" y="516" type="line" smooth="yes"/>
      <point x="261" y="326"/>
      <point x="437" y="115"/>
    </contour>
  </outline>
</glyph>
<glyph name="oe" format="1">
  <advance width="1674.0"/>
  <unicode hex="0153"/>
  <outline>
    <contour>
      <point x="87" y="494" type="line" smooth="yes"/>
      <point x="87" y="638"/>
      <point x="196" y="867"/>
      <point x="295" y="928" type="qcurve" smooth="yes" name="inserted"/>
      <point x="344" y="959" name="inserted"/>
      <point x="457" y="990"/>
      <point x="521" y="990" type="qcurve" smooth="yes"/>
      <point x="644" y="990"/>
      <point x="825" y="885"/>
      <point x="880" y="795" type="qcurve"/>
      <point x="939" y="886"/>
      <point x="1115" y="990"/>
      <point x="1216" y="990" type="qcurve" smooth="yes"/>
      <point x="1402" y="990"/>
      <point x="1613" y="761"/>
      <point x="1613" y="550" type="qcurve" smooth="yes"/>
      <point x="1613" y="445" type="line"/>
      <point x="967" y="445" type="line"/>
      <point x="973" y="292"/>
      <point x="1121" y="115"/>
      <point x="1241" y="115" type="qcurve" smooth="yes"/>
      <point x="1326" y="115" name="inserted"/>
      <point x="1464" y="164"/>
      <point x="1518" y="212" type="qcurve"/>
      <point x="1585" y="99" type="line"/>
      <point x="1523" y="39" name="inserted"/>
      <point x="1351" y="-20"/>
      <point x="1241" y="-20" type="qcurve" smooth="yes"/>
      <point x="1120" y="-20"/>
      <point x="935" y="81"/>
      <point x="878" y="171" type="qcurve"/>
      <point x="823" y="82"/>
      <point x="644" y="-20"/>
      <point x="523" y="-20" type="qcurve" smooth="yes"/>
      <point x="325" y="-20"/>
      <point x="87" y="254"/>
      <point x="87" y="482" type="qcurve" smooth="yes"/>
    </contour>
    <contour>
      <point x="254" y="474" type="qcurve" smooth="yes"/>
      <point x="254" y="309"/>
      <point x="398" y="115"/>
      <point x="523" y="115" type="qcurve" smooth="yes"/>
      <point x="646" y="115"/>
      <point x="790" y="309"/>
      <point x="790" y="494" type="qcurve" smooth="yes"/>
      <point x="790" y="658"/>
      <point x="645" y="853"/>
      <point x="521" y="853" type="qcurve" smooth="yes"/>
      <point x="400" y="853"/>
      <point x="254" y="660"/>
    </contour>
    <contour>
      <point x="1216" y="853" type="qcurve" smooth="yes"/>
      <point x="1127" y="853"/>
      <point x="992" y="706"/>
      <point x="972" y="582" type="qcurve"/>
      <point x="1445" y="582" type="line"/>
      <point x="1445" y="606" type="line" smooth="yes"/>
      <point x="1445" y="718"/>
      <point x="1322" y="853"/>
    </contour>
  </outline>
</glyph>
<glyph name="Uogonek" format="1">
  <advance width="1195"/>
  <unicode hex="0172"/>
  <outline>
    <contour>
      <point x="1075" y="1272" type="line"/>
      <point x="1075" y="380" type="line"/>
      <point x="1074" y="246"/>
      <point x="950" y="43"/>
      <point x="832" y="-10" type="qcurve"/>
      <point x="762" y="-61" name="inserted"/>
      <point x="692" y="-156"/>
      <point x="692" y="-199" type="qcurve" smooth="yes"/>
      <point x="692" y="-231" name="inserted"/>
      <point x="727" y="-264"/>
      <point x="762" y="-264" type="qcurve" smooth="yes"/>
      <point x="784" y="-264" name="inserted"/>
      <point x="829" y="-252"/>
      <point x="852" y="-240" type="qcurve"/>
      <point x="864" y="-349" type="line"/>
      <point x="833" y="-369" name="inserted"/>
      <point x="761" y="-389"/>
      <point x="720" y="-389" type="qcurve" smooth="yes"/>
      <point x="640" y="-389"/>
      <point x="547" y="-295"/>
      <point x="547" y="-218" type="qcurve" smooth="yes"/>
      <point x="547" y="-174" name="inserted"/>
      <point x="583" y="-93"/>
      <point x="618" y="-56" type="qcurve"/>
      <point x="599" y="-57" type="line" smooth="yes"/>
      <point x="383" y="-57"/>
      <point x="128" y="175"/>
      <point x="126" y="379" type="qcurve" smooth="yes"/>
      <point x="126" y="1272" type="line"/>
      <point x="297" y="1272" type="line"/>
      <point x="297" y="384" type="line" smooth="yes"/>
      <point x="297" y="242"/>
      <point x="454" y="84"/>
      <point x="599" y="84" type="qcurve" smooth="yes"/>
      <point x="745" y="84"/>
      <point x="901" y="241"/>
      <point x="901" y="383" type="qcurve" smooth="yes"/>
      <point x="901" y="1272" type="line"/>
    </contour>
  </outline>
</glyph>
<glyph name="uogonek" format="1">
  <advance width="1016"/>
  <unicode hex="0173"/>
  <outline>
    <contour>
      <point x="880" y="-43" type="line"/>
      <point x="828" y="-84" type="line" smooth="yes"/>
      <point x="777" y="-125" name="inserted"/>
      <point x="726" y="-204"/>
      <point x="726" y="-243" type="qcurve" smooth="yes"/>
      <point x="726" y="-276" name="inserted"/>
      <point x="761" y="-308"/>
      <point x="797" y="-308" type="qcurve" smooth="yes"/>
      <point x="818" y="-308" name="inserted"/>
      <point x="863" y="-296"/>
      <point x="887" y="-285" type="qcurve"/>
      <point x="898" y="-393" type="line"/>
      <point x="867" y="-413" name="inserted"/>
      <point x="795" y="-433"/>
      <point x="754" y="-433" type="qcurve" smooth="yes"/>
      <point x="674" y="-433"/>
      <point x="581" y="-339"/>
      <point x="581" y="-262" type="qcurve" smooth="yes"/>
      <point x="581" y="-198" name="inserted"/>
      <point x="656" y="-86"/>
      <point x="731" y="-38" type="qcurve"/>
      <point x="727" y="53" type="line"/>
      <point x="679" y="-4" name="inserted"/>
      <point x="536" y="-61"/>
      <point x="442" y="-61" type="qcurve" smooth="yes"/>
      <point x="286" y="-61"/>
      <point x="123" y="120"/>
      <point x="122" y="297" type="qcurve" smooth="yes"/>
      <point x="122" y="931" type="line"/>
      <point x="289" y="931" type="line"/>
      <point x="289" y="301" type="line" smooth="yes"/>
      <point x="289" y="191" name="inserted"/>
      <point x="379" y="80"/>
      <point x="469" y="80" type="qcurve" smooth="yes"/>
      <point x="564" y="80" name="inserted"/>
      <point x="691" y="151"/>
      <point x="723" y="222" type="qcurve"/>
      <point x="723" y="931" type="line"/>
      <point x="889" y="931" type="line"/>
      <point x="889" y="-43" type="line"/>
    </contour>
  </outline>
</glyph>
<glyph name="florin" format="1">
  <advance width="627"/>
  <unicode hex="0192"/>
  <outline>
    <contour>
      <point x="547" y="801" type="line"/>
      <point x="365" y="801" type="line"/>
      <point x="365" y="-122" type="line" smooth="yes"/>
      <point x="365" y="-272"/>
      <point x="213" y="-437"/>
      <point x="75" y="-437" type="qcurve" smooth="yes"/>
      <point x="47" y="-437" name="inserted"/>
      <point x="-3" y="-429"/>
      <point x="-25" y="-421" type="qcurve"/>
      <point x="-13" y="-289" type="line"/>
      <point x="1" y="-294" name="inserted"/>
      <point x="45" y="-300"/>
      <point x="75" y="-300" type="qcurve" smooth="yes"/>
      <point x="133" y="-300"/>
      <point x="197" y="-207"/>
      <point x="197" y="-124" type="qcurve" smooth="yes"/>
      <point x="197" y="801" type="line"/>
      <point x="43" y="801" type="line"/>
      <point x="43" y="930" type="line"/>
      <point x="197" y="930" type="line"/>
      <point x="197" y="1038" type="line" smooth="yes"/>
      <point x="199" y="1188"/>
      <point x="356" y="1358"/>
      <point x="501" y="1358" type="qcurve" smooth="yes"/>
      <point x="528" y="1358" name="inserted"/>
      <point x="592" y="1348"/>
      <point x="630" y="1339" type="qcurve"/>
      <point x="610" y="1206" type="line"/>
      <point x="593" y="1211" name="inserted"/>
      <point x="549" y="1215"/>
      <point x="522" y="1215" type="qcurve" smooth="yes"/>
      <point x="445" y="1215" name="inserted"/>
      <point x="366" y="1128"/>
      <point x="365" y="1040" type="qcurve"/>
      <point x="365" y="930" type="line"/>
      <point x="547" y="930" type="line"/>
    </contour>
  </outline>
</glyph>
<glyph name="uni02BC" format="1">
  <advance width="650"/>
  <unicode hex="02BC"/>
  <outline>
    <contour>
      <point x="499" y="1466" type="line"/>
      <point x="336" y="1008" type="line"/>
      <point x="175" y="1008" type="line"/>
      <point x="270" y="1497" type="line"/>
      <point x="484" y="1497" type="line"/>
    </contour>
  </outline>
</glyph>
<glyph name="circumflex" format="1">
  <advance width="868"/>
  <unicode hex="02C6"/>
  <outline>
    <contour>
      <point x="697" y="1261" type="line"/>
      <point x="697" y="1252" type="line"/>
      <point x="559" y="1252" type="line"/>
      <point x="424" y="1405" type="line"/>
      <point x="290" y="1252" type="line"/>
      <point x="152" y="1252" type="line"/>
      <point x="152" y="1263" type="line"/>
      <point x="374" y="1508" type="line"/>
      <point x="474" y="1508" type="line"/>
    </contour>
  </outline>
</glyph>
<glyph name="caron" format="1">
  <advance width="818"/>
  <unicode hex="02C7"/>
  <outline>
    <contour>
      <point x="403" y="1354" type="line"/>
      <point x="538" y="1507" type="line"/>
      <point x="682" y="1507" type="line"/>
      <point x="682" y="1498" type="line"/>
      <point x="454" y="1251" type="line"/>
      <point x="352" y="1251" type="line"/>
      <point x="126" y="1498" type="line"/>
      <point x="126" y="1507" type="line"/>
      <point x="267" y="1507" type="line"/>
    </contour>
  </outline>
</glyph>
<glyph name="breve" format="1">
  <advance width="787"/>
  <unicode hex="02D8"/>
  <outline>
    <contour>
      <point x="655" y="1468" type="line"/>
      <point x="655" y="1359"/>
      <point x="507" y="1227"/>
      <point x="386" y="1227" type="qcurve" smooth="yes" name="inserted"/>
      <point x="266" y="1227"/>
      <point x="116" y="1360"/>
      <point x="116" y="1468" type="qcurve"/>
      <point x="252" y="1468" type="line"/>
      <point x="252" y="1405"/>
      <point x="320" y="1334"/>
      <point x="386" y="1334" type="qcurve" smooth="yes"/>
      <point x="449" y="1334"/>
      <point x="520" y="1404"/>
      <point x="520" y="1468" type="qcurve"/>
    </contour>
  </outline>
</glyph>
<glyph name="dotaccent" format="1">
  <advance width="447"/>
  <unicode hex="02D9"/>
  <outline>
    <contour>
      <point x="127" y="1357" type="qcurve" smooth="yes"/>
      <point x="127" y="1397"/>
      <point x="176" y="1453"/>
      <point x="225" y="1453" type="qcurve" smooth="yes" name="inserted"/>
      <point x="274" y="1453"/>
      <point x="324" y="1397"/>
      <point x="324" y="1357" type="qcurve" smooth="yes" name="inserted"/>
      <point x="324" y="1316"/>
      <point x="274" y="1262"/>
      <point x="225" y="1262" type="qcurve" smooth="yes" name="inserted"/>
      <point x="176" y="1262"/>
      <point x="127" y="1316"/>
    </contour>
  </outline>
</glyph>
<glyph name="ring" format="1">
  <advance width="617"/>
  <unicode hex="02DA"/>
  <outline>
    <contour>
      <point x="496" y="1388" type="qcurve" smooth="yes"/>
      <point x="496" y="1309"/>
      <point x="384" y="1204"/>
      <point x="302" y="1204" type="qcurve" smooth="yes"/>
      <point x="220" y="1204"/>
      <point x="109" y="1310"/>
      <point x="109" y="1388" type="qcurve" smooth="yes" name="inserted"/>
      <point x="109" y="1465"/>
      <point x="220" y="1575"/>
      <point x="302" y="1575" type="qcurve" smooth="yes" name="inserted"/>
      <point x="385" y="1575"/>
      <point x="496" y="1465"/>
    </contour>
    <contour>
      <point x="198" y="1388" type="qcurve" smooth="yes"/>
      <point x="198" y="1345"/>
      <point x="258" y="1284"/>
      <point x="302" y="1284" type="qcurve" smooth="yes"/>
      <point x="346" y="1284"/>
      <point x="407" y="1344"/>
      <point x="407" y="1388" type="qcurve" smooth="yes" name="inserted"/>
      <point x="407" y="1432"/>
      <point x="347" y="1494"/>
      <point x="302" y="1494" type="qcurve" smooth="yes"/>
      <point x="257" y="1494"/>
      <point x="198" y="1431"/>
    </contour>
  </outline>
</glyph>
<glyph name="ogonek" format="1">
  <advance width="499"/>
  <unicode hex="02DB"/>
  <outline>
    <contour>
      <point x="344" y="-43" type="line"/>
      <point x="292" y="-84" type="line" smooth="yes"/>
      <point x="241" y="-125" name="inserted"/>
      <point x="190" y="-204"/>
      <point x="190" y="-243" type="qcurve" smooth="yes"/>
      <point x="190" y="-276" name="inserted"/>
      <point x="225" y="-308"/>
      <point x="260" y="-308" type="qcurve" smooth="yes"/>
      <point x="282" y="-308" name="inserted"/>
      <point x="327" y="-296"/>
      <point x="350" y="-285" type="qcurve"/>
      <point x="362" y="-393" type="line"/>
      <point x="330" y="-413" name="inserted"/>
      <point x="258" y="-433"/>
      <point x="218" y="-433" type="qcurve" smooth="yes"/>
      <point x="138" y="-433"/>
      <point x="45" y="-339"/>
      <point x="45" y="-262" type="qcurve" smooth="yes"/>
      <point x="45" y="-182"/>
      <point x="166" y="-43"/>
      <point x="276" y="7" type="qcurve"/>
    </contour>
  </outline>
</glyph>
<glyph name="tilde" format="1">
  <advance width="869"/>
  <unicode hex="02DC"/>
  <outline>
    <contour>
      <point x="747" y="1474" type="line"/>
      <point x="747" y="1377"/>
      <point x="636" y="1256"/>
      <point x="554" y="1256" type="qcurve" smooth="yes"/>
      <point x="517" y="1256"/>
      <point x="463" y="1274"/>
      <point x="419" y="1302" type="qcurve" smooth="yes" name="inserted"/>
      <point x="375" y="1330"/>
      <point x="337" y="1342"/>
      <point x="311" y="1342" type="qcurve" smooth="yes"/>
      <point x="275" y="1342"/>
      <point x="222" y="1285"/>
      <point x="222" y="1241" type="qcurve"/>
      <point x="111" y="1247" type="line"/>
      <point x="111" y="1344"/>
      <point x="220" y="1470"/>
      <point x="303" y="1470" type="qcurve" smooth="yes"/>
      <point x="335" y="1470"/>
      <point x="385" y="1452"/>
      <point x="428" y="1426" type="qcurve" smooth="yes" name="inserted"/>
      <point x="472" y="1399"/>
      <point x="518" y="1383"/>
      <point x="545" y="1383" type="qcurve" smooth="yes"/>
      <point x="584" y="1383"/>
      <point x="635" y="1444"/>
      <point x="635" y="1485" type="qcurve"/>
    </contour>
  </outline>
</glyph>
<glyph name="hungarumlaut" format="1">
  <advance width="688"/>
  <unicode hex="02DD"/>
  <outline>
    <contour>
      <point x="545" y="1505" type="line"/>
      <point x="731" y="1505" type="line"/>
      <point x="489" y="1232" type="line"/>
      <point x="337" y="1232" type="line"/>
    </contour>
    <contour>
      <point x="239" y="1505" type="line"/>
      <point x="416" y="1505" type="line"/>
      <point x="220" y="1232" type="line"/>
      <point x="85" y="1232" type="line"/>
    </contour>
  </outline>
</glyph>
<glyph name="pi" format="1">
  <advance width="1098.0"/>
  <unicode hex="03C0"/>
  <outline>
    <contour>
      <point x="1023" y="835" type="line"/>
      <point x="883" y="835" type="line"/>
      <point x="883" y="246" type="line" smooth="yes"/>
      <point x="883" y="189"/>
      <point x="932" y="130"/>
      <point x="990" y="130" type="qcurve" smooth="yes"/>
      <point x="1012" y="130" name="inserted"/>
      <point x="1051" y="136"/>
      <point x="1068" y="141" type="qcurve"/>
      <point x="1069" y="5" type="line"/>
      <point x="1038" y="-3" name="inserted"/>
      <point x="973" y="-12"/>
      <point x="941" y="-12" type="qcurve" smooth="yes"/>
      <point x="828" y="-12" name="inserted"/>
      <point x="716" y="120"/>
      <point x="716" y="253" type="qcurve" smooth="yes"/>
      <point x="716" y="835" type="line"/>
      <point x="356" y="835" type="line"/>
      <point x="356" y="-1" type="line"/>
      <point x="189" y="-1" type="line"/>
      <point x="189" y="835" type="line"/>
      <point x="37" y="835" type="line"/>
      <point x="37" y="973" type="line"/>
      <point x="1023" y="973" type="line"/>
    </contour>
  </outline>
</glyph>
<glyph name="invertedcandrabindu" format="1">
  <advance width="0"/>
  <unicode hex="0900"/>
  <outline>
    <component base="candrabindudeva" xScale="-1" yScale="-1" xOffset="-1123" yOffset="3224"/>
    <contour>
      <point x="-371" y="1279" type="move" name="_top"/>
    </contour>
  </outline>
</glyph>
<glyph name="anusvaradeva" format="1">
  <advance width="0"/>
  <unicode hex="0902"/>
  <outline>
    <contour>
      <point x="-219" y="1460" type="line"/>
      <point x="-396" y="1460" type="line"/>
      <point x="-396" y="1642" type="line"/>
      <point x="-219" y="1642" type="line"/>
    </contour>
    <contour>
      <point x="-371.0" y="1291.0" type="move" name="_top"/>
    </contour>
  </outline>
</glyph>
<glyph name="adeva" format="1">
  <advance width="1419"/>
  <unicode hex="0905"/>
  <outline>
    <contour>
      <point x="227" y="631" type="qcurve"/>
      <point x="227" y="772" type="line"/>
      <point x="407" y="772"/>
      <point x="549" y="899"/>
      <point x="549" y="982" type="qcurve" smooth="yes"/>
      <point x="549" y="1052"/>
      <point x="456" y="1142"/>
      <point x="364" y="1142" type="qcurve" smooth="yes"/>
      <point x="316" y="1142"/>
      <point x="238" y="1120"/>
      <point x="170" y="1087" type="qcurve"/>
      <point x="148" y="1227" type="line"/>
      <point x="201" y="1255"/>
      <point x="312" y="1284"/>
      <point x="364" y="1284" type="qcurve" smooth="yes"/>
      <point x="528" y="1284"/>
      <point x="726" y="1124"/>
      <point x="726" y="979" type="qcurve" smooth="yes"/>
      <point x="726" y="822"/>
      <point x="457" y="631"/>
    </contour>
    <contour>
      <point x="362" y="781" type="line"/>
      <point x="513" y="781"/>
      <point x="751" y="588"/>
      <point x="751" y="432" type="qcurve" smooth="yes"/>
      <point x="751" y="274"/>
      <point x="553" y="94"/>
      <point x="391" y="94" type="qcurve" smooth="yes"/>
      <point x="320" y="94"/>
      <point x="187" y="121"/>
      <point x="88" y="158" type="qcurve"/>
      <point x="111" y="302" type="line"/>
      <point x="195" y="267"/>
      <point x="302" y="236"/>
      <point x="365" y="236" type="qcurve" smooth="yes"/>
      <point x="464" y="236"/>
      <point x="574" y="349"/>
      <point x="574" y="440" type="qcurve" smooth="yes"/>
      <point x="574" y="525"/>
      <point x="454" y="651"/>
      <point x="346" y="651" type="qcurve"/>
    </contour>
    <contour>
      <point x="1021" y="1198" type="line"/>
      <point x="1198" y="1198" type="line"/>
      <point x="1198" y="0" type="line"/>
      <point x="1021" y="0" type="line"/>
    </contour>
    <contour>
      <point x="1449" y="1138" type="line"/>
      <point x="815" y="1138" type="line"/>
      <point x="815" y="1279" type="line"/>
      <point x="1449" y="1279" type="line"/>
    </contour>
    <contour>
      <point x="614" y="666" type="line"/>
      <point x="1079" y="666" type="line"/>
      <point x="1079" y="525" type="line"/>
      <point x="630" y="525" type="line"/>
    </contour>
  </outline>
</glyph>
<glyph name="ideva" format="1">
  <advance width="1053.0"/>
  <unicode hex="0907"/>
  <outline>
    <contour>
      <point x="1083" y="1138" type="line"/>
      <point x="-30" y="1138" type="line"/>
      <point x="-30" y="1279" type="line"/>
      <point x="1083" y="1279" type="line"/>
    </contour>
    <contour>
      <point x="604" y="-238" type="line"/>
      <point x="357" y="65" type="line"/>
      <point x="490" y="21" type="line"/>
      <point x="387" y="21" type="line" smooth="yes"/>
      <point x="274" y="21"/>
      <point x="137" y="101"/>
      <point x="137" y="162" type="qcurve" smooth="yes"/>
      <point x="137" y="222"/>
      <point x="220" y="309"/>
      <point x="286" y="309" type="qcurve" smooth="yes"/>
      <point x="346" y="309"/>
      <point x="436" y="249"/>
      <point x="503" y="167" type="qcurve" smooth="yes"/>
      <point x="503" y="128" type="line"/>
      <point x="743" y="-168" type="line"/>
    </contour>
    <contour>
      <point x="423" y="949" type="qcurve" smooth="yes"/>
      <point x="728" y="949" type="line"/>
      <point x="655" y="875" type="line"/>
      <point x="655" y="1202" type="line"/>
      <point x="833" y="1202" type="line"/>
      <point x="833" y="808" type="line"/>
      <point x="430" y="808" type="line" smooth="yes"/>
      <point x="360" y="808"/>
      <point x="285" y="741"/>
      <point x="285" y="684" type="qcurve" smooth="yes"/>
      <point x="285" y="632"/>
      <point x="364" y="559"/>
      <point x="459" y="547" type="qcurve"/>
      <point x="313" y="547" type="line"/>
      <point x="381" y="584"/>
      <point x="503" y="622"/>
      <point x="585" y="622" type="qcurve" smooth="yes"/>
      <point x="749" y="622"/>
      <point x="932" y="462"/>
      <point x="932" y="332" type="qcurve" smooth="yes"/>
      <point x="932" y="203"/>
      <point x="706" y="31"/>
      <point x="512" y="31" type="qcurve" smooth="yes"/>
      <point x="393" y="31"/>
      <point x="282" y="66"/>
      <point x="195" y="111" type="qcurve"/>
      <point x="240" y="239" type="line"/>
      <point x="314" y="203"/>
      <point x="454" y="164"/>
      <point x="498" y="164" type="qcurve" smooth="yes"/>
      <point x="623" y="164"/>
      <point x="756" y="269"/>
      <point x="756" y="340" type="qcurve" smooth="yes"/>
      <point x="756" y="406"/>
      <point x="672" y="481"/>
      <point x="590" y="481" type="qcurve" smooth="yes"/>
      <point x="518" y="481"/>
      <point x="425" y="449"/>
      <point x="379" y="420" type="qcurve"/>
      <point x="358" y="420" type="line"/>
      <point x="252" y="452"/>
      <point x="113" y="607"/>
      <point x="113" y="707" type="qcurve" smooth="yes"/>
      <point x="113" y="810"/>
      <point x="273" y="949"/>
    </contour>
  </outline>
</glyph>
<glyph name="udeva" format="1">
  <advance width="953"/>
  <unicode hex="0909"/>
  <outline>
    <contour>
      <point x="-30" y="1138" type="line"/>
      <point x="-30" y="1279" type="line"/>
      <point x="983" y="1279" type="line"/>
      <point x="983" y="1138" type="line"/>
    </contour>
    <contour>
      <point x="227" y="617" type="line"/>
      <point x="227" y="764" type="line"/>
      <point x="247" y="764" type="line" smooth="yes"/>
      <point x="421" y="764"/>
      <point x="556" y="880"/>
      <point x="556" y="972" type="qcurve" smooth="yes"/>
      <point x="556" y="1042"/>
      <point x="456" y="1139"/>
      <point x="364" y="1139" type="qcurve" smooth="yes"/>
      <point x="170" y="1139" type="line"/>
      <point x="151" y="1260" type="line"/>
      <point x="364" y="1260" type="line" smooth="yes"/>
      <point x="518" y="1260"/>
      <point x="717" y="1104"/>
      <point x="717" y="969" type="qcurve" smooth="yes"/>
      <point x="717" y="806"/>
      <point x="488" y="617"/>
      <point x="268" y="617" type="qcurve" smooth="yes"/>
    </contour>
    <contour>
      <point x="392" y="769" type="line"/>
      <point x="566" y="779"/>
      <point x="810" y="568"/>
      <point x="810" y="419" type="qcurve" smooth="yes"/>
      <point x="810" y="247"/>
      <point x="593" y="63"/>
      <point x="411" y="63" type="qcurve" smooth="yes"/>
      <point x="339" y="63"/>
      <point x="179" y="96"/>
      <point x="80" y="135" type="qcurve"/>
      <point x="105" y="279" type="line"/>
      <point x="189" y="242"/>
      <point x="312" y="209"/>
      <point x="389" y="209" type="qcurve" smooth="yes"/>
      <point x="508" y="209"/>
      <point x="643" y="320"/>
      <point x="643" y="427" type="qcurve" smooth="yes"/>
      <point x="643" y="511"/>
      <point x="494" y="639"/>
      <point x="366" y="639" type="qcurve"/>
    </contour>
    <contour>
      <point x="451.0" y="1291.0" type="move" name="top"/>
    </contour>
  </outline>
</glyph>
<glyph name="uudeva" format="1">
  <advance width="1379"/>
  <unicode hex="090A"/>
  <outline>
    <contour>
      <point x="796" y="1138" type="line"/>
      <point x="796" y="1279" type="line"/>
      <point x="1409" y="1279" type="line"/>
      <point x="1409" y="1138" type="line"/>
    </contour>
    <contour>
      <point x="554" y="690" type="line"/>
      <point x="610" y="745"/>
      <point x="799" y="821"/>
      <point x="912" y="821" type="qcurve" smooth="yes"/>
      <point x="1076" y="821"/>
      <point x="1277" y="625"/>
      <point x="1277" y="474" type="qcurve" smooth="yes"/>
      <point x="1277" y="381"/>
      <point x="1204" y="202"/>
      <point x="1148" y="131" type="qcurve"/>
      <point x="982" y="161" type="line"/>
      <point x="1045" y="249"/>
      <point x="1098" y="395"/>
      <point x="1098" y="474" type="qcurve" smooth="yes"/>
      <point x="1098" y="564"/>
      <point x="991" y="682"/>
      <point x="900" y="682" type="qcurve" smooth="yes"/>
      <point x="819" y="682"/>
      <point x="687" y="606"/>
      <point x="634" y="540" type="qcurve"/>
    </contour>
    <component base="udeva"/>
    <contour>
      <point x="561.0" y="1291.0" type="move" name="top"/>
    </contour>
  </outline>
</glyph>
<glyph name="rvocalicdeva" format="1">
  <advance width="1551"/>
  <unicode hex="090B"/>
  <outline>
    <contour>
      <point x="948" y="1138" type="line"/>
      <point x="948" y="1279" type="line"/>
      <point x="1581" y="1279" type="line"/>
      <point x="1581" y="1138" type="line"/>
    </contour>
    <contour>
      <point x="1228" y="779" type="line"/>
      <point x="1343" y="681"/>
      <point x="1445" y="494"/>
      <point x="1445" y="400" type="qcurve" smooth="yes"/>
      <point x="1445" y="284"/>
      <point x="1289" y="126"/>
      <point x="1170" y="126" type="qcurve" smooth="yes"/>
      <point x="1124" y="126"/>
      <point x="1081" y="132"/>
      <point x="1055" y="138" type="qcurve"/>
      <point x="1042" y="265" type="line"/>
      <point x="1062" y="262"/>
      <point x="1091" y="259"/>
      <point x="1116" y="259" type="qcurve" smooth="yes"/>
      <point x="1193" y="259"/>
      <point x="1280" y="340"/>
      <point x="1280" y="408" type="qcurve" smooth="yes"/>
      <point x="1280" y="470"/>
      <point x="1199" y="602"/>
      <point x="1106" y="673" type="qcurve"/>
    </contour>
    <contour>
      <point x="1300" y="727" type="qcurve" smooth="yes"/>
      <point x="1222" y="649"/>
      <point x="940" y="551"/>
      <point x="796" y="551" type="qcurve"/>
      <point x="799" y="709" type="line"/>
      <point x="907" y="709"/>
      <point x="1046" y="747"/>
      <point x="1103" y="790" type="qcurve"/>
      <point x="1075" y="744" type="line"/>
      <point x="1044" y="784"/>
      <point x="1024" y="828"/>
      <point x="1024" y="855" type="qcurve" smooth="yes"/>
      <point x="1024" y="894"/>
      <point x="1099" y="958"/>
      <point x="1167" y="958" type="qcurve" smooth="yes"/>
      <point x="1249" y="958"/>
      <point x="1350" y="881"/>
      <point x="1350" y="832" type="qcurve" smooth="yes"/>
      <point x="1350" y="801"/>
      <point x="1324" y="751"/>
    </contour>
    <contour>
      <point x="809" y="531" type="line"/>
      <point x="244" y="187" type="line"/>
      <point x="151" y="326" type="line"/>
      <point x="739" y="675" type="line"/>
    </contour>
    <contour>
      <point x="-30" y="1138" type="line"/>
      <point x="-30" y="1279" type="line"/>
      <point x="1112" y="1279" type="line"/>
      <point x="1112" y="1138" type="line"/>
    </contour>
    <contour>
      <point x="28" y="871" type="line"/>
      <point x="77" y="897"/>
      <point x="210" y="936"/>
      <point x="298" y="936" type="qcurve" smooth="yes"/>
      <point x="375" y="936"/>
      <point x="536" y="875"/>
      <point x="610" y="825" type="qcurve" smooth="yes"/>
      <point x="767" y="719" type="line"/>
      <point x="767" y="536" type="line"/>
      <point x="568" y="669" type="line" smooth="yes"/>
      <point x="490" y="721"/>
      <point x="359" y="782"/>
      <point x="297" y="782" type="qcurve" smooth="yes"/>
      <point x="236" y="782"/>
      <point x="117" y="742"/>
      <point x="60" y="713" type="qcurve"/>
    </contour>
    <contour>
      <point x="684" y="1198" type="line"/>
      <point x="861" y="1198" type="line"/>
      <point x="861" y="0" type="line"/>
      <point x="684" y="0" type="line"/>
    </contour>
    <contour>
      <point x="730.0" y="1265.0" type="move" name="mark0"/>
    </contour>
  </outline>
</glyph>
<glyph name="lvocalicdeva" format="1">
  <advance width="1441"/>
  <unicode hex="090C"/>
  <outline>
    <contour>
      <point x="1041" y="1198" type="line"/>
      <point x="1220" y="1198" type="line"/>
      <point x="1220" y="736" type="line"/>
      <point x="1041" y="736" type="line"/>
    </contour>
    <contour>
      <point x="-30" y="1138" type="line"/>
      <point x="-30" y="1279" type="line"/>
      <point x="1471" y="1279" type="line"/>
      <point x="1471" y="1138" type="line"/>
    </contour>
    <contour>
      <point x="781" y="485" type="qcurve"/>
      <point x="627" y="421" type="line"/>
      <point x="627" y="571"/>
      <point x="499" y="719"/>
      <point x="416" y="719" type="qcurve" smooth="yes"/>
      <point x="352" y="719"/>
      <point x="259" y="613"/>
      <point x="259" y="514" type="qcurve" smooth="yes"/>
      <point x="259" y="408"/>
      <point x="342" y="213"/>
      <point x="439" y="94" type="qcurve"/>
      <point x="295" y="34" type="line"/>
      <point x="195" y="149"/>
      <point x="83" y="396"/>
      <point x="83" y="532" type="qcurve" smooth="yes"/>
      <point x="83" y="681"/>
      <point x="263" y="877"/>
      <point x="401" y="877" type="qcurve" smooth="yes"/>
      <point x="570" y="877"/>
      <point x="781" y="658"/>
    </contour>
    <contour>
      <point x="1228" y="433" type="line"/>
      <point x="1139" y="379" type="line"/>
      <point x="1143" y="412"/>
      <point x="1162" y="481"/>
      <point x="1162" y="523" type="qcurve" smooth="yes"/>
      <point x="1162" y="614"/>
      <point x="1082" y="732"/>
      <point x="1000" y="732" type="qcurve" smooth="yes"/>
      <point x="922" y="732"/>
      <point x="804" y="587"/>
      <point x="804" y="425" type="qcurve" smooth="yes"/>
      <point x="804" y="295" type="line"/>
      <point x="627" y="295" type="line"/>
      <point x="627" y="454" type="line" smooth="yes"/>
      <point x="627" y="633"/>
      <point x="837" y="878"/>
      <point x="993" y="878" type="qcurve" smooth="yes"/>
      <point x="1149" y="878"/>
      <point x="1335" y="690"/>
      <point x="1335" y="541" type="qcurve" smooth="yes"/>
      <point x="1335" y="476"/>
      <point x="1307" y="356"/>
      <point x="1292" y="304" type="qcurve"/>
      <point x="1245" y="304" type="line" smooth="yes"/>
      <point x="1162" y="304"/>
      <point x="1090" y="241"/>
      <point x="1090" y="188" type="qcurve" smooth="yes"/>
      <point x="1090" y="137"/>
      <point x="1174" y="80"/>
      <point x="1236" y="80" type="qcurve" smooth="yes"/>
      <point x="1279" y="80"/>
      <point x="1345" y="95"/>
      <point x="1367" y="105" type="qcurve"/>
      <point x="1386" y="-16" type="line"/>
      <point x="1354" y="-30"/>
      <point x="1276" y="-43"/>
      <point x="1234" y="-43" type="qcurve" smooth="yes"/>
      <point x="1082" y="-43"/>
      <point x="925" y="93"/>
      <point x="925" y="202" type="qcurve" smooth="yes"/>
      <point x="925" y="311"/>
      <point x="1085" y="433"/>
      <point x="1206" y="433" type="qcurve" smooth="yes"/>
    </contour>
    <contour>
      <point x="910.0" y="1265.0" type="move" name="mark0"/>
    </contour>
  </outline>
</glyph>
<glyph name="edeva" format="1">
  <advance width="1120.0"/>
  <unicode hex="090F"/>
  <outline>
    <contour>
      <point x="924" y="1216" type="line"/>
      <point x="924" y="816" type="line" smooth="yes"/>
      <point x="924" y="689"/>
      <point x="829" y="505"/>
      <point x="723" y="442" type="qcurve"/>
      <point x="610" y="542" type="line"/>
      <point x="676" y="592"/>
      <point x="747" y="727"/>
      <point x="747" y="833" type="qcurve" smooth="yes"/>
      <point x="747" y="1216" type="line"/>
    </contour>
    <contour>
      <point x="-30" y="1138" type="line"/>
      <point x="-30" y="1279" type="line"/>
      <point x="1150" y="1279" type="line"/>
      <point x="1150" y="1138" type="line"/>
    </contour>
    <contour>
      <point x="166" y="1216" type="line"/>
      <point x="343" y="1216" type="line"/>
      <point x="343" y="730" type="line" smooth="yes"/>
      <point x="343" y="437"/>
      <point x="613" y="148"/>
      <point x="898" y="148" type="qcurve"/>
      <point x="868" y="5" type="line"/>
      <point x="523" y="5"/>
      <point x="166" y="398"/>
      <point x="166" y="734" type="qcurve" smooth="yes"/>
    </contour>
    <contour>
      <point x="-33" y="20" type="move" name="x44"/>
    </contour>
  </outline>
</glyph>
<glyph name="kadeva" format="1">
  <advance width="1532"/>
  <unicode hex="0915"/>
  <outline>
    <contour>
      <point x="-30" y="1138" type="line"/>
      <point x="-30" y="1279" type="line"/>
      <point x="1562" y="1279" type="line"/>
      <point x="1562" y="1138" type="line"/>
    </contour>
    <contour>
      <point x="674" y="1192" type="line"/>
      <point x="851" y="1192" type="line"/>
      <point x="851" y="0" type="line"/>
      <point x="674" y="0" type="line"/>
    </contour>
    <contour>
      <point x="702" y="294" type="line"/>
      <point x="675" y="258"/>
      <point x="527" y="192"/>
      <point x="426" y="192" type="qcurve" smooth="yes"/>
      <point x="270" y="192"/>
      <point x="50" y="384"/>
      <point x="50" y="559" type="qcurve" smooth="yes"/>
      <point x="50" y="715"/>
      <point x="251" y="900"/>
      <point x="418" y="900" type="qcurve" smooth="yes"/>
      <point x="511" y="900"/>
      <point x="635" y="867"/>
      <point x="702" y="838" type="qcurve"/>
      <point x="702" y="674" type="line"/>
      <point x="643" y="713"/>
      <point x="514" y="759"/>
      <point x="433" y="759" type="qcurve" smooth="yes"/>
      <point x="337" y="759"/>
      <point x="226" y="648"/>
      <point x="226" y="556" type="qcurve" smooth="yes"/>
      <point x="226" y="443"/>
      <point x="343" y="333"/>
      <point x="422" y="333" type="qcurve" smooth="yes"/>
      <point x="509" y="333"/>
      <point x="657" y="414"/>
      <point x="702" y="481" type="qcurve"/>
    </contour>
    <contour>
      <point x="797" y="790" type="line"/>
      <point x="833" y="815"/>
      <point x="964" y="861"/>
      <point x="1057" y="861" type="qcurve" smooth="yes"/>
      <point x="1221" y="861"/>
      <point x="1430" y="665"/>
      <point x="1430" y="514" type="qcurve" smooth="yes"/>
      <point x="1430" y="421"/>
      <point x="1357" y="242"/>
      <point x="1301" y="171" type="qcurve"/>
      <point x="1135" y="201" type="line"/>
      <point x="1198" y="289"/>
      <point x="1251" y="435"/>
      <point x="1251" y="514" type="qcurve" smooth="yes"/>
      <point x="1251" y="604"/>
      <point x="1144" y="722"/>
      <point x="1053" y="722" type="qcurve" smooth="yes"/>
      <point x="981" y="722"/>
      <point x="850" y="656"/>
      <point x="797" y="600" type="qcurve"/>
    </contour>
    <contour>
      <point x="675.0" y="0.0" type="move" name="btm"/>
    </contour>
    <contour>
      <point x="700.0" y="1291.0" type="move" name="top"/>
    </contour>
  </outline>
</glyph>
<glyph name="khadeva" format="1">
  <advance width="1698.0"/>
  <unicode hex="0916"/>
  <outline>
    <contour>
      <point x="1320" y="347" type="line"/>
      <point x="1268" y="320"/>
      <point x="1178" y="297"/>
      <point x="1104" y="297" type="qcurve" smooth="yes"/>
      <point x="971" y="297"/>
      <point x="749" y="484"/>
      <point x="749" y="641" type="qcurve" smooth="yes"/>
      <point x="749" y="783"/>
      <point x="948" y="953"/>
      <point x="1082" y="953" type="qcurve" smooth="yes"/>
      <point x="1169" y="953"/>
      <point x="1279" y="925"/>
      <point x="1335" y="893" type="qcurve"/>
      <point x="1335" y="733" type="line"/>
      <point x="1271" y="783"/>
      <point x="1169" y="812"/>
      <point x="1105" y="812" type="qcurve" smooth="yes"/>
      <point x="1028" y="812"/>
      <point x="926" y="713"/>
      <point x="926" y="629" type="qcurve" smooth="yes"/>
      <point x="926" y="536"/>
      <point x="1041" y="440"/>
      <point x="1114" y="440" type="qcurve" smooth="yes"/>
      <point x="1170" y="440"/>
      <point x="1265" y="468"/>
      <point x="1320" y="511" type="qcurve"/>
    </contour>
    <contour>
      <point x="793" y="1138" type="line"/>
      <point x="793" y="1279" type="line"/>
      <point x="1728" y="1279" type="line"/>
      <point x="1728" y="1138" type="line"/>
    </contour>
    <contour>
      <point x="1300" y="1198" type="line"/>
      <point x="1477" y="1198" type="line"/>
      <point x="1477" y="0" type="line"/>
      <point x="1300" y="0" type="line"/>
    </contour>
    <component base="radeva"/>
    <contour>
      <point x="1335.0" y="1291.0" type="move" name="top"/>
    </contour>
  </outline>
</glyph>
<glyph name="gadeva" format="1">
  <advance width="1208"/>
  <unicode hex="0917"/>
  <outline>
    <contour>
      <point x="810" y="1198" type="line"/>
      <point x="987" y="1198" type="line"/>
      <point x="987" y="0" type="line"/>
      <point x="810" y="0" type="line"/>
    </contour>
    <contour>
      <point x="1238" y="1138" type="line"/>
      <point x="-30" y="1138" type="line"/>
      <point x="-30" y="1279" type="line"/>
      <point x="1238" y="1279" type="line"/>
    </contour>
    <contour>
      <point x="433" y="1205" type="line"/>
      <point x="433" y="519" type="line" smooth="yes"/>
      <point x="433" y="460"/>
      <point x="386" y="399"/>
      <point x="336" y="399" type="qcurve" smooth="yes"/>
      <point x="250" y="399"/>
      <point x="92" y="548"/>
      <point x="92" y="633" type="qcurve" smooth="yes"/>
      <point x="92" y="672"/>
      <point x="154" y="719"/>
      <point x="211" y="719" type="qcurve" smooth="yes"/>
      <point x="276" y="719" type="line"/>
      <point x="256" y="633" type="line"/>
      <point x="256" y="1205" type="line"/>
    </contour>
    <contour>
      <point x="839" y="1291" type="move" name="top"/>
    </contour>
  </outline>
</glyph>
<glyph name="ghadeva" format="1">
  <advance width="1266.0"/>
  <unicode hex="0918"/>
  <outline>
    <contour>
      <point x="-30" y="1138" type="line"/>
      <point x="-30" y="1279" type="line"/>
      <point x="1296" y="1279" type="line"/>
      <point x="1296" y="1138" type="line"/>
    </contour>
    <contour>
      <point x="868" y="1191" type="line"/>
      <point x="1045" y="1191" type="line"/>
      <point x="1045" y="0" type="line"/>
      <point x="868" y="0" type="line"/>
    </contour>
    <contour>
      <point x="590" y="714" type="line"/>
      <point x="496" y="714" type="line" smooth="yes"/>
      <point x="373" y="714"/>
      <point x="155" y="868"/>
      <point x="155" y="1013" type="qcurve" smooth="yes"/>
      <point x="155" y="1123"/>
      <point x="324" y="1274"/>
      <point x="483" y="1274" type="qcurve" smooth="yes"/>
      <point x="590" y="1274" type="line"/>
      <point x="590" y="1138" type="line"/>
      <point x="507" y="1138" type="line" smooth="yes"/>
      <point x="415" y="1138"/>
      <point x="333" y="1061"/>
      <point x="333" y="999" type="qcurve" smooth="yes"/>
      <point x="333" y="930"/>
      <point x="424" y="848"/>
      <point x="504" y="848" type="qcurve" smooth="yes"/>
      <point x="590" y="848" type="line"/>
    </contour>
    <contour>
      <point x="903" y="275" type="line"/>
      <point x="844" y="238"/>
      <point x="656" y="192"/>
      <point x="550" y="192" type="qcurve" smooth="yes"/>
      <point x="355" y="192"/>
      <point x="135" y="382"/>
      <point x="135" y="533" type="qcurve" smooth="yes"/>
      <point x="135" y="671"/>
      <point x="366" y="849"/>
      <point x="581" y="849" type="qcurve" smooth="yes"/>
      <point x="648" y="849" type="line"/>
      <point x="659" y="708" type="line"/>
      <point x="576" y="708" type="line" smooth="yes"/>
      <point x="439" y="708"/>
      <point x="312" y="608"/>
      <point x="312" y="521" type="qcurve" smooth="yes"/>
      <point x="312" y="437"/>
      <point x="443" y="333"/>
      <point x="553" y="333" type="qcurve" smooth="yes"/>
      <point x="661" y="333"/>
      <point x="842" y="402"/>
      <point x="909" y="462" type="qcurve"/>
    </contour>
    <contour>
      <point x="898" y="1291" type="move" name="top"/>
    </contour>
  </outline>
</glyph>
<glyph name="ngadeva" format="1">
  <advance width="1219.0"/>
  <unicode hex="0919"/>
  <outline>
    <contour>
      <point x="992" y="1138" type="line"/>
      <point x="992" y="1279" type="line"/>
      <point x="1249" y="1279" type="line"/>
      <point x="1249" y="1138" type="line"/>
    </contour>
    <contour>
      <point x="1148" y="605" type="line"/>
      <point x="971" y="605" type="line"/>
      <point x="971" y="772" type="line"/>
      <point x="1148" y="772" type="line"/>
    </contour>
    <component base="ddadeva"/>
    <contour>
      <point x="497.0" y="65.0" type="move" name="btm"/>
    </contour>
    <contour>
      <point x="710.0" y="1291.0" type="move" name="top"/>
    </contour>
  </outline>
</glyph>
<glyph name="cadeva" format="1">
  <advance width="1315"/>
  <unicode hex="091A"/>
  <outline>
    <contour>
      <point x="47" y="718" type="line"/>
      <point x="47" y="859" type="line"/>
      <point x="740" y="859" type="line"/>
      <point x="740" y="718" type="line"/>
    </contour>
    <contour>
      <point x="-30" y="1138" type="line"/>
      <point x="-30" y="1279" type="line"/>
      <point x="1345" y="1279" type="line"/>
      <point x="1345" y="1138" type="line"/>
    </contour>
    <contour>
      <point x="917" y="1191" type="line"/>
      <point x="1094" y="1191" type="line"/>
      <point x="1094" y="0" type="line"/>
      <point x="917" y="0" type="line"/>
    </contour>
    <contour>
      <point x="987" y="322" type="line"/>
      <point x="951" y="275"/>
      <point x="769" y="195"/>
      <point x="648" y="195" type="qcurve" smooth="yes"/>
      <point x="477" y="195"/>
      <point x="255" y="385"/>
      <point x="255" y="541" type="qcurve" smooth="yes"/>
      <point x="255" y="675"/>
      <point x="451" y="859"/>
      <point x="672" y="859" type="qcurve"/>
      <point x="672" y="719" type="line"/>
      <point x="549" y="719"/>
      <point x="432" y="608"/>
      <point x="432" y="525" type="qcurve" smooth="yes"/>
      <point x="432" y="443"/>
      <point x="548" y="346"/>
      <point x="649" y="346" type="qcurve" smooth="yes"/>
      <point x="750" y="346"/>
      <point x="936" y="444"/>
      <point x="987" y="527" type="qcurve"/>
    </contour>
    <contour>
      <point x="948.0" y="1291.0" type="move" name="top"/>
    </contour>
  </outline>
</glyph>
<glyph name="chadeva" format="1">
  <advance width="1443"/>
  <unicode hex="091B"/>
  <outline>
    <contour>
      <point x="1473" y="1138" type="line"/>
      <point x="-30" y="1138" type="line"/>
      <point x="-30" y="1279" type="line"/>
      <point x="1473" y="1279" type="line"/>
    </contour>
    <contour>
      <point x="600" y="662" type="line"/>
      <point x="506" y="662" type="line" smooth="yes"/>
      <point x="373" y="662"/>
      <point x="156" y="842"/>
      <point x="156" y="987" type="qcurve" smooth="yes"/>
      <point x="156" y="1110"/>
      <point x="334" y="1274"/>
      <point x="493" y="1274" type="qcurve" smooth="yes"/>
      <point x="600" y="1274" type="line"/>
      <point x="600" y="1138" type="line"/>
      <point x="517" y="1138" type="line" smooth="yes"/>
      <point x="425" y="1138"/>
      <point x="333" y="1048"/>
      <point x="333" y="973" type="qcurve" smooth="yes"/>
      <point x="333" y="894"/>
      <point x="434" y="796"/>
      <point x="514" y="796" type="qcurve" smooth="yes"/>
      <point x="600" y="796" type="line"/>
    </contour>
    <contour>
      <point x="1298" y="599" type="qcurve" smooth="yes"/>
      <point x="1298" y="366"/>
      <point x="964" y="51"/>
      <point x="691" y="50" type="qcurve" smooth="yes"/>
      <point x="468" y="49"/>
      <point x="173" y="273"/>
      <point x="173" y="462" type="qcurve" smooth="yes"/>
      <point x="173" y="610"/>
      <point x="396" y="797"/>
      <point x="591" y="797" type="qcurve" smooth="yes"/>
      <point x="658" y="797" type="line"/>
      <point x="669" y="656" type="line"/>
      <point x="586" y="656" type="line" smooth="yes"/>
      <point x="469" y="656"/>
      <point x="350" y="547"/>
      <point x="350" y="450" type="qcurve" smooth="yes"/>
      <point x="350" y="336"/>
      <point x="531" y="191"/>
      <point x="688" y="191" type="qcurve" smooth="yes"/>
      <point x="870" y="191"/>
      <point x="1128" y="413"/>
      <point x="1128" y="611" type="qcurve" smooth="yes"/>
      <point x="1128" y="704"/>
      <point x="1052" y="805"/>
      <point x="1000" y="805" type="qcurve" smooth="yes"/>
      <point x="959" y="805"/>
      <point x="884" y="780"/>
      <point x="844" y="753" type="qcurve"/>
      <point x="809" y="892" type="line"/>
      <point x="852" y="914"/>
      <point x="942" y="947"/>
      <point x="1004" y="947" type="qcurve" smooth="yes"/>
      <point x="1137" y="947"/>
      <point x="1298" y="760"/>
    </contour>
    <contour>
      <point x="1045" y="1225" type="line"/>
      <point x="1222" y="1225" type="line"/>
      <point x="1222" y="833" type="line"/>
      <point x="1045" y="833" type="line"/>
    </contour>
    <contour>
      <point x="634.0" y="69.0" type="move" name="btm"/>
    </contour>
    <contour>
      <point x="994.0" y="1291.0" type="move" name="top"/>
    </contour>
  </outline>
</glyph>
